<?xml version="1.0" encoding="UTF-8"?>
<!DOCTYPE svg PUBLIC "-//W3C//DTD SVG 1.1//EN" "http://www.w3.org/Graphics/SVG/1.1/DTD/svg11.dtd">
<!-- Creator: CorelDRAW X8 -->
<svg xmlns="http://www.w3.org/2000/svg" xml:space="preserve" width="60px" height="60px" version="1.1" style="shape-rendering:geometricPrecision; text-rendering:geometricPrecision; image-rendering:optimizeQuality; fill-rule:evenodd; clip-rule:evenodd"
viewBox="0 0 600000 600000"
 xmlns:xlink="http://www.w3.org/1999/xlink">
 <defs>
  <style type="text/css">
   <![CDATA[
    .fil1 {fill:#fff}
    .fil0 {fill:#fff;fill-rule:nonzero}
   ]]>
  </style>
 </defs>
 <g id="Layer_x0020_1">
  <metadata id="CorelCorpID_0Corel-Layer"/>
  <g id="_2348609870336">
   <g>
    <path id="path14" class="fil0" d="M101047 365245l37480 -11109 -131 54105 -37349 12527 0 -55523 0 0zm84629 -102725l-37432 -12495 0 -54136 37477 11106 -45 55525zm134005 -72493l-34934 -10797 -34475 10797 34526 9252 34883 -9252zm-29846 16968l37480 -11106 -131 54099 -37349 12532 0 -55525zm-9763 55525l-37437 -12495 0 -54136 37483 11106 -46 55525zm-54788 -72493l-34931 -10797 -34475 10797 34526 9252 34880 -9252zm-29846 16968l37480 -11106 -128 54099 -37352 12532 0 -55525zm-64548 141282l-34931 -10797 -34475 10797 34526 9252 34880 -9252zm-29843 16968l0 0 0 0zm-9763 55523l-37437 -12493 0 -54139 37483 11109 -46 55523zm86806 -151618l-34931 -10794 -34478 10794 34526 9256 34883 -9256zm-29846 16969l37477 -11106 -128 54102 -37349 12529 0 -55525zm-9765 55525l-37432 -12492 0 -54139 37480 11106 -48 55525zm-54786 -72494l-34931 -10794 -34478 10794 34529 9256 34880 -9256zm-29846 16969l37483 -11106 -133 54102 -37350 12529 0 -55525zm-9717 0l-37480 -11106 0 54139 37437 12492 43 -55525z"/>
   </g>
   <g>
    <path id="path44" class="fil0" d="M245189 360764l-2435 8c-896,0 -2032,604 -2313,1582l-7390 26031 -7308 -25974c-218,-814 -986,-1639 -2029,-1639l-2883 0c-1040,0 -1797,836 -2007,1656l-6798 25704 -7024 -25784c-278,-944 -1445,-1576 -2361,-1576l-3507 -6c-748,0 -1442,321 -1817,840 -252,351 -323,748 -206,1094l10853 38418c239,808 939,1621 1962,1621l3484 0c944,0 1769,-686 2007,-1658l6678 -25591 7268 25619c219,785 922,1630 1950,1630l3430 0c953,0 1755,-660 1993,-1633l10446 -38389c122,-372 51,-783 -199,-1128 -368,-511 -1054,-825 -1794,-825l0 0zm0 0l0 0 0 0z"/>
   </g>
   <path id="path46" class="fil0" d="M275324 377074l-18411 0c423,-5164 3779,-10522 9462,-10729 6049,199 8816,5431 8949,10729zm-8963 -16585c-12435,0 -18099,10995 -18099,21211 0,12748 7041,20985 17938,20985 7798,0 13745,-3940 16313,-10825 136,-394 94,-822 -122,-1205 -261,-465 -757,-816 -1344,-944l-3452 -660c-927,-145 -1987,402 -2339,1199 -1678,3827 -4734,5995 -8569,6108 -3693,-113 -7081,-2304 -8634,-5581 -1262,-2676 -1449,-5315 -1471,-7997l24996 -8c524,0 1065,-233 1451,-621 320,-320 493,-720 490,-1120 -62,-9932 -4600,-20542 -17158,-20542z"/>
   <g>
    <path id="path48" class="fil0" d="M314270 381760c0,2353 -428,14097 -8771,14397 -2798,-105 -5621,-1749 -7203,-4181 -1162,-1837 -1839,-4380 -2015,-7523l0 -6908c136,-5295 3864,-11104 9190,-11327 8373,328 8799,13005 8799,15542l0 0zm-7461 -21628l-663 0c-4128,0 -7373,1714 -9865,5229l-3 -16194c0,-910 -938,-1738 -1976,-1738l-3594 0c-941,0 -1990,743 -1993,1738l0 50559c3,918 941,1752 1979,1752l1054 -6c998,0 1707,-802 1948,-1550l1122 -3569c2614,3710 6548,5890 10758,5890l646 0c11089,0 16056,-10789 16056,-21478 0,-5324 -1313,-10412 -3600,-13961 -2642,-4113 -7192,-6670 -11872,-6670l3 -2zm0 0l0 0 0 0z"/>
   </g>
   <g>
    <path id="path50" class="fil0" d="M361637 380623c-2339,-1678 -5148,-2239 -7963,-2803l-5397 -1001c-3875,-635 -6117,-1675 -6117,-5091 0,-3614 3744,-4995 6919,-5080 3878,97 6792,1826 8209,4868 335,717 1080,1201 1857,1201 130,0 267,-17 394,-42l3368 -746c550,-122 1063,-499 1338,-989 221,-388 269,-813 136,-1193 -2061,-6004 -7294,-9176 -15211,-9176 -7152,14 -14797,3197 -14797,12081 0,6072 3815,9927 11347,11461l6044 1151c3316,635 6709,1766 6709,5326 0,5272 -6137,5811 -7991,5848 -4161,-88 -8872,-1945 -10017,-5876 -230,-865 -1318,-1474 -2271,-1276l-3523 726c-530,113 -1015,456 -1299,921 -238,388 -303,825 -195,1219 1820,6522 8115,10457 16843,10522l193 3c7795,0 16126,-3339 16126,-12702 0,-3813 -1715,-7220 -4702,-9352l0 0zm0 0l0 0 0 0z"/>
   </g>
   <g>
    <path id="path52" class="fil0" d="M397271 377114l-18417 0c420,-5173 3776,-10534 9460,-10729 6046,193 8818,5425 8957,10729zm-8966 -16588c-12441,0 -18105,10995 -18105,21208 0,12748 7042,20985 17941,20985 7801,0 13745,-3940 16316,-10825 136,-394 94,-822 -122,-1205 -263,-465 -760,-816 -1346,-944l-3456 -660c-808,-131 -1936,286 -2336,1202 -1678,3824 -4733,5992 -8566,6111 -3696,-119 -7084,-2310 -8631,-5587 -1265,-2667 -1452,-5309 -1472,-7997l24994 -8c521,0 1060,-230 1442,-612 324,-324 496,-726 494,-1129 -60,-9929 -4595,-20539 -17153,-20539l0 0zm0 0l0 0 0 0z"/>
   </g>
   <g>
    <path id="path54" class="fil0" d="M429059 360993c-488,-54 -955,-79 -1412,-79 -4195,0 -7602,2279 -9966,6636l8 -3816c-3,-924 -924,-1734 -1973,-1734l-3121 0c-1023,0 -1927,813 -1936,1749l-3 37065c0,930 902,1747 1934,1747l3642 0c947,0 2016,-746 2024,-1747l3 -18686c0,-3081 286,-5402 1757,-8149 2104,-3912 5040,-5831 8978,-5862 986,-6 1854,-868 1854,-1846l0 -3466c0,-907 -786,-1704 -1789,-1812l0 0zm0 0l0 0 0 0z"/>
   </g>
   <g>
    <path id="path56" class="fil0" d="M467298 360265l-2874 0c-901,0 -2058,649 -2338,1596l-9324 29304 -9521 -29273c-281,-972 -1437,-1627 -2344,-1627l-4108 -3c-754,0 -1482,337 -1857,856 -249,349 -317,743 -192,1108l13031 38657c249,765 912,1658 1964,1658l4969 0c913,0 1661,-621 2004,-1661l12640 -38639c125,-369 59,-763 -190,-1112 -377,-524 -1106,-864 -1860,-864l0 0zm0 0l0 0 0 0z"/>
   </g>
   <path id="path58" class="fil0" d="M476749 345405c-2650,0 -4805,2161 -4805,4819 0,2656 2155,4816 4805,4816 2651,0 4808,-2160 4808,-4816 0,-2658 -2157,-4819 -4808,-4819z"/>
   <path id="path60" class="fil0" d="M478728 360029l-3946 -5c-1072,0 -2049,870 -2049,1820l-20 39356c0,476 246,950 671,1301 389,318 885,502 1387,502l3971 6 3 0c1088,-9 2044,-854 2044,-1806l0 -39359c0,-967 -964,-1815 -2061,-1815z"/>
   <g>
    <path id="path62" class="fil0" d="M515590 386718l-3294 11c-921,0 -1693,553 -2033,1511 -1204,5193 -3928,7880 -8061,7999 -8048,-238 -8674,-11454 -8674,-14887 0,-6846 2372,-14233 8988,-14429 3997,125 6903,2988 7773,7654 164,952 896,1675 1896,1800l3524 34c1054,-113 1879,-910 1871,-1899 -1248,-8433 -7090,-13887 -14902,-13887l-269 8 -307 -8c-11361,0 -16446,10601 -16446,21109 0,9633 4286,20883 16381,20883l581 0c7614,0 13363,-5340 15010,-13994 37,-414 -105,-825 -397,-1160 -380,-436 -981,-714 -1644,-745l3 0zm0 0l0 0 0 0z"/>
   </g>
   <g>
    <path id="path64" class="fil0" d="M548117 377114l-18419 0c422,-5173 3778,-10534 9465,-10729 6046,193 8815,5425 8954,10729l0 0zm-8966 -16588c-12438,0 -18102,10995 -18102,21208 0,12748 7041,20985 17941,20985 7798,0 13739,-3940 16313,-10822 133,-397 88,-828 -125,-1208 -266,-470 -748,-813 -1343,-944l-3453 -660c-811,-131 -1936,286 -2333,1202 -1683,3824 -4742,5992 -8575,6111 -3693,-119 -7081,-2310 -8628,-5587 -1264,-2673 -1452,-5312 -1471,-7997l24993 -5c527,0 1068,-230 1454,-621 317,-323 490,-726 485,-1123 -60,-9929 -4595,-20539 -17156,-20539l0 0zm0 0l0 0 0 0z"/>
   </g>
   <g>
    <path id="path66" class="fil0" d="M587618 380623c-2341,-1681 -5153,-2242 -7965,-2803l-5397 -1001c-3870,-635 -6109,-1675 -6109,-5091 0,-4660 5783,-5051 6911,-5080 3881,97 6795,1826 8209,4870 337,718 1086,1199 1862,1199 134,0 267,-17 397,-42l3368 -746c550,-122 1060,-499 1335,-989 218,-388 266,-813 136,-1193 -2058,-6004 -7294,-9176 -15214,-9176 -7151,14 -14794,3197 -14794,12081 0,6072 3816,9927 11347,11461l6044 1151c3317,635 6710,1766 6710,5326 0,5272 -6137,5811 -7991,5848 -3858,-82 -8796,-1675 -10015,-5871 -224,-870 -1310,-1479 -2282,-1281l-3518 726c-530,113 -1017,462 -1301,927 -232,388 -300,822 -190,1216 1811,6519 8107,10454 16838,10519l193 3c7798,0 16126,-3339 16126,-12702 0,-3816 -1712,-7223 -4700,-9352l0 0zm0 0l0 0 0 0z"/>
   </g>
   <path id="path68" class="fil1" d="M427273 284256l0 -8937c6,-1355 1035,-2265 2268,-2262l40039 -3c1279,0 2311,932 2311,2256l0 7662c-15,1284 -1097,2962 -3016,5624l-20739 29611c7693,-181 15840,969 22833,4901 1579,887 1999,2203 2129,3487l0 9536c0,1312 -1440,2834 -2948,2040 -12325,-6457 -28681,-7160 -42310,77 -1392,743 -2849,-754 -2849,-2069l0 -9063c0,-1445 29,-3929 1488,-6140l24030 -34469 -20920 -6c-1278,0 -2305,-910 -2316,-2245z"/>
   <g>
    <path id="path70" class="fil1" d="M281226 340054l-12186 0c-1157,-77 -2084,-950 -2174,-2064l8 -62518c0,-1250 1052,-2251 2350,-2251l11344 -6c1188,66 2138,961 2220,2098l0 8169 224 0c2954,-7897 8527,-11573 16030,-11573 7617,0 12393,3676 15806,11573 2956,-7897 9663,-11573 16832,-11573 5117,0 10681,2100 14094,6834 3866,5264 3070,12892 3070,19604l-9 39453c0,1247 -1051,2254 -2347,2254l-12166 0c-1225,-77 -2188,-1055 -2188,-2248l0 -33146c0,-2630 224,-9210 -343,-11707 -913,-4215 -3643,-5391 -7161,-5391 -2962,0 -6032,1972 -7282,5122 -1250,3163 -1137,8424 -1137,11976l0 33140c0,1247 -1051,2251 -2347,2251l-12169 0c-1219,-74 -2185,-1052 -2185,-2245l-15 -33146c0,-6976 1140,-17232 -7500,-17232 -8756,0 -8413,9995 -8413,17232l-9 33140c6,1247 -1049,2251 -2347,2251l0 3zm0 0l0 0 0 0z"/>
   </g>
   <path id="path72" class="fil1" d="M506471 284665c-8986,0 -9553,12234 -9553,19865 0,7631 -114,23941 9442,23941 9439,0 9893,-13155 9893,-21180 0,-5261 -224,-11574 -1817,-16574 -1369,-4343 -4096,-6052 -7965,-6052zm-111 -12756c18079,0 27859,15522 27859,35249 0,19080 -10806,34208 -27859,34208 -17739,0 -27408,-15525 -27408,-34863 0,-19472 9776,-34594 27408,-34594z"/>
   <g>
    <path id="path74" class="fil1" d="M557664 340054l-12135 0c-1224,-77 -2188,-1055 -2188,-2248l-17 -62547c102,-1139 1114,-2038 2336,-2038l11301 -6c1066,60 1942,783 2163,1752l0 9567 233 0c3407,-8552 8183,-12625 16594,-12625 5459,0 10808,1967 14216,7361 3183,4998 3183,13417 3183,19469l0 39342c-136,1108 -1125,1973 -2327,1973l-12218 0c-1128,-74 -2032,-907 -2168,-1973l0 -33948c0,-6840 796,-16841 -7620,-16841 -2956,0 -5680,1979 -7047,5001 -1706,3815 -1933,7628 -1933,11840l0 33667c-23,1247 -1074,2254 -2370,2254l-3 0zm0 0l0 0 0 0z"/>
   </g>
   <path id="path76" class="fil1" d="M407638 339895c-808,720 -1965,768 -2878,283 -4045,-3362 -4770,-4921 -6981,-8118 -6687,6809 -11421,8853 -20081,8853 -10259,0 -18233,-6330 -18233,-18987 0,-9884 5355,-16608 12989,-19908 6607,-2900 15840,-3430 22904,-4223l0 -1579c0,-2900 227,-6330 -1486,-8833 -1476,-2242 -4325,-3164 -6834,-3164 -4649,0 -8776,2384 -9794,7317 -204,1097 -1009,2185 -2114,2239l-11804 -1281c-998,-224 -2103,-1021 -1817,-2543 2713,-14326 15647,-18655 27241,-18655 5922,0 13675,1582 18346,6064 5922,5541 5352,12923 5352,20965l0 18978c0,5709 2373,8215 4603,11290 771,1111 947,2424 -45,3240 -2486,2084 -6908,5919 -9337,8087l-31 -25 0 0zm-12280 -29704c0,4748 113,8708 -2279,12923 -1939,3430 -5018,5539 -8436,5539 -4669,0 -7401,-3561 -7401,-8836 0,-10372 9306,-12260 18116,-12260l0 2634z"/>
   <path id="path78" class="fil1" d="M247959 339895c-808,720 -1971,768 -2883,283 -4045,-3362 -4768,-4921 -6982,-8118 -6684,6809 -11421,8853 -20084,8853 -10255,0 -18232,-6330 -18232,-18987 0,-9884 5357,-16608 12991,-19908 6613,-2900 15843,-3430 22907,-4223l0 -1579c0,-2900 230,-6330 -1483,-8833 -1479,-2242 -4331,-3164 -6834,-3164 -4649,0 -8782,2384 -9794,7317 -209,1097 -1012,2185 -2114,2239l-11809 -1281c-998,-224 -2104,-1021 -1817,-2543 2712,-14326 15647,-18655 27238,-18655 5930,0 13677,1582 18348,6064 5928,5541 5355,12923 5355,20965l0 18978c0,5709 2373,8215 4598,11290 777,1111 952,2424 -37,3240 -2492,2084 -6914,5919 -9343,8087l-28 -25 3 0zm-12283 -29704c0,4748 111,8708 -2279,12923 -1936,3430 -5017,5539 -8430,5539 -4677,0 -7410,-3561 -7410,-8836 0,-10372 9306,-12260 18119,-12260l0 2634z"/>
  </g>
 </g>
</svg>
