<?xml version="1.0" encoding="UTF-8"?>
<!DOCTYPE svg PUBLIC "-//W3C//DTD SVG 1.1//EN" "http://www.w3.org/Graphics/SVG/1.1/DTD/svg11.dtd">
<!-- Creator: CorelDRAW X8 -->
<svg xmlns="http://www.w3.org/2000/svg" xml:space="preserve" width="60px" height="60px" version="1.1" style="shape-rendering:geometricPrecision; text-rendering:geometricPrecision; image-rendering:optimizeQuality; fill-rule:evenodd; clip-rule:evenodd"
viewBox="0 0 600000 600000"
 xmlns:xlink="http://www.w3.org/1999/xlink">
 <defs>
  <style type="text/css">
   <![CDATA[
    .fil0 {fill:#fff}
   ]]>
  </style>
 </defs>
 <g id="Layer_x0020_1">
  <metadata id="CorelCorpID_0Corel-Layer"/>
  <path class="fil0" d="M416947 289203c-2906,-1245 -9548,-363 -11291,-2461 -1619,-1947 -1559,-9986 1015,-11347 3651,-1927 8538,910 10641,-3209 1695,-3316 -122,-5533 2608,-10457 3124,-499 7214,-748 9797,377 7200,6407 -8555,14766 22260,11957 4473,-7858 -3523,-14587 13453,-12371 689,1579 1466,2934 1647,5403 876,12048 6245,4774 10880,8995 2066,1885 2208,7710 683,10216 -1409,2316 -6877,1930 -10321,2659l-490 1491c-1389,5386 -669,12472 144,17773 9791,986 12053,420 11514,9686 -138,2401 -1105,5111 -1340,4569 -43,-96 -204,247 -321,358 -3390,2256 -8200,-1673 -10014,2318 -85,190 -363,1154 -409,1378 -413,2055 -68,5142 -918,6866 -2237,4527 -11239,2043 -12149,388 -848,-1542 -553,-3770 -885,-5593 -142,-779 -363,-1630 -657,-2353l-1160 -2109 -18833 12c-340,2730 -1732,9113 -2466,11174 -2240,748 -8944,1621 -10934,-289 -2477,-2378 -263,-7073 -3055,-9527 -4595,-4046 -13595,3594 -11285,-14338 4867,-2957 7514,-1131 12121,-2849 1236,-5083 1788,-14020 -235,-18717zm-4292 73888c1652,2058 8385,5916 10525,7132 -323,3713 -1111,3926 -2041,6936 -1494,1457 -3572,5003 -4785,6608 -1729,2290 -3453,4467 -5230,6724 -1678,2131 -3898,4532 -5590,6375 -1953,2126 -3546,3708 -5720,5632 -29121,25810 -57289,39444 -101903,39416 -33922,-20 -65393,-11696 -87903,-30679 -123248,-123515 -14405,-283891 122914,-252622 23533,5360 51324,20152 67243,37332 1446,1560 2818,2572 4284,4094 1627,1689 2678,3002 4189,4790 2316,2744 6962,6951 7832,10029 2070,981 7288,8243 6897,11571 -2188,2430 -4774,2988 -6177,5196 -2421,465 -22240,13017 -27113,15764 -9187,5176 -17516,10409 -27513,14751 -2240,-575 -3717,-3906 -6693,-7534 -5893,-7197 -14596,-14120 -23168,-18774 -15630,-8481 -27856,-9011 -47185,-7047 -505,286 -6622,1800 -8031,2282 -18195,6213 -31961,17881 -41063,34994 -10961,20616 -10298,44668 -51,65582l1497 2653c652,803 332,468 1060,1069 644,4907 13913,17155 17796,20203 6341,4972 16790,10051 26530,12379 17733,4237 38781,1207 53986,-8808 1675,-1102 4340,-3299 6128,-3801l2413 -2670c873,-808 1411,-1106 2338,-1862 2407,-1962 2645,-2866 4635,-3966 1511,-3464 5799,-6282 8220,-10738 102,-91 261,-383 304,-283 62,139 328,-304 606,-564 726,-681 -252,93 882,-822l49887 28658zm38798 -54896c2018,-5862 3058,-7532 2126,-14797 -763,-5930 -5562,-5284 -10911,-5272 -5621,14 -10349,-647 -11018,5524 -519,4811 -295,10384 1114,14409 6372,1482 12013,703 18689,136zm-365288 -113466l0 198715c1361,4125 -349,10148 488,14780 365,2010 3829,9644 5159,10616 1168,15239 149377,91418 188552,114673 9511,5644 10523,4102 14244,5746l9584 0c2044,-958 4851,-1035 7634,-2183 17739,-7319 194321,-104587 196357,-118806 9419,-7772 4246,-192019 4155,-224161 -11,-3977 -1601,-11603 -4541,-13142 -6038,-17169 -170431,-104967 -189006,-115421 -6826,-3785 -8722,-2557 -14874,-4805l-9022 0c-2602,969 -5378,799 -8541,2180 -57521,25112 -128795,73896 -183620,105866 -3890,2375 -8476,7103 -10662,10944 -5791,10168 -3835,9236 -5907,14998z"/>
 </g>
</svg>
