<?xml version="1.0" encoding="UTF-8"?>
<!DOCTYPE svg PUBLIC "-//W3C//DTD SVG 1.1//EN" "http://www.w3.org/Graphics/SVG/1.1/DTD/svg11.dtd">
<!-- Creator: CorelDRAW X8 -->
<svg xmlns="http://www.w3.org/2000/svg" xml:space="preserve" width="60px" height="60px" version="1.1" style="shape-rendering:geometricPrecision; text-rendering:geometricPrecision; image-rendering:optimizeQuality; fill-rule:evenodd; clip-rule:evenodd"
viewBox="0 0 600000 600000"
 xmlns:xlink="http://www.w3.org/1999/xlink">
 <defs>
  <style type="text/css">
   <![CDATA[
    .fil0 {fill:#fff;fill-rule:nonzero}
    .fil1 {fill:#fff;fill-rule:nonzero}
   ]]>
  </style>
 </defs>
 <g id="Layer_x0020_1">
  <metadata id="CorelCorpID_0Corel-Layer"/>
  <g id="_2348613519248">
   <polygon class="fil0" points="276107,235889 324486,207817 372267,235889 324486,263362 276107,236487 "/>
   <polygon class="fil1" points="130972,152867 324486,42971 468427,124796 420646,207817 324486,152867 179349,235291 "/>
   <path class="fil0" d="M276107 345785l0 -54949 47783 -27474 48377 -27473 0 54947 -47781 27476 0 54947 -48379 28071 0 -55545zm0 -109896l0 0 -48379 -27474 -48379 26876 0 -54950 145137 -82424 0 109900 -48379 28072zm143943 -55548l0 0 0 -27474 48377 -28071 598 54949 -48379 28072 -596 -27476z"/>
   <path class="fil1" d="M227728 372065l0 -163650 47783 -26878 596 54352 48379 26878 0 55545 -48379 -25682 0 108700 -48379 -29265zm-72865 -151107l0 0 -23891 -14337 0 -53754 48377 27474 0 54950 -24486 -14335 0 2zm169623 -68088l0 0 0 -54953 95562 54950 598 54950 -96160 -54950 0 3z"/>
  </g>
  <g id="_2348613516560">
   <polygon class="fil1" points="284370,426247 284370,507585 270063,507585 270063,426247 242269,426247 242269,412213 312164,412213 312164,426247 "/>
   <g>
    <path class="fil1" d="M359505 455815c1227,4360 1253,10097 1162,10826l-46176 13688c363,3453 258,2053 1346,4505 1092,2454 2455,4473 4088,6063 1635,1590 3452,2772 5451,3543 1998,771 4124,1165 6267,1157 2999,0 5746,-499 8243,-1497 2498,-1000 4927,-2409 7288,-4223l8314 8991c-3180,2999 -6723,5315 -10630,6948 -3903,1635 -8583,2455 -14034,2455 -4175,0 -8150,-820 -11920,-2455 -3770,-1633 -7061,-4042 -9878,-7220 -2815,-3181 -5040,-7084 -6676,-11719 -1636,-4631 -2452,-9898 -2452,-15803 0,-6086 771,-11446 2316,-16078 1545,-4632 3679,-8515 6403,-11648 2724,-3135 6018,-5519 9879,-7154 3861,-1636 8107,-2452 12739,-2452 5085,0 9513,952 13283,2860 3770,1908 6905,4499 9403,7767 2497,3271 4359,7087 5584,11446l0 0zm-13416 3232l0 0c-182,-2452 -1877,-5454 -3274,-7319 -1282,-1715 -3118,-3099 -5108,-3884 -2090,-825 -4927,-1179 -7427,-1068 -4686,207 -9896,1825 -12529,5442 -2631,3617 -3357,9700 -3260,16260l31598 -9431zm65259 47724l0 0 0 -40467c0,-7266 -1293,-12354 -3883,-15259 -2588,-2906 -6200,-4360 -10832,-4360 -4722,0 -8356,1590 -10899,4768 -2543,3180 -3815,7676 -3815,13490l0 41828 -14035 0 0 -71530 14035 0 0 6812c1817,-2633 4337,-4680 7563,-6131 3223,-1454 6698,-2180 10423,-2180 8356,0 14692,2679 19006,8039 4314,5357 6471,13351 6471,23978l0 41012 -14034 0 0 0zm71671 -18805l0 0c0,3997 -751,7333 -2247,10015 -1500,2679 -3476,4836 -5928,6471 -2452,1636 -5292,2815 -8515,3544 -3226,725 -6608,1088 -10151,1088 -4904,0 -9788,-862 -14647,-2588 -4858,-1726 -9104,-3906 -12738,-6539l6403 -10628c3362,2362 6834,4133 10423,5313 3589,1182 7061,1771 10423,1771 8719,0 13079,-2633 13079,-7903 0,-2724 -1474,-4904 -4428,-6539 -2950,-1636 -7015,-3450 -12194,-5451 -3813,-1452 -7061,-2929 -9740,-4428 -2682,-1497 -4862,-3110 -6540,-4836 -1681,-1726 -2885,-3657 -3611,-5788 -726,-2138 -1091,-4612 -1091,-7427 0,-3178 592,-5995 1771,-8447 1157,-2424 2889,-4527 5043,-6132 2180,-1635 4768,-2860 7764,-3679 2999,-817 6268,-1228 9811,-1228 4541,0 8923,729 13147,2183 4224,1451 7926,3359 11106,5720l-6131 10764c-2908,-2087 -5859,-3632 -8856,-4632 -2999,-998 -6224,-1497 -9674,-1497 -3453,0 -5950,612 -7495,1837 -1545,1227 -2316,2795 -2316,4703 0,907 181,1746 544,2520 366,771 1046,1567 2044,2384 1001,816 2342,1658 4020,2520 1681,864 3883,1839 6607,2931 3997,1542 7495,3019 10491,4427 2999,1406 5519,2997 7563,4768 2044,1772 3566,3838 4564,6200 1001,2361 1499,5221 1499,8583l0 0 0 0zm65266 -16486l0 0c0,5904 -820,11194 -2452,15874 -1636,4677 -3907,8628 -6815,11851 -2905,3226 -6313,5678 -10216,7359 -3906,1681 -8175,2520 -12807,2520 -4544,0 -8722,-884 -12535,-2656 -3815,-1772 -7132,-4292 -9947,-7563 -2817,-3268 -5020,-7174 -6607,-11715 -1590,-4544 -2384,-9630 -2384,-15262 0,-5811 816,-11036 2452,-15667 1633,-4632 3883,-8561 6743,-11787 2861,-3223 6223,-5675 10083,-7356 3861,-1681 8062,-2523 12603,-2523 4541,0 8765,888 12671,2659 3864,1741 7319,4269 10148,7424 2863,3181 5088,7064 6679,11651 1590,4586 2384,9652 2384,15191zm-14171 408l0 0c0,-7356 -1613,-13193 -4836,-17507 -3226,-4314 -7699,-6472 -13422,-6472 -5357,0 -9558,2158 -12603,6472 -3041,4314 -4564,10015 -4564,17099 0,7903 1636,13921 4907,18054 3269,4132 7583,6199 12943,6199 2634,0 5040,-635 7220,-1908 2180,-1273 4042,-2973 5587,-5111 1545,-2134 2724,-4654 3541,-7560 819,-2908 1227,-5995 1227,-9266l0 0zm59403 -20982l0 0c-1514,-805 -3112,-1446 -4768,-1905 -1635,-457 -3634,-683 -5995,-683 -4450,0 -7900,1545 -10355,4631 -2452,3090 -3677,7677 -3677,13763l0 40873 -14034 0 0 -71530 14034 0 0 6814c1633,-2364 3884,-4337 6744,-5927 2860,-1590 6063,-2384 9604,-2384 2908,0 5292,250 7155,749 1862,498 3517,1250 4972,2247l-3680 13352 0 0z"/>
    <path class="fil0" d="M17110 424481l0 24934 27386 0 0 14031 -27389 0 0 42373 -14304 0 0 -95372 61447 0 0 14034 -47140 0zm49465 81338l0 0 0 -91965 14034 -7359 0 99324 -14034 0zm85700 -36105l0 0c0,5904 -819,11194 -2455,15874 -1633,4677 -3903,8628 -6812,11851 -2905,3226 -6312,5678 -10219,7359 -3906,1681 -8175,2520 -12807,2520 -4541,0 -8719,-884 -12534,-2656 -3813,-1772 -7130,-4292 -9947,-7563 -2815,-3268 -5018,-7174 -6608,-11715 -1587,-4544 -2384,-9630 -2384,-15262 0,-5811 819,-11036 2452,-15667 1636,-4632 3884,-8561 6747,-11787 2860,-3223 6222,-5675 10083,-7356 3858,-1681 8058,-2523 12602,-2523 4542,0 8765,888 12669,2659 3866,1741 7321,4269 10150,7424 2861,3181 5089,7064 6679,11651 1587,4586 2384,9652 2384,15191l0 0 0 0zm-14171 408l0 0c0,-7356 -1613,-13193 -4836,-17507 -3225,-4314 -7698,-6472 -13422,-6472 -5357,0 -9558,2158 -12603,6472 -3041,4314 -4563,10015 -4563,17099 0,7903 1635,13921 4904,18054 3271,4132 7585,6199 12946,6199 2633,0 5040,-635 7219,-1908 2180,-1273 4043,-2973 5587,-5111 1543,-2134 2725,-4654 3541,-7560 819,-2908 1227,-5995 1227,-9266l0 0zm83385 35697l0 0 -11991 0 -9675 -36105c-740,-2784 -1443,-5576 -2109,-8380 -683,-2860 -1204,-5153 -1567,-6879 -499,2321 -1021,4637 -1568,6947 -660,2827 -1366,5644 -2112,8448l-9538 35971 -11988 0 -19621 -71532 13898 0 8447 34744c754,2843 1437,5704 2044,8584 502,2361 1001,4722 1499,7083l1769 -7083c717,-2863 1443,-5726 2183,-8584l9536 -34744 11307 0 9675 34880c731,2832 1434,5670 2112,8516 680,2860 1250,5198 1703,7015 454,-1817 975,-4201 1565,-7151 570,-2861 1230,-5698 1976,-8516l8450 -34744 13895 0 -19890 71530z"/>
   </g>
  </g>
 </g>
</svg>
