<?xml version="1.0" encoding="UTF-8"?>
<!DOCTYPE svg PUBLIC "-//W3C//DTD SVG 1.1//EN" "http://www.w3.org/Graphics/SVG/1.1/DTD/svg11.dtd">
<!-- Creator: CorelDRAW X8 -->
<svg xmlns="http://www.w3.org/2000/svg" xml:space="preserve" width="60px" height="60px" version="1.1" style="shape-rendering:geometricPrecision; text-rendering:geometricPrecision; image-rendering:optimizeQuality; fill-rule:evenodd; clip-rule:evenodd"
viewBox="0 0 600000 600000"
 xmlns:xlink="http://www.w3.org/1999/xlink">
 <defs>
  <style type="text/css">
   <![CDATA[
    .fil0 {fill:#fff}
   ]]>
  </style>
 </defs>
 <g id="Layer_x0020_1">
  <metadata id="CorelCorpID_0Corel-Layer"/>
  <path class="fil0" d="M356605 439573c3490,5040 5624,4649 8334,3489 2716,-1165 142288,-48271 146555,-49822 4266,-1550 2911,-2908 1550,-5040 -1355,-2134 -47880,-65327 -50207,-69012 -2325,-3682 -3490,-2909 -7172,-1749l-147960 38500c0,0 45411,78591 48900,83634l0 0zm-174524 -74521c4536,-1037 89521,-21378 91338,-21770 1812,-385 2980,-1423 1038,-4790 -1947,-3368 -113290,-195560 -113290,-195560 -1029,-1761 -737,-2350 -3526,-2211 -2492,139 -65492,5763 -80082,6979 -428,3033 -692,6137 -799,9297 14802,30317 99794,205589 100264,207018 519,1556 519,2075 5057,1037l0 0zm188210 101671c-12796,3878 -18533,5803 -26867,-5828 -6245,-8714 -40000,-69514 -56554,-99491 -31323,8207 -88654,23174 -105186,27142 -16137,3878 -23026,-5797 -25676,-11761 -1859,-4178 -49161,-106172 -79328,-171613l0 234401c0,23068 8190,42792 24568,59176 16384,16376 36108,24571 59176,24571l279154 0c23069,0 42790,-8195 59174,-24571 16378,-16384 24571,-36108 24571,-59176l0 -27536c-34269,12535 -144412,52075 -153032,54686l0 0zm-210816 -340090c10933,-497 11934,1992 16736,9119l120677 201753 151747 -36348c-8410,-11920 -46576,-66031 -50264,-71193 -4147,-5805 102,-8504 6840,-9643 6741,-1137 64800,-10885 69775,-11611 4981,-726 8921,-2489 17008,7257 4136,4986 18164,22456 31329,38829l0 -94374c0,-23072 -8193,-42790 -24571,-59174 -16384,-16381 -36105,-24571 -59174,-24571l-279154 0c-23068,0 -42792,8190 -59176,24571 -9391,9394 -16078,19897 -20089,31493 27354,-2245 70665,-5757 78316,-6108l0 0zm317688 95760c-2279,519 -52770,9646 -55882,10057 -3110,417 -2072,2177 -828,3943l44433 60959c0,0 54326,-13476 57646,-14198 266,-63 530,-122 791,-187l0 -8074c-9879,-12523 -36783,-46615 -39107,-49802 -2798,-3835 -4768,-3214 -7053,-2698l0 0zm46160 152825l0 -73974c-16651,4442 -37704,10046 -46013,12255 12535,16778 32140,43030 46013,61719l0 0z"/>
 </g>
</svg>
