<?xml version="1.0" encoding="UTF-8"?>
<!DOCTYPE svg PUBLIC "-//W3C//DTD SVG 1.1//EN" "http://www.w3.org/Graphics/SVG/1.1/DTD/svg11.dtd">
<!-- Creator: CorelDRAW 2020 (64-Bit) -->
<svg xmlns="http://www.w3.org/2000/svg" xml:space="preserve" width="640px" height="406px" version="1.1" style="shape-rendering:geometricPrecision; text-rendering:geometricPrecision; image-rendering:optimizeQuality; fill-rule:evenodd; clip-rule:evenodd"
viewBox="0 0 64000000 40600000"
 xmlns:xlink="http://www.w3.org/1999/xlink"
 xmlns:xodm="http://www.corel.com/coreldraw/odm/2003"
 xmlns:svg="http://www.w3.org/2000/svg">
 <defs>
  <style type="text/css">
   <![CDATA[
    .fil0 {fill:#526a99}
   ]]>
  </style>
 </defs>
 <g id="Layer_x0020_1">
  <metadata id="CorelCorpID_0Corel-Layer"/>
  <path class="fil0" d="M32000300 40336600l-79100 -45700 0 -3073700c145500,-15900 278000,-57000 397300,-123300 74900,-41700 141700,-91600 200300,-149900l0 -799800c0,-5200 -3300,-7800 -9800,-7800l-150800 17600 -4000 0c-14300,0 -21500,-7200 -21500,-21500l-5900 -168500c0,-13100 5900,-22200 17700,-27400l160600 -64700c10400,-3900 20200,-5900 29400,-5900l237000 0c6600,0 12100,2300 16700,6900 4500,4600 6800,10100 6800,16600l0 488200c10500,-67200 15700,-137400 15700,-210600l0 -1665100c0,-209500 -42700,-394400 -128300,-555000 -44600,-83800 -98900,-157500 -163000,-221400l0 1950800c0,14700 -5100,27300 -15500,37600 -10300,10300 -22800,15400 -37500,15400l-394000 0 0 479600c0,115100 -27000,207700 -81100,277500 -20900,26900 -44300,48700 -70100,65200l0 -491400c0,-21800 -7700,-40500 -23100,-55800 -15300,-15400 -33900,-23100 -55900,-23100l-106000 0c12300,15800 23300,32900 33000,51200 32000,60000 48000,129300 48000,207600l0 623000c0,78400 -16000,147600 -48000,207700 -32000,60000 -77400,106400 -136100,139100 -58800,32700 -126100,49000 -201800,49000 -115000,0 -207700,-36300 -278200,-108800 -70500,-72500 -105800,-168100 -105800,-287000l0 -623000c0,-118800 35300,-214500 105800,-287000 70500,-72500 163200,-108700 278200,-108700 20600,0 40600,1200 59900,3600l0 -1388000c0,-115200 26200,-207700 78600,-277500 52300,-69800 122200,-104700 209400,-104700 43100,0 82100,8500 117100,25500l0 -654000c-38200,-3400 -77200,-5100 -117100,-5100 -233500,0 -432700,56000 -597600,167900 5300,-8900 10400,-18100 15400,-27300 61500,-115700 92400,-248900 92400,-399800l0 -1199200c0,-150800 -30900,-284100 -92400,-399700 -61600,-115700 -149000,-204900 -262100,-267800 -81800,-45400 -172100,-74400 -270800,-87000l0 -1605800c0,-10000 -3500,-18500 -10600,-25600 -7000,-7000 -15500,-10500 -25600,-10500l-364300 0c-14100,0 -29200,3000 -45200,9000l-247000 99400c-18000,8000 -27100,22100 -27100,42200l9100 259000c0,22000 11000,33100 33100,33100l6000 0 231900 -27100c10000,0 15100,4000 15100,12000l0 1021600 42800 0c14800,0 27300,5100 37600,15500 10300,10300 15500,22800 15500,37500l0 2987600c0,14700 -5200,27300 -15500,37600 -10300,10300 -22800,15400 -37600,15400l-466900 0 0 1326000c-243200,28500 -452500,112600 -627700,252200 23500,-3700 48300,-5500 74100,-5500 75700,0 142900,16300 201700,49000 58800,32700 104200,79000 136200,139100 32000,60100 48000,129300 48000,207600l0 623100c0,-144800 32900,-261000 98700,-348800 20800,-27700 43800,-51100 69000,-70000l0 179900c0,14800 5200,27300 15500,37600 10300,10300 22800,15500 37500,15500l480900 0 0 -533300c0,-5200 -3300,-7800 -9800,-7800l-150900 17600 -3900 0c-14400,0 -21600,-7200 -21600,-21500l-5800 -168500c0,-13100 5800,-22200 17600,-27400l160700 -64700c10400,-3900 20200,-5800 29300,-5800l73600 0 0 -219600 0 -300c-100,-8500 -5500,-12700 -16200,-12700l-250100 29300 -6400 0c-23900,0 -35800,-11900 -35800,-35700l-9700 -279300c0,-21700 9700,-36900 29200,-45500l266300 -107200c7800,-2900 15400,-5200 22700,-6800l0 -1107800c34800,3900 70800,5900 107900,5900 145800,0 275300,-31400 388500,-94300l5300 -3000c-124800,176400 -187300,393900 -187300,652400l0 543900 104600 0c10800,0 20000,3800 27600,11400 7600,7500 11400,16700 11400,27500l0 2195400c0,10800 -3800,20100 -11400,27600 -7600,7600 -16800,11400 -27600,11400l-380000 0c-10800,0 -20000,-3800 -27600,-11400 -7600,-7500 -11400,-16800 -11400,-27600l0 -182300 -65700 0c-6500,0 -12100,-2200 -16600,-6800 -4600,-4600 -6900,-10100 -6900,-16700l0 -494900c-99500,47100 -188700,111100 -267400,192000 -188500,193800 -282800,449500 -282800,767100l0 1527100 -149500 -86300c-1300,-18800 -1900,-38100 -1900,-58000l0 -2194000c-500,76900 -16500,144800 -48000,204000 -32000,60100 -77400,106400 -136200,139100 -58800,32700 -126000,49000 -201700,49000 -115000,0 -207700,-36200 -278300,-108700 -70500,-72500 -105800,-168200 -105800,-287000l0 -623100c0,-82900 17300,-154600 51600,-215000l-196800 0c-20600,0 -42700,4500 -66300,13300l-362400 145800c-26500,11800 -39800,32400 -39800,61900l5400 154300c-69000,-68500 -147000,-127800 -234000,-178000l0 -936400c140000,67600 300600,101300 482100,101300 202400,0 382200,-43600 539300,-130900 157100,-87200 278400,-211200 363900,-371700 5000,-9400 9700,-18800 14400,-28300l-109400 0c-6500,0 -12100,-2200 -16600,-6800 -4600,-4600 -6900,-10100 -6900,-16700l0 -1069600c0,-5300 -3300,-7900 -9800,-7900l-150900 17700 -3900 0c-14300,0 -21500,-7200 -21500,-21600l-5900 -168500c0,-13000 5900,-22200 17600,-27400l160700 -64700c10400,-3900 20200,-5800 29400,-5800l231100 0 0 -820600c0,-209400 -42800,-394400 -128300,-554900 -85500,-160600 -206800,-284500 -363900,-371800 -91800,-51000 -191300,-87100 -298500,-108300l0 -941100c0,-150900 -30900,-284100 -92400,-399800 -61600,-115600 -149000,-204900 -262200,-267700 -113100,-62900 -242600,-94300 -388400,-94300 -221200,0 -399700,69800 -535500,209300 -135700,139500 -203600,323700 -203600,552500l0 1199200c0,228800 67900,412900 203600,552500 8200,8400 16500,16500 25000,24400 -9100,63700 -13600,130400 -13600,200000l0 1665100c0,237400 52600,440100 157900,608300l-201500 0c-20600,0 -42700,4400 -66300,13300l-362400 145800c-26500,11800 -39800,32400 -39800,61900l13300 380100c0,32300 16200,48600 48600,48600l8800 0 340300 -39800c14800,0 22100,5900 22100,17700l0 484400c-23500,-1000 -47300,-1500 -71300,-1500 -154400,0 -296900,19500 -427500,58500l0 839900c0,10800 -3800,20000 -11400,27600 -7500,7600 -16800,11400 -27600,11400l-380000 0c-10800,0 -20000,-3800 -27500,-11400 -7600,-7600 -11400,-16800 -11400,-27600l0 -1773200 -6000 -11000c-2600,-1300 -6000,-2000 -10300,-2000l-250000 29200 -6500 0c-23900,0 -35700,-11900 -35700,-35700l-9800 -279300c0,-15400 5000,-27500 14900,-36400 -19600,-12800 -39700,-25000 -60500,-36600 -49000,-27200 -100100,-50100 -153500,-68900l0 -3553900 0 -2037600 0 -10603600 -12239400 -7066500 0 -11068500 18301600 10566500 18301300 -10566500 0 11068500 -12239400 7066500 0 8984200 -187900 0c-14100,0 -29100,3000 -45200,9100l-246900 99300c-18100,8100 -27100,22100 -27100,42200l9000 259000c0,22100 11000,33100 33100,33100l6000 0 232000 -27100c10000,0 15000,4000 15000,12000l0 1644300c0,10100 3500,18600 10500,25600 7000,7000 15600,10600 25600,10600l175900 0 0 85600c-55600,-7500 -113200,-11300 -172700,-11300 -307200,0 -555000,96900 -743500,290600 -188500,193800 -282800,449500 -282800,767100l0 1665100c0,317600 94300,573300 282800,767100 188500,193700 436300,290600 743500,290600 59500,0 117100,-3800 172700,-11300l0 3502300 -453000 261600c14900,-89700 22400,-183600 22400,-281800l0 -2092400c0,-263200 -53700,-495700 -161200,-697500 -33300,-62600 -71000,-120700 -113000,-174500l0 1925600c0,10800 -3800,20000 -11400,27600 -7500,7600 -16700,11400 -27500,11400l-380000 0c-10900,0 -20100,-3800 -27600,-11400 -7600,-7600 -11400,-16800 -11400,-27600l0 -1773200c0,-8700 -5400,-13000 -16300,-13000l-250000 29200 -6500 0c-23800,0 -35700,-11900 -35700,-35700l-9800 -279300c0,-21600 9800,-36800 29300,-45400l266300 -107200c17300,-6500 33500,-9800 48700,-9800l57600 0c-30100,-15600 -60800,-30000 -92100,-43100l0 -546100c0,-10100 -3500,-18600 -10500,-25600 -7000,-7100 -15600,-10600 -25600,-10600l-364400 0c-14000,0 -29100,3100 -45100,9100l-247000 99300c-18100,8100 -27100,22100 -27100,42200l9000 259000c0,22000 11100,33100 33200,33100l6000 0 231900 -27100c10000,0 15000,4000 15000,12100l0 54400c-42800,-3300 -86400,-5000 -131000,-5000 -128900,0 -249500,13600 -361800,40700l0 -584300 212500 0c14800,0 27300,-5100 37600,-15400 10300,-10300 15500,-22900 15500,-37600l0 -2987500c0,-14800 -5200,-27300 -15500,-37600 -10300,-10300 -22800,-15500 -37600,-15500l-534700 0c-20600,0 -42800,4400 -66300,13300l-105700 42500 0 -944700c0,-150900 -30800,-284100 -92400,-399700 -61600,-115700 -149000,-205000 -262100,-267800 -113100,-62900 -242600,-94300 -388400,-94300 -221300,0 -399800,69800 -535500,209300 -135700,139600 -203700,323700 -203700,552500l0 446200c9000,-2000 17700,-3000 26000,-3000l393000 0c10800,0 20000,3800 27600,11400 7600,7500 11400,16800 11400,27600l0 1433400c84400,30200 178200,45400 281200,45400 145800,0 275300,-31400 388400,-94300 113100,-62800 200500,-152100 262100,-267800 13800,-25800 26000,-52600 36700,-80200l170200 -19900c14700,0 22100,5900 22100,17700l0 749000 94400 0c14800,0 27300,5100 37600,15400 10300,10400 15500,22900 15500,37600l0 2987600c0,14700 -5200,27200 -15500,37600 -10300,10300 -22800,15400 -37600,15400l-182400 0 0 864200c0,6600 -2300,12100 -6900,16700 -4500,4600 -10100,6800 -16600,6800l-229200 0c-6500,0 -12100,-2200 -16600,-6800 -4600,-4600 -6900,-10100 -6900,-16700l0 -864200 -58400 0c-14800,0 -27300,-5100 -37600,-15400 -10300,-10400 -15500,-22900 -15500,-37600l0 -6500c-63000,164500 -94600,349700 -94600,555600l0 68700c-31400,13000 -66000,19500 -103600,19500 -87200,0 -157100,-34900 -209400,-104800 -52400,-69800 -78600,-162300 -78600,-277500l0 -1748800c0,-115200 26200,-207700 78600,-277500 52300,-69800 122200,-104800 209400,-104800 80000,0 146100,29400 198200,88100l0 -625100c0,-11700 -7300,-17600 -22100,-17600l-340300 39700 -8800 0c-32400,0 -48600,-16200 -48600,-48600l-1800 -51100c-206300,36800 -379700,127400 -520100,271700 -188500,193700 -282700,449400 -282700,767000l0 1081200c66100,-54300 148900,-81400 248400,-81400 75700,0 143000,16300 201700,49000 58800,32700 104200,79000 136200,139100 32000,60100 48000,129300 48000,207600l0 623100c0,78300 -16000,147500 -48000,207600 -32000,60100 -77400,106400 -136200,139100 -54300,30200 -115900,46500 -184700,48700 5700,6100 11400,12200 17300,18200 188500,193800 436300,290600 743500,290600 35200,0 69800,-1300 103600,-4000l0 6300c-62300,39200 -120100,86000 -173100,140500 -188400,193700 -282700,449400 -282700,767000l0 -756800c0,-21900 -7700,-40600 -23100,-55900 -15300,-15400 -34000,-23100 -55900,-23100l-796100 0c-30800,0 -63600,6600 -98700,19800l-539600 217100c-39500,17600 -59200,48300 -59200,92100l19700 565900c0,48300 24200,72400 72400,72400l13200 0 126200 -14800 1600 44300c0,32400 16100,48600 48600,48600l8800 0 340300 -39800c5800,0 10500,900 14000,2800l0 -313700c0,-8700 -5400,-13000 -16200,-13000l-250100 29200 -6500 0c-23800,0 -35700,-11900 -35700,-35700l-9800 -279300c0,-21700 9800,-36800 29300,-45500l266300 -107100c17300,-6600 33600,-9800 48700,-9800l393000 0c10800,0 20000,3800 27600,11400 7600,7500 11300,16800 11300,27600l0 2195400c0,10800 -3700,20000 -11300,27600 -7600,7500 -16800,11300 -27600,11300l-380000 0c-10800,0 -20000,-3800 -27600,-11300 -7400,-7400 -11100,-16200 -11400,-26600l0 1388600 -503300 290500c-37800,-65000 -56700,-146500 -56700,-244400l0 -1748800c0,-115200 26200,-207700 78600,-277500 52300,-69900 122200,-104800 209400,-104800 87300,0 158000,34900 212100,104800 26400,34100 46400,73600 59900,118500l0 -827500c-85600,-19600 -176300,-29300 -272000,-29300 -232300,0 -430600,55400 -595100,166200l0 389100c0,6500 -2300,12100 -6800,16700 -4600,4500 -10100,6800 -16700,6800l-229200 0c-6500,0 -12100,-2300 -16600,-6800 -4600,-4600 -6900,-10200 -6900,-16700l0 -101200c-103300,167200 -154900,368400 -154900,603500l0 1665100c0,253300 59900,467100 179600,641600l-543200 313700zm-3024300 -1128800c-115000,0 -207700,-36300 -278200,-108800 -70500,-72400 -105800,-168100 -105800,-286900l0 -623100c0,-77600 15000,-145300 45100,-203200l0 -747700c0,-263100 -53700,-495600 -161200,-697400l-11200 -20500 210300 -24600c14800,0 22200,5900 22200,17700l0 1389400 600 -700c70500,-72500 163200,-108700 278200,-108700 75700,0 142900,16300 201700,49000 58800,32600 104200,79000 136200,139100 32000,60100 48000,129300 48000,207600l0 623100c0,78300 -16000,147500 -48000,207600 -32000,60100 -77400,106400 -136200,139100 -58800,32700 -126000,49000 -201700,49000zm0 -237100c32600,0 59100,-13000 79300,-39200 20300,-26100 30400,-60700 30400,-103800l0 -654300c0,-43100 -10100,-77800 -30400,-103900 -20200,-26100 -46700,-39200 -79300,-39200 -32700,0 -58800,13100 -78400,39200 -19600,26100 -29400,60800 -29400,103900l0 654300c0,43100 9800,77700 29400,103800 19600,26200 45700,39200 78400,39200zm1073800 -1150000c10400,-3900 20200,-5900 29400,-5900l153000 0 110800 -44500c17300,-6500 33600,-9800 48700,-9800l324900 0c4400,-11500 13000,-20100 26000,-25800l266300 -107200c17300,-6500 33600,-9800 48700,-9800l393000 0c10800,0 20000,3800 27500,11400 7600,7600 11400,16800 11400,27600l0 2195400c0,10800 -3800,20000 -11400,27600 -7500,7600 -16700,11400 -27500,11400l-380000 0c-10900,0 -20100,-3800 -27600,-11400 -7600,-7600 -11400,-16800 -11400,-27600l0 -1773200c0,-8700 -5400,-13000 -16200,-13000l-191800 22400 0 1906600c0,10800 -3700,20000 -11300,27600 -7600,7600 -16800,11300 -27600,11300l-380000 0c-10800,0 -20000,-3700 -27600,-11300 -7600,-7600 -11400,-16800 -11400,-27600l0 -1773200c0,-8700 -5400,-13000 -16200,-13000l-9800 1100 0 952900c0,6500 -2300,12100 -6800,16700 -4600,4600 -10200,6800 -16700,6800l-229200 0c-6500,0 -12100,-2200 -16600,-6800 -4600,-4600 -6900,-10200 -6900,-16700l0 -936800c-4200,-5800 -6300,-13700 -6300,-23700l-4100 -116900 -150300 17500 -3900 0c-14300,0 -21500,-7200 -21500,-21500l-5900 -168500c0,-13100 5900,-22200 17700,-27400l160600 -64700zm-788000 -938300c32600,0 59100,-13000 79300,-39100 20200,-26200 30400,-60800 30400,-103900l0 -654300c0,-43100 -10200,-77800 -30400,-103900 -20200,-26100 -46700,-39100 -79300,-39100 -32700,0 -58800,13000 -78400,39100 -19600,26100 -29400,60800 -29400,103900l0 654300c0,43100 9800,77700 29400,103900 19600,26100 45700,39100 78400,39100zm316600 -2803100l133800 -15600 0 -577100 -133800 53900 0 538800zm-1363700 659300c-115000,0 -207700,-36200 -278200,-108800 -70600,-72400 -105800,-168100 -105800,-286900l0 -623100c0,-118800 35200,-214500 105800,-286900 53300,-54800 119300,-88900 197900,-102300l0 -1765300c0,-11800 -7300,-17700 -22100,-17700l-40800 4800c-97400,41900 -185300,99400 -263600,172400l0 -141700 -35900 4200 -8800 0c-32400,0 -48600,-16200 -48600,-48600l-13300 -380000c0,-29500 13300,-50100 39800,-61900l66800 -26900 0 -551100c0,-83000 18900,-149600 56600,-199900 37700,-50200 88000,-75400 150800,-75400 62900,0 113800,25200 152800,75400 38900,50300 58400,116900 58400,199900l0 418900 478100 0c14700,0 27200,5100 37500,15500 10300,10300 15500,22800 15500,37500l0 1257600c35400,63500 53100,141800 53100,235000l0 1748800c0,115200 -27100,207700 -81200,277500 -54100,69900 -124800,104800 -212000,104800l-8200 -100c-25900,30200 -56900,55300 -92900,75300 -58800,32700 -126000,49000 -201700,49000zm0 -237100c27600,0 50900,-9400 69600,-28100 -36500,-64600 -54800,-145000 -54800,-241300l0 -200800 -42000 0c-14800,0 -27300,-5100 -37600,-15400 -10300,-10300 -15500,-22900 -15500,-37600l0 -375500c-18300,25800 -27500,59700 -27500,101400l0 654300c0,43100 9800,77800 29400,103900 19600,26100 45700,39100 78400,39100zm3216600 2520400c32600,0 59100,-13000 79300,-39200 20300,-26100 30400,-60700 30400,-103800l0 -654300c0,-43200 -10100,-77800 -30400,-103900 -20200,-26100 -46700,-39100 -79300,-39100 -32700,0 -58800,13000 -78400,39100 -19600,26100 -29400,60700 -29400,103900l0 654300c0,43100 9800,77700 29400,103800 19600,26200 45700,39200 78400,39200zm2733000 -2121900c32600,0 59100,-13000 79300,-39100 20300,-26100 30400,-60800 30400,-103900l0 -654300c0,-43100 -10100,-77700 -30400,-103800 -20200,-26200 -46700,-39200 -79300,-39200 -32700,0 -58800,13000 -78400,39200 -19600,26100 -29400,60700 -29400,103800l0 654300c0,43100 9800,77800 29400,103900 19600,26100 45700,39100 78400,39100zm-7208000 2086100c17300,-6500 33500,-9800 48700,-9800l2700 0c16300,-52500 39700,-99100 70000,-139500 65800,-87700 153500,-131600 263200,-131600 24800,0 48600,2300 71300,6800l0 266900c4900,1900 9400,4800 13300,8800 7600,7600 11400,16800 11400,27600l0 2195400c0,10800 -3800,20000 -11400,27600 -7500,7600 -16800,11400 -27600,11400l-379900 0c-10900,0 -20100,-3800 -27600,-11400 -7600,-7600 -11400,-16800 -11400,-27600l0 -1773200 0 -400c-200,-8400 -5600,-12600 -16300,-12600l-250000 29200 -6500 0c-23800,0 -35700,-11900 -35700,-35700l-9800 -279300c0,-21700 9800,-36800 29300,-45500l266300 -107100zm9214000 -468000c17300,-6500 33600,-9700 48700,-9700l393000 0c10800,0 20000,3800 27600,11300 3500,3500 6200,7300 8100,11500l0 -175800c0,-209400 -42800,-394400 -128300,-555000 -85500,-160500 -206900,-284400 -363900,-371700 -57600,-32000 -118300,-58200 -182000,-78400l0 -679000c0,-144800 32900,-261100 98700,-348800 65800,-87700 153600,-131600 263200,-131600 47600,0 91300,8300 131000,24800l0 773900c0,10100 3600,18600 10600,25600 7000,7000 15500,10600 25600,10600l201300 0 0 1843100c0,104300 -17700,193700 -52900,268400l0 1605400c0,10800 -3800,20100 -11400,27600 -7600,7600 -16800,11400 -27600,11400l-380000 0c-10800,0 -20000,-3800 -27600,-11400 -7600,-7500 -11400,-16800 -11400,-27600l0 -1773200c0,-8600 -5400,-12900 -16200,-12900l-250100 29200 -6400 0c-23900,0 -35800,-12000 -35800,-35700l-9700 -279300c0,-21700 9700,-36900 29200,-45500l266300 -107200zm-1072700 -889600c17300,-6400 33600,-9700 48700,-9700l393000 0c10800,0 20000,3800 27600,11400 7600,7500 11400,16800 11400,27600l0 2195400c0,10800 -3800,20000 -11400,27600 -7600,7600 -16800,11300 -27600,11300l-13200 0c111300,86200 236100,150400 374300,192600l-477100 275500c-5700,-6500 -11300,-13200 -16600,-20300 -52300,-69800 -78500,-162300 -78500,-277500l0 -170300 -168900 0c-10800,0 -20000,-3700 -27600,-11300 -7500,-7600 -11300,-16800 -11300,-27600l0 -1773200c0,-8700 -5500,-13000 -16300,-13000l-250100 29200 -6400 0c-23900,0 -35700,-11900 -35700,-35700l-9800 -279300c0,-21700 9800,-36800 29200,-45500l266300 -107200zm-7110400 1019900c17400,-6500 33600,-9800 48800,-9800l392900 0c10800,0 20100,3800 27600,11400 7600,7600 11400,16800 11400,27600l0 2195400c0,10800 -3800,20000 -11400,27600 -7500,7600 -16800,11300 -27600,11300l-380000 0c-10800,0 -20000,-3700 -27600,-11300 -7600,-7600 -11400,-16800 -11400,-27600l0 -1773200c0,-8700 -5300,-13000 -16200,-13000l-250000 29200 -6500 0c-23900,0 -35700,-11900 -35700,-35700l-9800 -279300c0,-21600 9800,-36800 29200,-45500l266300 -107100zm4466700 -4012600l12500 0c14700,0 27200,5100 37500,15500 10400,10300 15500,22800 15500,37500l0 158800 338000 -39500c14700,0 22000,5900 22000,17700l0 2413000c0,14800 5200,27300 15500,37600 10300,10300 22900,15400 37600,15400l517100 0c14700,0 27200,-5100 37500,-15400 10400,-10300 15500,-22800 15500,-37600l0 -2987500c0,-14700 -5100,-27300 -15500,-37600 -10300,-10300 -22800,-15500 -37500,-15500l-534800 0c-20600,0 -42700,4400 -66300,13300l-362400 145800c-26500,11800 -39700,32400 -39700,61900l7500 216600zm-27269900 -7296400c-145800,0 -263500,-46000 -353000,-138000 -89500,-92000 -134200,-213400 -134200,-364200l0 -790500c0,-150800 44700,-272200 134200,-364200 89500,-92000 207200,-138000 353000,-138000 96100,0 181400,20800 256100,62200 74500,41400 132100,100300 172700,176500 40600,76200 60900,164100 60900,263500l0 790500c0,99500 -20300,187300 -60900,263500 -40600,76200 -98200,135100 -172700,176500 -74700,41400 -160000,62200 -256100,62200zm0 -300800c41400,0 75000,-16600 100700,-49700 25700,-33200 38500,-77100 38500,-131800l0 -830300c0,-54700 -12800,-98600 -38500,-131800 -25700,-33100 -59300,-49700 -100700,-49700 -41400,0 -74600,16600 -99400,49700 -24900,33200 -37300,77100 -37300,131800l0 830300c0,54700 12400,98600 37300,131800 24800,33100 58000,49700 99400,49700zm1362600 -1459300c13200,-4900 25600,-7400 37200,-7400l183700 0c26200,-39800 39400,-90500 39400,-152400l0 -1036400c0,-68300 -16000,-123100 -48100,-164400 -32100,-41400 -74000,-62100 -125700,-62100 -51700,0 -93100,20700 -124100,62100 -31000,41300 -46500,96100 -46500,164400l0 1036400c0,68300 15500,123100 46500,164500 2000,2700 4100,5300 6300,7900l31300 -12600zm367900 384100l0 1318800c0,8300 -2900,15300 -8700,21100 -5800,5800 -12900,8700 -21100,8700l-290900 0c-8300,0 -15300,-2900 -21100,-8700 -5800,-5800 -8700,-12800 -8700,-21100l0 -1263600c-150500,-12900 -274300,-69400 -371500,-169300 -111800,-114800 -167600,-266300 -167600,-454600l0 -936000c-62400,55500 -131500,104300 -207100,146300 -197400,109700 -423400,164500 -677700,164500 -386100,0 -697500,-121700 -934400,-365200 -236900,-243400 -355300,-564700 -355300,-963900l0 -2092400c0,-147400 16200,-284100 48500,-410300 -32900,-25000 -64000,-52700 -93600,-83100 -67900,-69700 -122000,-148500 -162400,-236400l-592100 0 0 1403700c0,21900 -7700,40500 -23000,55900 -15400,15300 -34000,23000 -56000,23000l-769800 0 0 1199200c0,150900 -30800,284100 -92400,399800 -61600,115600 -149000,204900 -262100,267700 -113100,62900 -242600,94300 -388400,94300 -221300,0 -399800,-69800 -535500,-209300 -135800,-139600 -203700,-323700 -203700,-552500l0 -1199200c0,-228800 67900,-412900 203700,-552500 76900,-79100 167600,-135700 272100,-170000 -45100,-51600 -79700,-110100 -103900,-175300 -28300,4100 -57800,6200 -88300,6200 -145800,0 -263500,-46000 -353000,-137900 -89500,-92000 -134300,-213400 -134300,-364200l0 -790600c0,-150700 44800,-272100 134300,-364100 89500,-92000 207200,-138000 353000,-138000 92900,0 175700,19300 248500,58000 106800,-92700 242000,-139100 405600,-139100 120000,0 226600,25800 319700,77500 56300,31400 104900,70600 145700,117900l0 -1021800c-59300,-20600 -113200,-50300 -161600,-88900l-297600 34800c-12200,67600 -33500,130000 -63900,187200 -50700,95200 -122600,168600 -215700,220300 -93100,51700 -199600,77600 -319600,77600 -182100,0 -329000,-57400 -440700,-172200 -111700,-114800 -167500,-266300 -167500,-454600l0 -986800c0,-86700 11800,-165600 35500,-236700l-48100 -29800 0 -4037800 18975000 10955700 0 4846400 -50400 -31200 0 2350800c0,21900 -7700,40500 -23000,55900 -15400,15300 -34000,23000 -56000,23000l-769800 0c-21900,0 -40600,-7700 -55900,-23000 -15400,-15400 -23100,-34000 -23100,-55900l0 -2926000 -196700 -122000 0 582800c0,8300 -2900,15300 -8700,21100 -5800,5800 -12900,8700 -21100,8700l-290900 0c-8300,0 -15300,-2900 -21100,-8700 -5800,-5800 -8700,-12800 -8700,-21100l0 -140400 -313000 0 0 1096500c0,21900 -7700,40500 -23000,55900 -15400,15300 -34000,23000 -56000,23000 11800,53100 17700,109500 17700,169300l0 986800c0,124100 -25400,233800 -76100,328900 -50600,95200 -122500,168600 -215600,220300 -93100,51800 -199700,77600 -319700,77600 -182000,0 -328900,-57400 -440600,-172200 -111700,-114800 -167600,-266300 -167600,-454600l0 -986800c0,-188200 55900,-339800 167600,-454600 53700,-55200 115600,-97100 185500,-125800l0 -583000c-43500,10800 -90000,16300 -139200,16300 -145800,0 -263500,-46000 -353000,-138000 -30600,-31400 -55900,-66300 -76100,-104600l0 1472800c0,263200 -53700,495700 -161200,697400 -107400,201800 -259900,357500 -457300,467200 -197400,109600 -423300,164500 -677700,164500 -386000,0 -697500,-121700 -934300,-365200 -236900,-243400 -355300,-564700 -355300,-963900l0 -2092400c0,-399200 118400,-720500 355300,-964000 14900,-15300 30100,-30100 45600,-44400l0 -696600c0,-258100 69900,-470100 209800,-636200l-374700 -232400 0 1468300c0,21900 -7700,40600 -23100,55900 -15300,15400 -33900,23100 -55900,23100l-769800 0c-21900,0 -40600,-7700 -55900,-23100 -15400,-15300 -23100,-34000 -23100,-55900l0 -1147000c-24800,40300 -52500,77700 -82900,112200l0 476500c0,263200 -53800,495700 -161300,697500 -51400,96700 -113300,182800 -185400,258300l63600 -25600c23600,-8800 45700,-13300 66300,-13300l534800 0c14700,0 27200,5200 37500,15500 10300,10300 15500,22900 15500,37600l0 2987500c0,14800 -5200,27300 -15500,37600 -10300,10300 -22800,15500 -37500,15500l-517100 0c-14700,0 -27300,-5200 -37600,-15500 -10300,-10300 -15400,-22800 -15400,-37600l0 -2413000c0,-11800 -7400,-17700 -22200,-17700l-55600 6500 0 1221300c0,8300 -2900,15300 -8700,21100 -5800,5800 -12800,8700 -21100,8700l-290900 0c-8300,0 -15300,-2900 -21100,-8700 -5800,-5800 -8700,-12800 -8700,-21100l0 -1357300c0,-6700 -4100,-10000 -12400,-10000l-191400 22400 -5000 0c-18300,0 -27400,-9100 -27400,-27300l-3400 -98400c-117600,30100 -243000,45100 -376300,45100 -111100,0 -216100,-10100 -314900,-30300 27100,65700 40600,139200 40600,220300l0 790500c0,99400 -20300,187300 -60900,263500 -40600,76200 -98200,135100 -172800,176500 -74600,41400 -159900,62100 -256000,62100 -145900,0 -263600,-45900 -353100,-137900 -89500,-92000 -134200,-213400 -134200,-364200l0 -308600c-13400,40600 -30000,79500 -49700,116500 -61600,115700 -149000,204900 -262100,267800 -113100,62900 -242600,94300 -388400,94300 -221300,0 -399800,-69800 -535500,-209300 -135800,-139600 -203700,-323700 -203700,-552500l0 -1199200c0,-170600 37800,-316400 113300,-437300 -101600,-26300 -188500,-76500 -260700,-150600 -111700,-114900 -167500,-266400 -167500,-454600l0 -986900c0,-137000 29600,-254700 88800,-352800l-765900 0c-21900,0 -40600,-7700 -55900,-23000 -15400,-15400 -23000,-34000 -23000,-56000l0 -190100c-233700,-16500 -425200,-101600 -574700,-255300 -167600,-172300 -251400,-399600 -251400,-682000l0 -726100c-48500,10400 -99600,15600 -153500,15600 -92400,0 -175700,-14800 -250000,-44400l0 1057400c0,135100 -14200,262000 -42500,380900 71500,-26800 151300,-40200 239300,-40200 120000,0 226500,25800 319600,77600 93100,51700 165000,125100 215700,220300 50700,95100 76000,204800 76000,328900l0 532800c5000,-18900 17400,-32800 37400,-41600l362400 -145900c23500,-8800 45600,-13300 66200,-13300l534800 0c14700,0 27300,5200 37600,15500 10300,10300 15400,22800 15400,37600l0 2987500c0,14800 -5100,27300 -15400,37600 -10300,10300 -22900,15500 -37600,15500l-517100 0c-14700,0 -27200,-5200 -37600,-15500 -10200,-10300 -15400,-22800 -15400,-37600l0 -2413000c0,-11800 -7400,-17700 -22100,-17700l-340300 39800 -8900 0c-32400,0 -48600,-16200 -48600,-48600l-10800 -310200 0 363900c0,124100 -25300,233800 -76000,328900 -50700,95200 -122600,168700 -215700,220400 -12500,6900 -25200,13400 -38200,19400zm3304400 1536500c22000,-51300 52500,-97000 91500,-137100 66800,-68700 149300,-111700 247600,-129100 -22200,-19600 -43800,-40300 -64800,-61900 -123800,-127200 -215200,-275700 -274300,-445400l0 100 0 773400zm444600 1219000c41400,0 74900,-16600 100700,-49800 25600,-33100 38500,-77000 38500,-131700l0 -830300c0,-54700 -12900,-98600 -38500,-131800 -25800,-33100 -59300,-49700 -100700,-49700 -41500,0 -74600,16600 -99500,49700 -24800,33200 -37300,77100 -37300,131800l0 830300c0,54700 12500,98600 37300,131700 24900,33200 58000,49800 99500,49800zm42062900 1388000c-145900,0 -263500,-46000 -353000,-137900 -89500,-92000 -134300,-213400 -134300,-364200l0 -790600c0,-150800 44800,-272200 134300,-364200 89500,-91900 207100,-137900 353000,-137900 96100,0 181500,20700 256000,62100 74600,41500 132200,100300 172800,176500 40600,76300 60900,164100 60900,263500l0 790600c0,99400 -20300,187200 -60900,263400 -40600,76300 -98200,135100 -172800,176600 -74500,41400 -159900,62100 -256000,62100zm0 -300800c41400,0 75000,-16500 100700,-49700 25700,-33100 38500,-77100 38500,-131800l0 -830200c0,-54700 -12800,-98700 -38500,-131800 -25700,-33200 -59300,-49700 -100700,-49700 -41400,0 -74600,16500 -99500,49700 -24800,33100 -37300,77100 -37300,131800l0 830200c0,54700 12500,98700 37300,131800 24900,33200 58100,49700 99500,49700zm1362500 -1459200c13300,-5000 25700,-7500 37300,-7500l300800 0c8300,0 15400,2900 21100,8700 5900,5800 8700,12900 8700,21200l0 1680400c0,8300 -2800,15400 -8700,21200 -5700,5800 -12800,8700 -21100,8700l-290800 0c-8300,0 -15300,-2900 -21200,-8700 -5700,-5800 -8700,-12900 -8700,-21200l0 -1357300c0,-6600 -4100,-9900 -12400,-9900l-191400 22400 -5000 0c-18200,0 -27300,-9200 -27300,-27400l-7500 -213800c0,-16500 7500,-28100 22400,-34800l203800 -82000zm5797200 -1584900c-145800,0 -263500,-46000 -353000,-138000 -89500,-91900 -134200,-213300 -134200,-364100l0 -683500c-35800,27500 -74100,52500 -114700,75100 -157100,87300 -336900,130900 -539300,130900 -187400,0 -352700,-36000 -495900,-108100l0 1566700c0,209500 -42800,394500 -128300,555100 -85500,160500 -206900,284400 -363900,371700 -157100,87300 -336900,130900 -539300,130900 -307200,0 -555100,-96800 -743600,-290600 -188500,-193700 -282700,-449400 -282700,-767100l0 -1648100 -271500 0c-21900,0 -40600,-7600 -55900,-23000 -15400,-15300 -23100,-34000 -23100,-55900l0 -1354200 -15900 9100c-122600,68100 -258900,109500 -409000,124500l0 302400c0,209500 -42800,394500 -128300,555000 -66300,124500 -154100,226900 -263400,307400l32600 -13100c23600,-8900 45700,-13300 66300,-13300l534700 0c14800,0 27300,5200 37600,15500 10300,10300 15500,22800 15500,37500l0 2987600c0,14700 -5200,27300 -15500,37600 -10300,10300 -22800,15400 -37600,15400l-517000 0c-14800,0 -27300,-5100 -37600,-15400 -10300,-10300 -15500,-22900 -15500,-37600l0 -2413000c0,-11800 -7300,-17700 -22100,-17700l-340300 39700 -8800 0c-32400,0 -48600,-16100 -48600,-48500l-13300 -380100c0,-11100 1900,-20900 5600,-29400 -86700,20000 -178600,30100 -275800,30100 -215200,0 -401300,-47600 -558300,-142700l0 2607100c0,13200 -4600,24300 -13800,33500 -9200,9200 -20300,13800 -33500,13800l-460700 0c-13100,0 -24300,-4600 -33500,-13800 -9100,-9200 -13700,-20300 -13700,-33500l0 -2150100c0,-10500 -6600,-15800 -19700,-15800l-303300 35400 -7900 0c-28800,0 -43300,-14400 -43300,-43300l-11800 -338600c0,-26300 11800,-44600 35500,-55200l322900 -129900c21000,-7900 40700,-11800 59100,-11800l386000 0c-16200,-14600 -32100,-29800 -47500,-45700 -126400,-129900 -210400,-287500 -252000,-473100 -19000,49600 -40900,97500 -65600,143900 -107400,201700 -259900,357500 -457200,467100 -158900,88300 -336300,141000 -532100,158200l0 1918700c0,13100 -4500,24300 -13700,33500 -9200,9100 -20400,13800 -33500,13800l-230400 0 0 986800c0,124100 -25300,233700 -76000,328900 -50700,95200 -122600,168600 -215700,220300 -93100,51700 -199700,77600 -319600,77600 -182100,0 -329000,-57400 -440700,-172200 -111700,-114900 -167500,-266400 -167500,-454600l0 -986800c0,-188300 55800,-339800 167500,-454600 111700,-114900 258600,-172300 440700,-172300 119900,0 226500,25900 319600,77600 4800,2700 9500,5400 14100,8100l0 -1471700c-127300,-36000 -243400,-90100 -348400,-162500l0 1305600c0,21900 -7700,40600 -23000,55900 -15400,15400 -34000,23100 -55900,23100l-634000 0 0 1652900c0,8300 -2900,15300 -8700,21100 -5800,5800 -12900,8700 -21100,8700l-283200 0 0 1834100c0,21900 -7700,40500 -23100,55900 -15300,15300 -34000,23000 -55900,23000l-769800 0c-21900,0 -40600,-7700 -56000,-23000 -15300,-15400 -23000,-34000 -23000,-55900l0 -2308900c0,99500 -20300,187300 -60900,263500 -40600,76200 -98200,135100 -172800,176500 -74500,41500 -159900,62200 -256000,62200 -145800,0 -263500,-46000 -353000,-138000l-8700 -9100 0 306200c0,21900 -7600,40600 -23000,55900 -15300,15400 -34000,23000 -55900,23000l-769900 0c-21900,0 -40500,-7600 -55900,-23000 -15300,-15300 -23000,-34000 -23000,-55900l0 -106500 -239300 0c-8300,0 -15300,-2800 -21100,-8600 -5800,-5900 -8700,-12900 -8700,-21200l0 -1357300c0,-6600 -4200,-10000 -12500,-10000l-89100 10500c-65400,16400 -134200,26300 -206500,29600l0 1821100 305500 -122900c21000,-7900 40700,-11800 59000,-11800l476500 0c13200,0 24300,4600 33500,13700 9200,9300 13800,20400 13800,33500l0 2662100c0,13200 -4600,24300 -13800,33500 -9200,9200 -20300,13800 -33500,13800l-460700 0c-13100,0 -24300,-4600 -33500,-13800 -9100,-9100 -13700,-20200 -13800,-33200 -50000,87700 -119000,155900 -207000,204700 -93100,51800 -199600,77600 -319600,77600 -182100,0 -328900,-57400 -440700,-172200 -111700,-114800 -167500,-266300 -167500,-454600l0 -870500c-150700,54200 -315500,81400 -494400,81400 -386000,0 -697500,-121700 -934300,-365200 -236900,-243500 -355400,-564800 -355400,-963900l0 -2092400c0,-144800 15600,-279300 46800,-403500l0 -2701600 18974900 -10955700 0 4891900 -165300 89300 0 3157500c0,22000 -7600,40600 -23000,56000 -15300,15300 -34000,23000 -55900,23000l-769900 0c-21900,0 -40500,-7700 -55900,-23000 -7700,-7700 -13500,-16300 -17300,-25700l0 100c0,209400 -42800,394400 -128300,555000 -66000,123900 -153300,226000 -261900,306200 51400,15200 100100,35600 146000,61100 113200,62900 200600,152100 262100,267800 61600,115600 92400,248900 92400,399700l0 1199300c0,150800 -30800,284000 -92400,399700 -61500,115600 -148900,204900 -262100,267700 -113100,62900 -242600,94300 -388400,94300 -221200,0 -399700,-69700 -535500,-209300 -135700,-139500 -203700,-323700 -203700,-552400l0 -1199300c0,-222100 64100,-402200 192100,-540200 -111900,-12500 -214800,-39700 -308800,-81600l0 2653100c0,13100 -4600,24200 -13700,33400 -9200,9200 -20400,13800 -33500,13800l-460800 0c-13100,0 -24200,-4600 -33400,-13800 -9200,-9200 -13800,-20300 -13800,-33400l0 -2150200c0,-10500 -6600,-15700 -19700,-15700l-303200 35400 -7900 0c-28900,0 -43300,-14400 -43300,-43300l-11800 -338700c0,-26200 11800,-44600 35400,-55100l322900 -130000c21000,-7800 40700,-11800 59100,-11800l417100 0c-65100,-40000 -125000,-88200 -179900,-144700 -188500,-193700 -282800,-449400 -282800,-767000l0 -1579300 -131900 71200 0 591400c0,99400 -20300,187200 -60900,263400 -40600,76300 -98200,135100 -172800,176600 -46100,25600 -96400,43300 -150800,53100 -12100,18800 -24700,37100 -37600,55000l0 2544100c0,22000 -7700,40600 -23100,56000 -15300,15300 -33900,23000 -55900,23000l-1600 0 0 1281100c0,90200 -8000,176000 -23900,257100 41600,-9800 86100,-14600 133600,-14600 96100,0 181500,20700 256100,62100 74500,41400 132200,100300 172800,176500 40500,76300 60800,164100 60800,263500l0 790600c0,99400 -20300,187200 -60800,263400 -40600,76300 -98300,135100 -172800,176500 -74600,41500 -160000,62200 -256100,62200zm0 -300800c41400,0 75000,-16600 100700,-49700 25700,-33200 38500,-77100 38500,-131800l0 -830200c0,-54800 -12800,-98700 -38500,-131800 -25700,-33200 -59300,-49700 -100700,-49700 -41400,0 -74600,16500 -99400,49700 -24900,33100 -37300,77000 -37300,131800l0 830200c0,54700 12400,98600 37300,131800 24800,33100 58000,49700 99400,49700zm1362600 -1459200c13200,-5000 25700,-7500 37300,-7500l300800 0c8300,0 15300,2900 21100,8700 5800,5800 8700,12900 8700,21200l0 1680400c0,8300 -2900,15400 -8700,21200 -5800,5800 -12800,8700 -21100,8700l-290900 0c-8300,0 -15300,-2900 -21100,-8700 -5800,-5800 -8700,-12900 -8700,-21200l0 -1357300c0,-6600 -4200,-9900 -12400,-9900l-191400 22400 -5000 0c-18300,0 -27400,-9200 -27400,-27400l-7400 -213800c0,-16600 7400,-28200 22400,-34800l203800 -82000zm-12623500 1894500l8700 -9100c62200,-63900 138000,-105600 227400,-125100 -6500,-11300 -9800,-25700 -9800,-43400l-9200 -263500c-25400,-63800 -38200,-135900 -38200,-216400l0 -363100 -178900 96500 0 924100zm510000 -128400c38100,10300 74000,24800 107700,43500 74600,41400 132200,100300 172800,176500 40600,76300 60900,164100 60900,263500l0 -493200c0,-17600 -10900,-26400 -32900,-26400l-308500 36100zm-148300 1475400c41400,0 75000,-16600 100700,-49700 25700,-33200 38500,-77100 38500,-131800l0 -830300c0,-54700 -12800,-98600 -38500,-131700 -25700,-33200 -59300,-49800 -100700,-49800 -41400,0 -74600,16600 -99500,49800 -24800,33100 -37200,77000 -37200,131700l0 830300c0,54700 12400,98600 37200,131800 24900,33100 58100,49700 99500,49700zm1417500 -1466700l100900 0c-1800,-6800 -2700,-14000 -2700,-21600l0 -1420200 -35100 4100 -5000 0c-18300,0 -27400,-9100 -27400,-27300l-7400 -213800c0,-16600 7400,-28200 22400,-34800l52500 -21100 0 -83200 -197000 106400 0 758700 19800 0c21900,0 40600,7700 55900,23000 15400,15400 23100,34100 23100,56000l0 873800zm6925300 -5099200c-1500,-18600 -2300,-37600 -2300,-57100l0 -346000 -168500 91000 0 380700 170800 -68600zm348200 -592300l0 555100c0,8000 300,15700 800,23300l61400 0 0 -612000 -62200 33600zm3842000 -1973500l0 1605500c0,8300 -2900,15400 -8700,21200 -5800,5800 -12900,8700 -21100,8700l-290900 0c-8300,0 -15300,-2900 -21100,-8700 -5800,-5800 -8800,-12900 -8800,-21200l0 -1357300c0,-4800 -2200,-7900 -6600,-9200 -8900,39900 -13400,83700 -13400,131300l0 1748900c0,115200 26200,207700 78500,277500 52400,69800 122200,104700 209500,104700 87200,0 157900,-34900 212000,-104700 54200,-69800 81200,-162300 81200,-277500l0 -1748900c0,-115200 -27000,-207700 -81200,-277500 -35800,-46300 -79000,-77200 -129400,-92800zm-9039900 4779600l0 809600c51200,-82600 76700,-186600 76700,-312100l0 -538900 -76700 41400zm-196300 965300l-124300 0c-8300,0 -15300,-2900 -21200,-8700 -5700,-5800 -8700,-12900 -8700,-21200l0 -746200 -303200 163700 0 144600c0,144700 33000,261000 98700,348700 60600,80700 139800,124300 237500,130700l51500 0c24300,-1600 47500,-5400 69700,-11600zm-2853100 987100l0 -306100 -276000 149000 0 268100 276000 -111000zm-3382200 2780500c-145800,0 -263500,-46000 -353000,-138000 -89500,-92000 -134200,-213400 -134200,-364100l0 -495600 -99000 53400 0 1545800c0,144700 32900,261000 98700,348700 65800,87800 153500,131600 263200,131600 109700,0 198500,-43800 266500,-131600 68000,-87700 102000,-204000 102000,-348700l0 -619100c-45000,11700 -93100,17600 -144200,17600zm0 -300800c41400,0 75000,-16600 100700,-49700 25700,-33200 38500,-77100 38500,-131800l0 -830300c0,-7800 -200,-15500 -800,-22900l-275100 148500 0 704700c0,54700 12400,98600 37300,131800 24800,33100 58000,49700 99400,49700zm-30022200 -892700c2000,-146100 46700,-264100 134200,-354000 64600,-66400 144000,-108800 238000,-127300l-390600 -242100 0 663900c6600,19600 12700,39400 18400,59500zm487200 1002100c41400,0 75000,-16600 100700,-49700 25300,-32700 38100,-75700 38500,-129300l0 -2500 0 -830300 0 -2500c-400,-53500 -13200,-96600 -38500,-129300 -25700,-33100 -59300,-49700 -100700,-49700 -41400,0 -74600,16600 -99400,49700 -24900,33200 -37300,77100 -37300,131800l0 830300c0,54700 12400,98600 37300,131800 24800,33100 58000,49700 99400,49700zm-11018700 -5490400c-145800,0 -263500,-45900 -353000,-137900 -89500,-92000 -134200,-213400 -134200,-364200l0 -790500c0,-150800 44700,-272200 134200,-364200 89500,-92000 207200,-138000 353000,-138000l100 0c-15800,-78500 -45200,-145500 -88300,-201100 -51100,-65900 -114000,-107100 -188800,-123500 -27500,27100 -58600,50300 -93600,69700 -22000,12200 -44800,22600 -68700,31200 -34000,26700 -70500,51000 -109500,72600 -41000,22800 -83800,42200 -128200,58300 -26400,68800 -39600,148900 -39600,240500l0 2197600c0,144800 33000,261000 98800,348800 65700,87700 153500,131600 263200,131600 109600,0 198400,-43900 266400,-131600 68000,-87800 102000,-204000 102000,-348800l0 -550600 -13800 100zm0 -300700c4700,0 9300,-300 13800,-700l0 -1191900c-4500,-500 -9100,-700 -13800,-700 -41400,0 -74600,16600 -99400,49700 -24900,33200 -37300,77100 -37300,131800l0 830300c0,54700 12400,98600 37300,131700 24800,33200 58000,49800 99400,49800zm1362600 -1459300l2800 -1000 0 -145600 -261500 -162200 0 24000c0,8300 -2900,15400 -8700,21200 -5800,5800 -12900,8700 -21100,8700l-53100 0 0 897800c0,68200 15500,123100 46500,164500 31000,41300 72400,62000 124100,62000 51800,0 93600,-20700 125700,-62000 11200,-14500 20500,-30600 27800,-48400l0 -284100c0,-47400 2300,-93200 7000,-137500l-176000 20600 -5000 0c-18200,0 -27300,-9100 -27300,-27300l-7400 -213800c0,-16600 7400,-28200 22400,-34800l203800 -82100zm-2476400 -947000l0 -573300c0,-54700 5900,-105500 17700,-152500l-188300 -116700 0 816900c0,55600 6900,105300 20600,149000 47200,-45700 97200,-86900 150000,-123400zm-2889100 -362400c1000,14200 1400,28700 1400,43400l0 790600c0,31900 -2100,62500 -6300,92000l0 172600c0,68300 15600,123100 46600,164500 31000,41400 72400,62000 124100,62000 51700,0 93600,-20600 125700,-62000 32100,-41400 48100,-96200 48100,-164500l0 -1036400c0,-68300 -16000,-123100 -48100,-164500 -32100,-41400 -74000,-62100 -125700,-62100 -51700,0 -93100,20700 -124100,62100 -20900,28000 -34800,62100 -41700,102300zm-488300 1035300c16600,0 31900,-2600 45900,-7900l0 -940400c0,-80000 10100,-153300 30300,-220000 -21500,-16600 -46900,-24900 -76200,-24900 -41400,0 -74600,16600 -99400,49700 -24900,33100 -37300,77100 -37300,131800l0 830300c0,54600 12400,98600 37300,131700 24800,33200 58000,49700 99400,49700zm951800 599300c62500,53200 113900,117600 154300,193400 4700,8700 9100,17600 13400,26500l0 -349300c-40800,47200 -89400,86500 -145700,117800 -7300,4000 -14600,7900 -22000,11600zm-496200 2097800c62800,0 113700,-25100 152700,-75400 39000,-50300 58500,-116900 58500,-199900l0 -1259600c0,-82900 -19500,-149500 -58500,-199800 -39000,-50300 -89900,-75500 -152700,-75500 -62900,0 -113200,25200 -150900,75500 -37700,50300 -56500,116900 -56500,199800l0 1259600c0,83000 18800,149600 56500,199900 37700,50300 88000,75400 150900,75400zm8678800 1468200c-170300,-20200 -311400,-87800 -423400,-202900 -27100,-27800 -51400,-57400 -73100,-88800l0 902000c0,106300 -18600,201900 -55800,287000 101900,12000 194900,41300 278800,88000 113100,62800 200500,152100 262100,267700 6200,11600 12000,23400 17600,35400 -4100,-50100 -6200,-101400 -6200,-154200l0 -1134200zm-89200 -2061000c-4100,23700 -6100,49100 -6100,76200l0 1259600c0,82900 18800,149600 56500,199800 11700,15600 24700,28800 38800,39600l0 -472400c0,-298400 66200,-553300 198600,-764600l0 -159700 -287800 -178500zm-572700 5218500c62800,0 113700,-25200 152700,-75500 39000,-50200 58500,-116900 58500,-199800l0 -1259600c0,-83000 -19500,-149600 -58500,-199800 -39000,-50400 -89900,-75500 -152700,-75500 -62900,0 -113200,25100 -150900,75500 -37700,50200 -56500,116800 -56500,199800l0 1259600c0,82900 18800,149600 56500,199800 37700,50300 88000,75500 150900,75500zm52360200 -3947600c62800,0 113800,-25100 152700,-75400 39000,-50300 58500,-116900 58500,-199900l0 -1259600c0,-82900 -19500,-149500 -58500,-199800 -38900,-50300 -89900,-75500 -152700,-75500 -62900,0 -113100,25200 -150900,75500 -37700,50300 -56500,116900 -56500,199800l0 1259600c0,83000 18800,149600 56500,199900 37800,50300 88000,75400 150900,75400zm-5067700 320800c132100,-57400 281700,-86100 449000,-86100 186200,0 353200,36900 501100,110700l0 -208700 -309100 0c-13100,0 -24300,-4600 -33400,-13800 -9200,-9200 -13800,-20300 -13800,-33400l0 -1333600c-235500,-14400 -433400,-90100 -593800,-227000l0 1791900zm449000 3060800c87200,0 157900,-34900 212000,-104800 54100,-69800 81200,-162300 81200,-277500l0 -1748800c0,-115200 -27100,-207700 -81200,-277500 -54100,-69900 -124800,-104800 -212000,-104800 -87300,0 -157100,34900 -209500,104800 -52300,69800 -78500,162300 -78500,277500l0 1748800c0,115200 26200,207700 78500,277500 52400,69900 122200,104800 209500,104800zm-8585500 1535800c23600,-8800 45700,-13200 66300,-13200l534800 0c14700,0 27200,5100 37600,15400 10300,10300 15400,22900 15400,37600l0 2987600c0,14700 -5100,27200 -15400,37500 -10400,10400 -22900,15500 -37600,15500l-517100 0c-14700,0 -27200,-5100 -37600,-15500 -10300,-10300 -15400,-22800 -15400,-37500l0 -2413100c0,-11800 -7400,-17600 -22100,-17600l-340300 39700 -8900 0c-32400,0 -48600,-16200 -48600,-48600l-13200 -380100c0,-29400 13200,-50100 39700,-61800l362400 -145900zm-45633300 -6988100c23500,-8800 45600,-13300 66200,-13300l534800 0c14700,0 27300,5200 37600,15500 10300,10300 15400,22900 15400,37600l0 2987500c0,14800 -5100,27300 -15400,37600 -10300,10300 -22900,15500 -37600,15500l-517100 0c-14700,0 -27200,-5200 -37500,-15500 -10400,-10300 -15500,-22800 -15500,-37600l0 -2413000c0,-11800 -7400,-17700 -22100,-17700l-340300 39800 -8800 0c-32500,0 -48700,-16200 -48700,-48600l-13200 -380100c0,-29400 13200,-50100 39800,-61800l362400 -145900zm11813200 6374400c-143100,0 -271600,-23700 -385700,-70900l0 1500100c0,144800 32900,261000 98700,348700 65800,87800 153600,131600 263200,131600 109700,0 198500,-43800 266500,-131600 68000,-87700 102000,-203900 102000,-348700l0 -1485000c-105300,37200 -220200,55800 -344700,55800zm0 -563300c77500,0 140400,-31100 188500,-93200 48100,-62000 72100,-144200 72100,-246700l0 -189000c-5700,-8600 -11600,-16900 -17900,-25000 -68000,-87700 -156800,-131600 -266500,-131600 -93300,0 -170800,31800 -232300,95300l0 250300c0,102500 23300,184700 69800,246700 46500,62100 108600,93200 186300,93200zm260600 -1456600l0 -438200 0 -1700 -258700 -160400 -142600 0c-15500,0 -28700,-5400 -39500,-16300 -10900,-10900 -16300,-24000 -16300,-39600l0 -14100c-39800,60200 -59600,137500 -59600,232100l0 429200c74200,-10700 151600,-16000 232300,-16000 99100,0 193900,8300 284400,25000zm-3276500 -573200c-167500,-36500 -309500,-114500 -426000,-234300 -167600,-172200 -251400,-399600 -251400,-682000l0 -1287300c-35300,75500 -53000,166200 -53000,272300l0 2197700c0,144700 33000,260900 98700,348700 65800,87700 153600,131600 263200,131600 109700,0 198500,-43900 266500,-131600 68000,-87800 102000,-204000 102000,-348700l0 -266400zm-21000 -1911100l0 1032100c0,56100 7000,106100 21000,150100l0 -1169200 -21000 -13000zm-3105700 -1925500l0 980300c0,151800 -25200,289100 -75700,412000l0 688400c57200,-57600 123600,-100500 199000,-128400l0 -1875900 -123300 -76400zm-1144400 -709500c-19100,49000 -28700,106400 -28700,172100l0 1554900c0,102400 23300,184700 69800,246700 27700,37000 61000,63000 99900,78000l0 -1964400 -141000 -87300zm-6460300 -2885600c51700,0 93600,-20700 125700,-62100 32000,-41400 48000,-96200 48000,-164500l0 -785400 -344400 -213600 0 999000c0,68300 15500,123100 46600,164500 31000,41400 72400,62100 124100,62100zm7965500 7372800c51700,0 93600,-20700 125600,-62100 32100,-41300 48100,-96200 48100,-164400l0 -1011700 -332300 0c-4100,0 -8200,-200 -12100,-800l0 1012500c0,68200 15500,123100 46500,164400 31100,41400 72400,62100 124200,62100zm7877600 5183700c51800,0 93700,-20700 125700,-62100 32100,-41400 48100,-96200 48100,-164500l0 -1036400c0,-57800 -11400,-106000 -34400,-144500l-276600 0c-22300,38500 -33400,86700 -33400,144500l0 1036400c0,68300 15500,123100 46500,164500 31000,41400 72400,62100 124100,62100zm30131800 -1433000c75000,11300 144000,34400 206800,69300 88000,48900 157000,117100 207000,204700l0 -474500c0,-10500 -6500,-15800 -19700,-15800l-303200 35500 -7900 0c-14000,0 -24600,-3500 -31900,-10300 -12800,66100 -29900,129800 -51100,191100zm-112800 1856700c51700,0 93600,-20600 125700,-62100 32000,-41300 48100,-96100 48100,-164400l0 -1036400c0,-68300 -16100,-123100 -48100,-164500 -32100,-41400 -74000,-62100 -125700,-62100 -51700,0 -93100,20700 -124100,62100 -31100,41400 -46600,96200 -46600,164500l0 1036400c0,68300 15500,123100 46600,164400 31000,41500 72400,62100 124100,62100zm4518300 -2679600c51700,0 93600,-20700 125700,-62100 32100,-41300 48000,-96200 48000,-164400l0 -1036400c0,-68300 -15900,-123200 -48000,-164500 -32100,-41400 -74000,-62100 -125700,-62100 -51700,0 -93100,20700 -124200,62100 -31000,41300 -46500,96200 -46500,164500l0 1036400c0,68200 15500,123100 46500,164400 31100,41400 72500,62100 124200,62100zm7032800 -6833500c83400,-18400 172400,-27600 267100,-27600 63700,0 125100,4300 184300,12900l0 -709000c-38800,2800 -78400,4200 -118600,4200 -117700,0 -228400,-11300 -332200,-33900l0 708200c0,15100 -200,30200 -600,45200zm267100 3119200c87200,0 157900,-34800 212000,-104700 54100,-69800 81200,-162300 81200,-277500l0 -1323000 -29900 0c-21900,0 -40600,-7700 -55900,-23000 -15400,-15400 -23100,-34000 -23100,-56000l0 -655600c-49800,-49000 -111200,-73500 -184300,-73500 -87300,0 -157100,35000 -209500,104800 -52300,69800 -78500,162300 -78500,277500l0 1748800c0,115200 26200,207700 78500,277500 52400,69900 122200,104700 209500,104700zm-1382600 -2753000l0 -172900c0,-10500 -6600,-15700 -19700,-15700l-149400 17400c11700,29000 26500,55400 44300,79100 34100,45600 75700,76300 124800,92100zm1566900 -1901900l0 -84100 -182800 98700c20500,3600 41900,5400 64200,5400 42700,0 82200,-6600 118600,-20000zm-4251700 3630900c-48200,-33700 -93300,-72200 -135600,-115600 -188400,-193700 -282700,-449400 -282700,-767100l0 -311200 -162900 88000 0 1618800c0,115200 26200,207700 78600,277500 52300,69900 122100,104700 209400,104700 87300,0 157900,-34800 212000,-104700 54200,-69800 81200,-162300 81200,-277500l0 -512900zm738300 -491100c30500,-17200 57700,-41300 81700,-72200 54100,-69800 81200,-162300 81200,-277500l0 -1065400 -291200 157200c85500,160500 128300,345500 128300,554900l0 703000zm6698300 -4943300c92300,75600 167800,168500 226400,278600 67500,126700 108400,268600 122600,425700l0 -892700 -349000 188400zm-27524200 21330100c0,279500 72900,511000 218800,694500l-218800 126400 0 -820900zm3472300 -7759300l0 2388100c-47700,41700 -105200,62600 -172700,62600 -87300,0 -157100,-34900 -209500,-104700 -52300,-69800 -78500,-162300 -78500,-277500l0 -1748900c0,-115200 26200,-207700 78500,-277500 52400,-69800 122200,-104700 209500,-104700 67500,0 125000,20800 172700,62600zm-9227600 -2145200c16100,-6100 31200,-9100 45200,-9100l364400 0c10000,0 18600,3500 25600,10500 7000,7100 10500,15600 10500,25700l0 2035700c0,10100 -3500,18600 -10500,25600 -7000,7100 -15600,10500 -25600,10500l-352400 0c-10000,0 -18500,-3400 -25600,-10500 -7000,-7000 -10500,-15500 -10500,-25600l0 -1644200c0,-8100 -5000,-12100 -15000,-12100l-231900 27100 -6000 0c-22200,0 -33200,-11000 -33200,-33100l-9000 -259000c0,-20100 9000,-34200 27100,-42200l246900 -99300zm2937400 -593100c16100,-6000 31100,-9000 45200,-9000l364300 0c10100,0 18600,3400 25700,10500 7000,7000 10500,15600 10500,25600l0 1974300c74900,-22400 156800,-33600 245500,-33600 145700,0 275300,31400 388400,94200 113100,62900 200500,152100 262100,267800 61600,115600 92400,248900 92400,399700l0 1199300c0,150800 -30800,284100 -92400,399700 -61600,115600 -149000,204900 -262100,267700 -113100,62900 -242700,94300 -388400,94300 -221300,0 -399800,-69700 -535500,-209300 -135800,-139500 -203700,-323600 -203700,-552400l0 -1199300c0,-228800 67900,-412900 203700,-552500 28200,-29000 58400,-55000 90300,-78000l-188800 0c-10000,0 -18600,-3500 -25600,-10500 -7000,-7100 -10500,-15600 -10500,-25600l0 -1644300c0,-8100 -5000,-12100 -15100,-12100l-231900 27100 -6000 0c-22100,0 -33100,-11000 -33100,-33100l-9000 -259000c0,-20000 9000,-34100 27100,-42100l246900 -99400zm-4942000 914200c16000,-6000 31100,-9000 45100,-9000l364400 0c10100,0 18600,3500 25600,10500 7000,7000 10500,15600 10500,25600l0 2035800c0,10000 -3500,18600 -10500,25600 -7000,7000 -15500,10500 -25600,10500l-352300 0c-10100,0 -18600,-3500 -25600,-10500 -7100,-7000 -10600,-15600 -10600,-25600l0 -1644300c0,-8000 -5000,-12000 -15000,-12000l-231900 27000 -6000 0c-22100,0 -33200,-11000 -33200,-33100l-9000 -259000c0,-20000 9000,-34100 27100,-42100l247000 -99400zm3798100 3260400l-200 0 -162700 0c-26600,12600 -49900,32000 -69600,58400 -37700,50200 -56600,116900 -56600,199800l0 1259600c0,82900 18900,149600 56600,199800 37700,50400 88000,75500 150800,75500 62900,0 113800,-25100 152800,-75500 38900,-50200 58400,-116900 58400,-199800l0 -1259600c0,-82900 -19500,-149600 -58400,-199800 -20500,-26400 -44100,-45800 -71100,-58400zm5961100 -3998000c16100,-6000 31200,-9100 45200,-9100l364400 0c10100,0 18600,3500 25600,10600 7000,7000 10500,15500 10500,25600l0 2035700c0,10100 -3500,18600 -10500,25600 -7000,7100 -15500,10600 -25600,10600l-352300 0c-10100,0 -18600,-3500 -25700,-10600 -7000,-7000 -10500,-15500 -10500,-25600l0 -1644200c0,-8100 -5000,-12100 -15000,-12100l-231900 27100 -6000 0c-22100,0 -33200,-11000 -33200,-33100l-9000 -259000c0,-20100 9000,-34100 27100,-42100l246900 -99400zm-1852700 2673900c62900,0 113800,-25100 152700,-75500 39000,-50200 58500,-116900 58500,-199800l0 -1259600c0,-83000 -19500,-149600 -58500,-199800 -38900,-50300 -89800,-75500 -152700,-75500 -62900,0 -113100,25200 -150900,75500 -37600,50200 -56500,116800 -56500,199800l0 1259600c0,82900 18900,149600 56500,199800 37800,50400 88000,75500 150900,75500zm-2273300 1383700c62800,0 113700,-25100 152700,-75400 39000,-50300 58400,-116900 58400,-199900l0 -1259500c0,-83000 -19400,-149600 -58400,-199900 -39000,-50300 -89900,-75500 -152700,-75500 -62900,0 -113200,25200 -150900,75500 -37700,50300 -56600,116900 -56600,199900l0 1259500c0,83000 18900,149600 56600,199900 37700,50300 88000,75400 150900,75400zm-6070300 -572900c23600,-8800 45700,-13200 66300,-13200l534700 0c14800,0 27300,5100 37600,15400 10300,10300 15500,22900 15500,37600l0 2987600c0,14700 -5200,27200 -15500,37600 -10300,10300 -22800,15400 -37600,15400l-517000 0c-14800,0 -27300,-5100 -37600,-15400 -10300,-10400 -15500,-22900 -15500,-37600l0 -2413100c0,-11800 -7300,-17600 -22100,-17600l-340300 39700 -8800 0c-32400,0 -48600,-16200 -48600,-48600l-13300 -380100c0,-29400 13300,-50000 39800,-61800l362400 -145900z"/>
 </g>
</svg>
