<?xml version="1.0" encoding="UTF-8"?>
<!DOCTYPE svg PUBLIC "-//W3C//DTD SVG 1.1//EN" "http://www.w3.org/Graphics/SVG/1.1/DTD/svg11.dtd">
<!-- Creator: CorelDRAW X8 -->
<svg xmlns="http://www.w3.org/2000/svg" xml:space="preserve" width="60px" height="60px" version="1.1" style="shape-rendering:geometricPrecision; text-rendering:geometricPrecision; image-rendering:optimizeQuality; fill-rule:evenodd; clip-rule:evenodd"
viewBox="0 0 600000 600000"
 xmlns:xlink="http://www.w3.org/1999/xlink">
 <defs>
  <style type="text/css">
   <![CDATA[
    .fil0 {fill:#fff}
   ]]>
  </style>
 </defs>
 <g id="Layer_x0020_1">
  <metadata id="CorelCorpID_0Corel-Layer"/>
  <path class="fil0" d="M300000 121644c162882,0 294923,79852 294923,178353 0,98504 -132041,178354 -294923,178354 -162879,0 -294923,-79850 -294923,-178354 0,-98501 132044,-178353 294923,-178353zm-55554 229190l33333 0 17226 -102456c35652,2350 50406,-4963 44689,29018 -4116,24481 -8229,48961 -12345,73438 11106,0 22218,0 33330,0 4515,-26833 9025,-53671 13538,-80510 4065,-24199 -2072,-48787 -34900,-49513l-39532 -870 7908 -47030 -33332 0 -29915 177923zm120510 45947l29747 -176948c23363,0 46726,0 70084,0 68372,0 62391,112425 -11965,130023 -15384,0 -30767,0 -46151,0l-8204 46925 -33511 0zm58723 -148403l28273 0c8589,-292 18538,4020 22238,10562 9402,16617 -261,57688 -29059,63544l-34188 0 12736 -74106zm-323505 148403l29747 -176948c23360,0 46723,0 70084,0 68374,0 62390,112425 -11965,130023 -15384,0 -30768,0 -46154,0l-8204 46925 -33508 0zm58723 -148403l28270 0c8589,-292 18538,4020 22240,10562 9400,16617 -261,57688 -29063,63544l-34184 0 12737 -74106zm141103 -118092c153939,0 278734,75983 278734,169711 0,93728 -124795,169714 -278734,169714 -153939,0 -278734,-75986 -278734,-169714 0,-93728 124795,-169711 278734,-169711z"/>
 </g>
</svg>
