<?xml version="1.0" encoding="UTF-8"?>
<!DOCTYPE svg PUBLIC "-//W3C//DTD SVG 1.1//EN" "http://www.w3.org/Graphics/SVG/1.1/DTD/svg11.dtd">
<!-- Creator: CorelDRAW X8 -->
<svg xmlns="http://www.w3.org/2000/svg" xml:space="preserve" width="60px" height="60px" version="1.1" style="shape-rendering:geometricPrecision; text-rendering:geometricPrecision; image-rendering:optimizeQuality; fill-rule:evenodd; clip-rule:evenodd"
viewBox="0 0 600000 600000"
 xmlns:xlink="http://www.w3.org/1999/xlink">
 <defs>
  <style type="text/css">
   <![CDATA[
    .fil0 {fill:#fff;fill-rule:nonzero}
   ]]>
  </style>
 </defs>
 <g id="Layer_x0020_1">
  <metadata id="CorelCorpID_0Corel-Layer"/>
  <path class="fil0" d="M276693 351217c-2505,2797 -4490,5315 -6162,7441 -6880,8733 -9014,11443 -30654,15899 -6143,1267 -9496,2633 -10925,3977 -125,116 -232,-224 -212,-74 25,170 328,516 805,967 2180,2052 6298,3827 9754,4689 5680,1423 15083,3143 25191,1414 9936,-1701 20665,-6789 29345,-18938 357,-502 649,-1041 884,-1608 1043,-2514 842,-5530 -162,-8348l-5 0c-1052,-2948 -2926,-5575 -5159,-7171 -564,-403 -1151,-737 -1755,-987 -1474,-612 -3189,-1301 -4822,-1156 -1664,144 -3656,1134 -6123,3895zm32965 -251276c6363,102 12274,457 17762,1038 4651,490 9085,1139 13308,1933 12473,-3795 47067,-12152 82180,-3781 22515,5366 45607,17308 64188,41051 11803,15081 11313,50729 -170,92314 -9159,33173 -25124,71044 -47007,105477 4186,462 13297,60 33128,-4031 7314,-1511 12835,-1040 16708,817 6088,2914 8691,7764 8271,14017 -224,3365 -1638,6795 -4051,10103 -4484,6145 -14417,13921 -26339,19454 -5794,2690 -13357,4785 -21226,6109 -7838,1318 -16209,1904 -23533,1573l-516 0 -4918 -434 -788 -170c-2095,-456 -1696,-4822 -2121,-2869 -513,2356 -918,5848 -1443,10355l-462 3955c-1117,42454 -7761,66625 -18107,81360 -11603,16517 -26317,20959 -42906,24514 -40830,8753 -49442,-17626 -54278,-32445 -337,-1032 -646,-1979 -978,-2878 -2168,-5853 -3569,-13376 -4510,-21875 -856,-7733 -1346,-16642 -1717,-25903 -111,-2761 -210,-6281 -309,-9873 -156,-5632 -256,-11441 -329,-16291 -7220,4601 -14749,7141 -21986,8380 -12980,2219 -24698,99 -31739,-1661 -5588,-1398 -12586,-4587 -16804,-8561 -2268,-2140 -4008,-4621 -4978,-7441 -5213,5638 -10590,9306 -16081,11262 -13901,4955 -26359,-482 -37392,-12722 -8623,-9567 -16481,-23865 -23437,-40346 -20511,-48586 -34007,-118769 -34869,-136032 -7123,-142399 125261,-103524 155487,-92835 6244,-3988 13212,-7256 20982,-9584 11443,-3424 14119,-4257 30980,-3980zm-50931 21476c-17642,-6682 -155843,-54706 -148907,83957 845,16863 14094,85581 34248,133322 6622,15690 14024,29214 22034,38100 8816,9780 18460,14230 28815,10540 4954,-1766 9915,-5446 14845,-11370 15426,-18556 29610,-33713 33415,-37735 5575,3200 11712,5366 18175,6270 2390,335 4831,493 7302,468 0,1060 60,2109 182,3146 -1894,2209 -3322,4023 -4575,5613 -5511,6999 -7223,9170 -25974,13031 -7742,1596 -12368,3694 -14794,5973 -2260,2123 -3005,4467 -2645,6882 315,2095 1499,3977 3237,5613 3200,3016 8759,5496 13280,6624 6361,1593 16921,3515 28466,1540 9785,-1676 20205,-6112 29288,-15815 -224,18230 8,35805 694,50539 859,18431 2469,32655 4842,38588 2438,6089 6273,15069 14241,21782 8062,6789 20027,11012 38305,7098 14868,-3189 25101,-7963 32321,-15469 7248,-7532 11219,-17544 13578,-31210 1437,-8331 3500,-23510 5425,-38781 1675,-13286 3232,-26538 4170,-35350 1686,739 3617,1315 5740,1740 5009,1001 11330,1250 17941,873 11281,-646 23564,-3149 31592,-6874 10720,-4980 19462,-11713 23250,-16903 1519,-2081 2398,-4107 2522,-5956 188,-2809 -992,-4991 -3747,-6312 -2364,-1131 -6182,-1327 -11679,-193 -34588,7140 -43268,910 -45385,-1996 23476,-35328 40484,-74945 49989,-109369 10837,-39238 11820,-72210 1581,-85298 -36989,-47265 -93257,-44223 -122111,-38622 -5814,1128 -10539,2370 -13756,3319 -2257,667 -4281,1290 -6098,1877 -9005,-2242 -18771,-3586 -29344,-3759 -5774,-93 -13476,406 -20954,2052 -11157,2461 -22283,6996 -29509,12065zm164036 88223c43,6613 -859,12472 -1800,18584 -896,5814 -1825,11849 -2061,19275 -232,7164 633,14361 1523,21765 1893,15758 3903,32510 -5188,48960 -1754,-2752 -3478,-5907 -4997,-9590 -834,-2018 -2753,-5462 -5295,-10017 -9582,-17184 -28449,-51018 -25064,-72151 3322,-20752 27379,-18955 42882,-16826zm-33948 16628c0,2299 3300,3435 7368,2540 4070,-899 8648,-5687 8648,-7986 0,-2562 -5043,-2332 -8969,-1281 -3404,913 -7047,4269 -7047,6727zm-111835 114613c864,-5527 3240,-11902 5868,-18946 1870,-5023 -1951,5306 895,-2370 40,-102 74,-207 102,-312 950,-2512 2177,-5241 3473,-8116 7245,-16098 16509,-36680 6128,-84696 -2766,-12785 -9893,-19469 -18847,-22281 -5828,-1831 -12342,-1916 -18834,-941 -6236,938 -12535,2889 -18164,5190 -5037,2064 -9570,4581 -13145,7056 1049,-18765 6775,-63077 37035,-85972 21793,-16489 53708,-17031 78874,-8725 29645,9782 57363,31776 72692,59655 3694,6715 6282,12722 7898,17317 513,1465 929,2735 1244,3795 -34050,-4277 -47469,6750 -50179,23684 -3818,23848 15936,59273 25968,77264 2415,4332 4241,7603 4890,9176 3875,9394 8802,15548 12648,20358 2444,3053 4377,5466 4913,7365 17,102 37,204 59,309 3,3 15,57 40,153 65,711 -1043,-1259 -1908,-1018 -7115,1999 -18198,5117 -17070,26944 -482,6236 -2594,24854 -4927,43356 -1882,14933 -3926,29919 -5394,38438 -2086,12087 -5448,20783 -11458,27028 -6035,6273 -14981,10349 -28233,13190 -15383,3296 -25143,5 -31535,-5380 -6486,-5463 -9828,-13321 -11965,-18664 -2030,-5077 -3462,-18383 -4281,-35966 -898,-19321 -1012,-43526 -340,-67635 14,-487 -59,-955 -210,-1392 -204,-1624 -595,-3228 -1148,-4773l-5 -14 5 -3c-1573,-4414 -4498,-8436 -8059,-10979 -1060,-757 -2171,-1383 -3316,-1859 -2333,-967 -5069,-2055 -8564,-1749 -1641,141 -3362,595 -5150,1513zm147784 -9929c-901,-1233 -1924,-2512 -3030,-3895 -459,-573 -935,-1168 -1423,-1786 12507,-19715 10202,-38928 8036,-56943 -861,-7174 -1700,-14145 -1491,-20579 216,-6761 1126,-12657 1999,-18340 1100,-7141 2149,-13955 1817,-22306 68,-236 122,-488 161,-751 270,-1710 -459,-5823 -2361,-11234 -1754,-4986 -4524,-11435 -8427,-18530 -11515,-20943 -33021,-47951 -67774,-61220 2220,-547 4771,-1123 7614,-1676 27136,-5266 79988,-8209 114344,35689 8683,11100 7203,41391 -2985,78281 -8963,32454 -24755,69651 -46480,103290zm-166212 -107525c-272,1925 3523,7056 8470,7745 4938,686 9164,-3325 9431,-5247 269,-1925 -3521,-4042 -8468,-4731 -4943,-689 -9170,314 -9433,2233l0 0zm-22048 110274c-4862,5168 -18258,19622 -32857,37180 -3957,4756 -7753,7645 -11381,8937 -6812,2430 -13643,-1040 -20236,-8356 -7399,-8207 -14344,-20954 -20631,-35853 -19797,-46899 -32800,-114146 -33625,-130612 -5941,-118770 105832,-87373 133660,-77761 -36139,32735 -35201,94485 -35150,97011l0 8c-8,1401 105,3339 258,5910 567,9567 1664,28069 -1233,48799 -697,4972 -780,9853 -323,14579 1281,13229 6809,25098 15007,34078 2015,2208 4195,4241 6511,6080zm-12266 -109284c0,-48 3,-99 3,-150 99,-876 7109,-4712 16353,-8496 5040,-2061 10704,-3810 16359,-4660 5400,-811 10709,-777 15276,660 6307,1979 11367,6869 13419,16353 9828,45463 1171,64696 -5598,79736 -1304,2900 -2543,5650 -3654,8604 -51,105 -97,212 -139,326 -3439,9269 422,-1089 -865,2367 -2389,6403 -4586,12302 -5788,17827 -2421,85 -4813,-46 -7160,-374 -10222,-1429 -19523,-6651 -26555,-14352 -7093,-7770 -11872,-18032 -12977,-29464 -400,-4101 -324,-8368 289,-12739 3007,-21509 1879,-40524 1295,-50357 -144,-2432 -255,-4292 -258,-5281zm251666 124529c-32213,6650 -45810,1318 -51474,-3583 -1074,414 -2310,762 -3645,1137 -4731,1329 -12107,3401 -11262,19029 5,62 8,122 11,184 8,51 25,105 51,159 547,1179 2939,2117 6412,2812 4377,876 10001,1085 15942,748 10372,-592 21538,-2837 28692,-6157 9519,-4422 17071,-10108 20160,-14343 173,-238 324,-457 454,-658 -1154,-37 -2906,170 -5341,672zm-230729 -357c-2775,3016 -6324,6919 -10349,11446 714,-167 1448,-332 2208,-487 12659,-2605 16038,-4173 18992,-7373 -564,-125 -1125,-261 -1687,-403 -3143,-802 -6208,-1871 -9164,-3183z"/>
 </g>
</svg>
