<?xml version="1.0" encoding="UTF-8"?>
<!DOCTYPE svg PUBLIC "-//W3C//DTD SVG 1.1//EN" "http://www.w3.org/Graphics/SVG/1.1/DTD/svg11.dtd">
<!-- Creator: CorelDRAW 2020 (64-Bit) -->
<svg xmlns="http://www.w3.org/2000/svg" xml:space="preserve" width="360px" height="137px" version="1.1" style="shape-rendering:geometricPrecision; text-rendering:geometricPrecision; image-rendering:optimizeQuality; fill-rule:evenodd; clip-rule:evenodd"
viewBox="0 0 36000000 13700000"
 xmlns:xlink="http://www.w3.org/1999/xlink"
 xmlns:xodm="http://www.corel.com/coreldraw/odm/2003"
 xmlns:svg="http://www.w3.org/2000/svg">
 <defs>
  <style type="text/css">
   <![CDATA[
    .fil0 {fill:#fff}
    .fil1 {fill:#fff;fill-rule:nonzero}
   ]]>
  </style>
 </defs>
 <g id="Layer_x0020_1">
  <metadata id="CorelCorpID_0Corel-Layer"/>
  <g id="_2051383981088">
   <path class="fil0" d="M7620800 4435000c88900,-503600 177800,-1007300 266700,-1510900 296200,747300 592500,1494500 888700,2241700 536600,154800 1073200,309500 1609800,464200 -352200,299500 -704500,599100 -1056700,898700 819700,0 2110000,-599200 2942900,-1693700l-3377400 -646800c92100,-697900 184300,-1395800 276500,-2093600 -1959800,-493800 -2357000,1629400 -1550500,2340400zm-79000 375300c-793300,-230400 -1586600,-460800 -2380000,-691300 720900,674800 1441900,1349700 2162800,2024500 -131700,809800 -263400,1619600 -395000,2429400 480500,-418100 961200,-836100 1441800,-1254200 592500,480600 1185000,961200 1777600,1441800 -398900,172500 -1185100,172500 -1807200,-424600 -747300,661600 -1494500,1323300 -2241800,1984900 -418100,-1020400 -747200,-2682800 79000,-4039000 -1050100,-513600 -2208800,-1214700 -2942900,-3110800 2136400,-352300 3680300,895400 4305700,1639300z"/>
   <path class="fil0" d="M12494800 7055900l-233300 0 0 -823400c440800,0 713600,-29800 713600,439200 0,300400 -181900,384200 -480300,384200zm-658700 1056700l425400 0 0 -713600c396600,0 332900,-64600 494000,233300l227100 390500c92300,136600 295600,89800 527700,89800 -133100,-251500 -318900,-530500 -466600,-809700 62600,-14500 108900,-53000 157300,-89700 275900,-209000 299100,-917000 -13800,-1151600 -308400,-231100 -913100,-172200 -1351100,-172200l0 2223200z"/>
   <path class="fil0" d="M27645200 10747400l-288200 0 0 -1536900 301900 0c399600,0 535200,351300 535200,754700 0,424600 -125300,782200 -548900,782200zm-699900 343100l754800 0c575600,0 854300,-372600 915800,-868200 28800,-231700 17500,-471200 -34500,-685600 -32900,-135700 -88100,-248500 -161500,-346200 -153600,-204000 -425100,-323100 -692400,-323100l-782200 0 0 2223100z"/>
   <path class="fil0" d="M11836100 11090500l425400 0 0 -919400c0,-31700 9500,-41200 41200,-41200l713600 0 0 919500c0,31600 9500,41100 41100,41100l384300 0 0 -2223100 -425400 0 0 919400 -754800 0 0 -919400 -425400 0 0 2223100z"/>
   <polygon class="fil0" points="29031200,11090500 29442900,11090500 29442900,10129900 30211400,10129900 30211400,11090500 30623100,11090500 30623100,8867400 30211400,8867400 30211400,9786800 29442900,9786800 29442900,8867400 29031200,8867400 "/>
   <path class="fil0" d="M25476900 10280900c0,-568200 142900,-570800 590100,-466600l0 850800c-132400,30900 -442400,136400 -535700,-68100 -34200,-74700 -54400,-204800 -54400,-316100zm-411700 -123600c0,300400 9400,678300 288700,822900 191000,98900 525000,100100 713100,600 0,294500 4700,356800 -384200,356800 -535600,0 -504000,-148900 -526000,50400 -6300,57400 -23000,140200 -23000,210300 168700,80900 846300,140600 1130100,-22700 115800,-66600 201100,-224800 201100,-402700l0 -1715400c-230300,0 -202700,79500 -281100,61500 -13800,-3100 -82600,-46200 -202400,-72100 -290600,-62700 -664900,-35200 -816000,248100 -57000,107100 -100300,302200 -100300,462300z"/>
   <path class="fil0" d="M31624900 11090500l439100 0 523200 -1658800c30000,-89200 171900,-506100 176700,-564300 -545300,0 -395100,-46400 -636400,694700l-283000 1048100c-25200,-302900 -398500,-1391500 -480300,-1742800l-439200 0 699900 2223100z"/>
   <path class="fil0" d="M17490000 7632300c0,-251500 118100,-260700 343100,-260700 85000,0 219800,14900 274400,41100l0 356800c-201400,47000 -55600,68600 -397900,68600 -124900,0 -219600,-77400 -219600,-205800zm-329300 -1111600l41100 315700c112200,0 220800,-32900 397900,-41300 60800,-2900 67000,-13900 137300,-14600 57200,-700 213300,17800 255300,33800 129700,49400 115200,187100 115200,296500 -153800,-3400 -1029200,-275000 -1029200,507800 0,632400 762000,632100 1111600,397900 177200,93800 135900,96100 315600,96100l0 -1125300c0,-560700 -473900,-535200 -850800,-535200 -167800,0 -355100,36200 -494000,68600z"/>
   <path class="fil0" d="M14457200 10349500l164700 0c100000,0 150700,25600 233300,27400l0 370500c-46700,10900 -77900,31400 -132200,46300 -175800,48400 -459400,65500 -482300,-200600 -12200,-141300 80200,-243600 216500,-243600zm-535200 -850900c0,57100 17400,161100 22900,210400 13500,121800 600,116400 115900,94100 148800,-28700 587800,-90300 734600,16000 69600,50500 59800,155200 59800,269600 -189900,-15800 -336100,-114400 -708200,-8300 -93600,26700 -168000,82600 -219600,150900 -124900,165200 -243500,845900 405800,887200 248900,15800 393300,17300 604300,-124100 125300,33500 79300,96100 315600,96100l0 -1152700c0,-147300 -53100,-276200 -126400,-353900 -242000,-256700 -1075600,-147200 -1204700,-85300z"/>
   <path class="fil0" d="M14429800 6767700c388800,0 370500,334800 370500,631300 0,188000 -97100,425400 -274500,425400 -174300,0 -289000,19800 -380200,-182500 -85800,-190400 -137400,-874200 284200,-874200zm-754800 535200c0,109200 20800,259700 46700,351300 57200,202500 174100,359600 372500,437200 265500,103800 723300,82300 913900,-127800 277700,-305800 263400,-1019500 35400,-1288100 -57300,-67500 -119000,-118000 -202000,-154900 -271500,-120600 -787400,-108100 -996400,170300 -128900,171800 -170100,389500 -170100,612000z"/>
   <path class="fil0" d="M19232800 10308300c0,-218400 22400,-562600 315700,-562600 140500,0 233800,3100 316200,122900 113300,164500 112500,634900 5500,802600 -118900,186500 -469600,176800 -569400,-19200 -44400,-87100 -68000,-210700 -68000,-343700zm-411600 -41200c0,310400 84300,676300 399600,794300 278300,104200 700300,103000 928300,-125000 286300,-286300 277600,-1046200 6900,-1318000 -81100,-81400 -128700,-109100 -248700,-149200 -72600,-24300 -245700,-56200 -339200,-47200 -162900,15700 -211700,16200 -337200,60900 -303500,108200 -409700,445200 -409700,784200z"/>
   <path class="fil0" d="M20783600 9457500l-68600 0 0 1633000 397900 0 0 -1235100c0,-68100 206400,-96000 288200,-96000 242200,0 301900,118400 301900,356800l0 974300 398000 0 0 -1001800c0,-376700 -113100,-585700 -435000,-649100 -175300,-34500 -406800,-21700 -582400,43400 -31800,11900 -76200,37400 -96200,38700 -50300,3400 -105000,-64200 -203800,-64200z"/>
   <path class="fil0" d="M23418400 9457500l-68600 0 0 1633000 398000 0 0 -1276200c66100,-5500 127500,-54900 301900,-54900 309500,0 274500,247600 274500,548900l-100 617600c-1200,203000 -66400,164600 398000,164600l0 -1084100c0,-559000 -468000,-661000 -922500,-552000 -40700,9700 -62200,16100 -93000,30600 -29000,13500 -61700,38900 -94100,36800 -49400,-3200 -96100,-64300 -194100,-64300z"/>
   <path class="fil0" d="M15719700 8702700c437400,0 397200,-400 516400,-334500 38200,-107100 74700,-210000 114800,-310600l590200 -1578000 -398000 0c-44200,189700 -327700,847100 -411700,1207600l-372200 -1068700c-60300,-182600 7300,-138900 -423700,-138900 1400,65200 163400,462600 197200,557500 101400,284600 303000,766200 389000,1039800 28700,91100 -39900,162000 -100900,342700l-101100 283100z"/>
   <path class="fil0" d="M15637400 9882900c0,162300 -1200,235600 95600,371000 163400,228500 755200,160600 755200,370000 0,273000 -652700,140500 -793800,117900 -82900,-13200 -50300,24500 -62900,123300 -7500,59500 -21600,129400 -21600,184300 144000,69000 629900,93800 816000,61100 609800,-107300 485100,-679100 361400,-813000 -205600,-222400 -751900,-159000 -751900,-387200 0,-276200 676200,-103700 768500,-96000 0,-113400 27400,-203200 27400,-329400 -72800,0 -106400,-18300 -174500,-31300 -41700,-8000 -142900,-22600 -195600,-24000 -151400,-3800 -268800,-16000 -402400,10200 -227900,44500 -421400,171400 -421400,443100z"/>
   <path class="fil0" d="M18917200 6163900l0 1591900c0,290300 175800,415100 431200,376400 244500,-36900 213800,66500 213800,-307800 0,-105800 -247000,46100 -247000,-150900l0 -1811500c-125700,2800 -398000,88600 -398000,301900z"/>
   <path class="fil0" d="M17256700 9155600l0 1934900 398000 0 0 -2250600c-88600,0 -207200,52500 -270300,86500 -83600,45100 -127700,105900 -127700,229200z"/>
   <path class="fil0" d="M17695800 10226000c0,67500 292500,508200 332000,573700 191600,318000 145400,290800 628700,290800 -17500,-75100 -354900,-608600 -426000,-726700 -69500,-115100 -110200,-120400 -46900,-212300 76500,-111100 442400,-622000 459200,-694000l-452900 0c-47300,89400 -494100,758400 -494100,768500z"/>
   <polygon class="fil0" points="22512700,11090500 22910700,11090500 22910700,9457500 22512700,9457500 "/>
   <polygon class="fil0" points="22512700,9265400 22910700,9265400 22910700,8867400 22512700,8867400 "/>
  </g>
  <path class="fil1" d="M1400000 43700l4819300 0 -327200 212600 -4492100 0c-300700,0 -574100,123100 -772400,321300 -198200,198300 -321300,471700 -321300,772400l0 2536100 -212600 138100 0 -2674200c0,-359300 146900,-686000 383600,-922700 236700,-236700 563400,-383600 922700,-383600zm-1093700 9770200l0 2536100c0,300600 123100,574100 321300,772400 198300,198200 471700,321300 772400,321300l4492100 0 327200 212600 -4819300 0c-359300,0 -686000,-147000 -922700,-383600 -236700,-236700 -383600,-563400 -383600,-922700l0 -2674200 212600 138100zm29474400 -9770200l4819300 0c359300,0 686000,146900 922700,383600 236700,236700 383600,563400 383600,922700l0 2674200 -212600 -138100 0 -2536100c0,-300700 -123000,-574100 -321300,-772400 -198200,-198200 -471700,-321300 -772400,-321300l-4492100 0 -327200 -212600zm6125600 9632100l0 2674200c0,359300 -146900,686000 -383600,922700 -236700,236600 -563400,383600 -922700,383600l-4819300 0 327200 -212600 4492100 0c300700,0 574200,-123100 772400,-321300 198300,-198300 321300,-471800 321300,-772400l0 -2536100 212600 -138100z"/>
 </g>
</svg>
