<?xml version="1.0" encoding="UTF-8"?>
<!DOCTYPE svg PUBLIC "-//W3C//DTD SVG 1.1//EN" "http://www.w3.org/Graphics/SVG/1.1/DTD/svg11.dtd">
<!-- Creator: CorelDRAW 2020 (64-Bit) -->
<svg xmlns="http://www.w3.org/2000/svg" xml:space="preserve" width="360px" height="137px" version="1.1" style="shape-rendering:geometricPrecision; text-rendering:geometricPrecision; image-rendering:optimizeQuality; fill-rule:evenodd; clip-rule:evenodd"
viewBox="0 0 36000000 13700000"
 xmlns:xlink="http://www.w3.org/1999/xlink"
 xmlns:xodm="http://www.corel.com/coreldraw/odm/2003"
 xmlns:svg="http://www.w3.org/2000/svg">
 <defs>
  <style type="text/css">
   <![CDATA[
    .fil0 {fill:#fff}
    .fil1 {fill:#fff;fill-rule:nonzero}
   ]]>
  </style>
 </defs>
 <g id="Layer_x0020_1">
  <metadata id="CorelCorpID_0Corel-Layer"/>
  <g>
   <path class="fil0" d="M16038300 7730400c-105400,254700 -271100,487300 -474600,673000 -994200,908100 -2742500,492400 -3130400,-895500 -223500,-799400 101500,-1690400 800700,-2137200 1530700,-978400 3548500,559700 2804300,2359700zm-9720200 2984400l0 -1052500 759900 0 0 123500 -620400 0 0 323300 580800 0 0 123700 -580800 0 0 358500 645400 0 0 123500 -784900 0zm1457300 0l406800 -546000 -358100 -506500 165700 0 191800 269300c39900,55900 67700,98400 83600,128300 23800,-37100 51700,-76000 83800,-117600l210100 -280000 152500 0 -365400 500400 393600 552100 -171000 0 -265600 -375300c-15200,-21300 -29600,-42600 -43100,-63700 -23600,35400 -40100,60000 -50400,74100l-267000 364900 -167300 0zm1673800 0l0 -1052500 397500 0c69900,0 123100,3400 160400,10100 51700,8500 94800,24900 129900,49000 35000,24300 63300,58000 84600,101500 21300,43100 31800,91000 31800,143300 0,89100 -28300,165000 -85500,226500 -56900,62000 -159900,93000 -308900,93000l-269900 0 0 429100 -139900 0zm139900 -552700l271800 0c90300,0 153800,-16700 192000,-50100 37600,-33700 56400,-80600 56400,-141600 0,-43900 -10800,-81800 -33300,-112900 -22200,-31400 -51600,-52500 -87900,-62400 -23600,-6200 -66900,-9300 -129800,-9300l-269200 0 0 376300zm1430400 552700l0 -1052500 759800 0 0 123500 -620300 0 0 323300 580600 0 0 123700 -580600 0 0 358500 645400 0 0 123500 -784900 0zm1564100 0l0 -1052500 362500 0c81900,0 144400,4900 187300,15000 60500,13900 111800,39200 154400,75500 55700,46900 97100,106800 124500,180000 27700,72700 41400,156200 41400,250300 0,79600 -9300,150500 -27900,212200 -18700,61800 -42600,113100 -71900,153400 -29300,40500 -61200,72200 -95800,95200 -34600,23400 -76400,40900 -125600,53000 -49200,12000 -105500,17900 -169100,17900l-379800 0zm139500 -123500l224700 0c69100,0 123500,-6300 163100,-19400 39300,-12900 70800,-31000 94200,-54800 32900,-32800 58500,-77500 76800,-133400 18400,-55800 27900,-123300 27900,-202900 0,-110300 -18200,-195000 -54300,-254300 -35900,-59300 -79800,-99100 -131600,-119200 -37200,-14400 -97300,-21500 -179900,-21500l-220900 0 0 805500zm1532000 123500l0 -1052500 139700 0 0 1052500 -139700 0zm1239200 0l0 -929000 -346800 0 0 -123500 833500 0 0 123500 -347200 0 0 929000 -139500 0zm1240700 0l0 -1052500 139500 0 0 1052500 -139500 0zm928800 -512200c0,-174600 46900,-311300 140800,-409900 93900,-98700 215000,-147900 363400,-147900 97100,0 184500,23200 262800,69600 78000,46300 137400,110800 178300,194000 41100,82700 61600,176900 61600,281900 0,106600 -21500,202200 -64800,286000 -43000,84400 -104000,148100 -183100,191200 -79000,43300 -164200,65000 -255600,65000 -99200,0 -187800,-24200 -265900,-71900 -77700,-47800 -137000,-113000 -177300,-195700 -40100,-82500 -60200,-169900 -60200,-262300zm143800 2300c0,126800 34300,226600 102500,299200 68000,72700 153500,109200 256400,109200 104700,0 190800,-36700 258600,-110000 67700,-73700 101500,-177900 101500,-313200 0,-85500 -14400,-160200 -43300,-223900 -29100,-63700 -71500,-113300 -127000,-148200 -55900,-35200 -118400,-52700 -187800,-52700 -98400,0 -183200,33600 -254200,101500 -71100,67500 -106700,180200 -106700,338100zm1627300 509900l0 -1052500 143100 0 552300 826200 0 -826200 133600 0 0 1052500 -143100 0 -552100 -826200 0 826200 -133800 0zm780500 -2984400c-105300,254700 -271000,487300 -474500,673000 -994200,908100 -2742500,492400 -3130600,-895500 -223300,-799400 101700,-1690400 800900,-2137200 1530500,-978400 3548300,559700 2804200,2359700zm-2564700 -1525200c-380300,454800 -356800,1195600 62700,1618900 239100,243100 599800,356700 933000,290200 903500,-160200 1172400,-1407700 517300,-2011000 -442100,-408200 -1136700,-358000 -1513000,101900zm9111100 -666300c470400,-439100 1195500,-588000 1799100,-356700 572400,215700 937000,760400 1121100,1321000 -850700,352800 -1697300,701700 -2547900,1054400 117700,223300 297900,427300 541000,509600 341100,121400 748600,78500 1034800,-149000 113600,-86100 203900,-200000 290000,-309600 215700,145000 431300,286200 646800,431200 -305600,458600 -819200,780000 -1371800,830900 -611600,74500 -1262200,-160800 -1658200,-638900 -650600,-752700 -587900,-2014800 145100,-2692900l0 0zm-5178200 -199900c450800,-282300 1050700,-360600 1536600,-117700 153000,66700 278200,180400 399900,294000 4000,-105700 0,-215500 4000,-325200 262400,3800 525100,0 791800,3800 0,1152500 0,2304800 0,3457300 -9500,1265800 -817100,2115100 -2124700,1916900 -607600,-90300 -1136700,-533100 -1372000,-1093800 235300,-113600 482200,-203700 725300,-309600 137200,321400 415400,595900 764400,658600 978600,176000 1237200,-574400 1211200,-1383800 -180400,176600 -388100,333300 -639000,392100 -544900,152800 -1144500,-35400 -1563900,-403700 -423400,-368500 -674300,-937000 -650800,-1501400 11800,-639000 372300,-1254400 917200,-1587500l0 0zm-10238600 -1552200c-188100,192100 -380100,376300 -564400,568200 -730200,-660200 -1801500,-787400 -2630200,-223300 -1059500,692800 -1262700,2223700 -454600,3186900 734200,888800 2209400,1038400 3049600,231200 313600,-270400 458600,-682100 505600,-1081900 -650600,0 -1301300,3900 -1952100,0 0,-269100 0,-538300 0,-807400 913400,0 1826600,0 2740000,0 141100,866100 -62700,1842200 -721200,2461600 -876500,876500 -2352700,983300 -3418200,403700 -638900,-341000 -1148400,-917200 -1399300,-1595300 -467000,-1237300 -8900,-2624500 1058400,-3386800 1132500,-833000 2779300,-772000 3786400,243100zm15836100 2477300c-133200,192000 -188100,427300 -184100,658600 568400,-235300 1136600,-470400 1705100,-709700 -94100,-219300 -321400,-352700 -552700,-387900 -372500,-66700 -760400,133200 -968300,439000zm-5401500 -66700c-368400,439100 -368400,1140700 4000,1572000 444500,535000 1285100,473800 1630600,-137300 258700,-458600 215600,-1081900 -133200,-1481600 -405900,-465100 -1122100,-410200 -1501400,46900zm-8305900 7800c-380300,454800 -356800,1195600 62700,1618900 239100,243100 599600,356700 932800,290200 903700,-160200 1172400,-1407700 517500,-2011000 -442300,-408200 -1136700,-358000 -1513000,101900zm11441800 -3033800c279600,0 559300,0 838900,0 0,1865700 0,3731500 0,5597400 -278300,0 -560500,3800 -838900,-3900 4000,-1862000 0,-3727800 0,-5593500 0,0 0,0 0,0z"/>
  </g>
  <path class="fil1" d="M1400000 43700l4819300 0 -327200 212600 -4492100 0c-300700,0 -574100,123100 -772400,321300 -198200,198300 -321300,471700 -321300,772400l0 2536100 -212600 138100 0 -2674200c0,-359300 146900,-686000 383600,-922700 236700,-236700 563400,-383600 922700,-383600zm-1093700 9770200l0 2536100c0,300600 123100,574100 321300,772400 198300,198200 471700,321300 772400,321300l4492100 0 327200 212600 -4819300 0c-359300,0 -686000,-147000 -922700,-383600 -236700,-236700 -383600,-563400 -383600,-922700l0 -2674200 212600 138100zm29474400 -9770200l4819300 0c359300,0 686000,146900 922700,383600 236700,236700 383600,563400 383600,922700l0 2674200 -212600 -138100 0 -2536100c0,-300700 -123000,-574100 -321300,-772400 -198200,-198200 -471700,-321300 -772400,-321300l-4492100 0 -327200 -212600zm6125600 9632100l0 2674200c0,359300 -146900,686000 -383600,922700 -236700,236600 -563400,383600 -922700,383600l-4819300 0 327200 -212600 4492100 0c300700,0 574200,-123100 772400,-321300 198300,-198300 321300,-471800 321300,-772400l0 -2536100 212600 -138100z"/>
 </g>
</svg>
