<?xml version="1.0" encoding="UTF-8"?>
<!DOCTYPE svg PUBLIC "-//W3C//DTD SVG 1.1//EN" "http://www.w3.org/Graphics/SVG/1.1/DTD/svg11.dtd">
<!-- Creator: CorelDRAW 2020 (64-Bit) -->
<svg xmlns="http://www.w3.org/2000/svg" xml:space="preserve" width="360px" height="137px" version="1.1" style="shape-rendering:geometricPrecision; text-rendering:geometricPrecision; image-rendering:optimizeQuality; fill-rule:evenodd; clip-rule:evenodd"
viewBox="0 0 36000000 13700000"
 xmlns:xlink="http://www.w3.org/1999/xlink"
 xmlns:xodm="http://www.corel.com/coreldraw/odm/2003"
 xmlns:svg="http://www.w3.org/2000/svg">
 <defs>
  <style type="text/css">
   <![CDATA[
    .fil0 {fill:#fff}
    .fil1 {fill:#fff;fill-rule:nonzero}
   ]]>
  </style>
 </defs>
 <g id="Layer_x0020_1">
  <metadata id="CorelCorpID_0Corel-Layer"/>
  <path id="path262" class="fil0" d="M19145400 6421600c-197900,139800 -457500,160700 -658700,70100 0,0 -55200,-20900 -106300,-76800 -43800,-52700 -1156500,-1250700 -1156500,-1250700l-3600 -3600c344100,59400 721100,-97900 915100,-384400 193700,-272400 186500,-660100 3600,-932800 -219400,-296900 -648000,-394500 -1006400,-349400 -622300,84000 -1068800,611500 -1207600,1163500 -142900,628700 -40300,1222700 182900,1781600 51100,118700 120900,241300 204800,345800 -655100,-272100 -1233200,-775500 -1537000,-1449700 -336700,-726600 -329300,-1645500 69700,-2382600 314900,-569300 870900,-1096800 1558900,-1320600 721100,-282900 1690800,-223700 2393400,153800 852700,405200 1496500,1414700 1500400,2316300 29200,932800 -402700,1778100 -1152700,2319500zm-10489500 4339300l-1030300 0c-228300,-341900 -434500,-637400 -619900,-886000 -184100,-248700 -383900,-505500 -599400,-770000l-391400 0 0 1159400c0,59900 10300,112700 29700,158300 19200,44800 61700,80000 126900,103800 32400,12200 88500,23500 169500,33300 81100,10600 149200,16800 205500,18500l0 182700 -1619100 0 0 -182700c43400,-3600 106000,-9600 188000,-18500 81800,-7900 138900,-19400 171300,-33300 53400,-22100 93000,-54700 117000,-97600 24700,-43200 36700,-97600 36700,-164500l0 -2642500c0,-60700 -9200,-113400 -27600,-160000 -17500,-46700 -60000,-81700 -126100,-105500 -45100,-15800 -104100,-29700 -175800,-42200 -72200,-13100 -132900,-21100 -183500,-24700l0 -182700 1767300 0c162100,0 313900,15800 455800,47500 141500,31700 270800,82500 385900,152700 111200,68900 200700,158500 267100,269300 66200,110600 100200,244400 100200,400700 0,140800 -23000,265700 -68100,373600 -45300,108200 -111500,201400 -199000,280600 -81000,73600 -178600,138100 -291800,191600 -113200,54400 -238600,100200 -374800,137900 188700,239000 345300,439700 470400,603300 125500,162500 278000,361100 460500,593900 79100,103900 150100,179400 214800,228500 63300,48500 126900,89000 189500,119700 47000,22100 105000,39800 175700,51800 70000,11500 128300,18700 175000,20400l0 182700zm-1419000 -2725200c0,-221400 -66200,-396400 -199800,-526400 -132600,-129200 -321300,-194200 -563500,-194200l-458700 0 0 1568200 353700 0c247700,0 455100,-75500 619600,-227800 165900,-152000 248700,-358700 248700,-619800zm4535600 2127600c-111500,203100 -260600,363800 -447400,484400 -187100,120400 -402700,180100 -644800,180100 -214600,0 -401400,-36000 -562600,-108100 -161100,-72000 -293700,-169800 -397800,-293500 -104100,-123300 -182500,-268400 -233800,-432600 -50800,-165200 -76500,-339300 -76500,-523000 0,-164500 27600,-326100 82000,-485400 55200,-158900 135300,-301400 242200,-429000 102200,-121300 229300,-219800 381100,-294400 152000,-74800 322500,-112500 511200,-112500 194200,0 360900,28800 499000,87800 139100,58000 251500,138100 337100,239100 82800,96800 144400,210000 185200,340200 40500,130900 60600,272700 60600,424700l0 170500 -1761500 0c0,166200 16600,317500 49600,452700 33100,136200 85600,254900 158300,358800 70000,99200 161400,177400 274600,235400 113100,57100 248600,86300 405200,86300 160200,0 298300,-36200 414100,-107400 115400,-71200 227600,-199500 335500,-385100l188700 111000 0 0zm-595900 -968000c0,-96600 -8100,-199500 -25600,-309300 -17800,-109900 -44400,-201200 -82000,-275300 -41800,-78900 -98600,-143200 -170500,-193300 -71700,-50100 -164800,-74800 -277900,-74800 -189000,0 -345300,74800 -470700,225200 -125200,150300 -192400,359400 -203400,627500l1230100 0 0 0zm3122400 1565600l-1252700 0 0 -163800c40000,-3300 82700,-7400 128000,-11700 45300,-3400 82800,-10300 112000,-18700 48900,-14400 85400,-40800 109300,-78000 24000,-37400 37500,-86000 36500,-145300l-40800 -2711800c-400,-30700 -14300,-119200 -31400,-180300 -7600,-27600 -15800,-49900 -23700,-58300 -8400,-9100 -11300,-18400 -22800,-28300 -45100,-38300 10800,14900 -31200,-20800 -27800,-23500 11500,-8900 -71700,-25200 -82700,-16300 -220800,20200 -271400,16800l-4600 -178700 934000 -48600 44600 36200 3600 3169300c0,57800 11100,105300 33800,142700 22600,37100 58800,66100 109400,85600 38100,17000 75500,29000 112700,37400 37600,8600 80100,14400 126400,18000l0 163500 0 0zm3033800 0l-1275500 0 0 -168400c41000,-3100 83000,-6600 126900,-10200 43900,-3400 81300,-10400 113200,-20900 50300,-14900 87700,-42000 111500,-80100 23700,-38400 36400,-88300 36400,-149100l0 -1555100c0,-54900 -13700,-104800 -39300,-150100 -25400,-45300 -62100,-82700 -108600,-113200 -33600,-20800 -82300,-38400 -147000,-52300 -64000,-14800 -122300,-23500 -176300,-27100l0 -165400 931400 -56800 37400 35700 0 2053800c0,59200 12000,108900 35700,148200 23700,38400 62100,67800 114200,86300 39000,15600 77600,27800 115100,37400 37400,8700 78400,15800 124900,18900l0 168400 0 0zm-336900 -3541500c0,96700 -32900,181300 -100500,253700 -66600,72200 -148700,108900 -247400,108900 -90500,0 -169800,-34800 -236500,-103900 -66700,-68700 -100500,-148100 -100500,-236100 0,-94000 33800,-175300 100500,-244900 66700,-69800 146000,-104800 236500,-104800 102300,0 185300,32400 250300,97900 64700,66200 97600,141900 97600,229200l0 0zm4032600 3495000c-84900,29000 -158600,52700 -221900,71200 -64500,17500 -136400,27300 -217500,27300 -141000,0 -252200,-31900 -336100,-94000 -83700,-63300 -137200,-154900 -160200,-274300l-16600 0c-116700,123000 -242200,218000 -376700,283000 -133600,64900 -294700,97600 -483400,97600 -199700,0 -363700,-58100 -492500,-174900 -129000,-117000 -193500,-269700 -193500,-457900 0,-98600 14800,-185700 43400,-263100 29200,-77200 71700,-146800 129700,-209100 45100,-51100 104100,-96600 177900,-137200 73400,-40200 143400,-72900 207900,-96600 81100,-29000 245100,-83400 491800,-162800 247700,-79200 414400,-140500 500900,-185400l0 -254900c0,-22000 -4500,-65000 -14600,-128300 -10300,-63300 -31400,-123900 -63500,-180300 -36000,-64000 -86800,-119400 -153000,-165900 -65200,-47700 -158300,-71500 -278900,-71500 -82900,0 -159400,13200 -230400,40600 -70800,26300 -121400,54400 -149900,83600 0,34300 8200,84200 25900,151800 17300,66900 25700,128600 25700,185600 0,59700 -28600,114400 -84900,164300 -57100,50300 -135300,74800 -236700,74800 -89200,0 -155400,-30700 -197800,-91400 -42500,-60600 -63600,-129200 -63600,-204700 0,-79400 29500,-154700 87600,-226900 58900,-71900 134200,-136400 228200,-192600 81100,-48400 178700,-88600 293800,-122900 115100,-33400 227300,-50200 337100,-50200 150800,0 282700,10600 395900,29800 112200,19400 213700,62600 305500,127500 92300,63300 161400,149400 209100,258300 48000,109300 71900,249800 71900,421300 0,246000 -2800,463300 -8300,652900 -5500,190200 -8200,397600 -8200,622600 0,66900 11800,119600 36700,158900 24000,39800 61600,73200 111500,101200 27600,15100 70000,24000 127800,25700 59000,1700 118900,2600 179600,2600l0 164300 300 0zm-941200 -1359900c-152800,42900 -287300,85100 -402400,126400 -115100,41500 -222100,92600 -320400,154900 -90400,58000 -161300,127600 -213900,207400 -51500,79200 -78100,174100 -78100,283900 0,142500 39500,248000 117700,314600 78400,66900 177900,100500 297300,100500 128300,0 240600,-30000 338200,-88700 96800,-59000 178600,-129300 245000,-210300l16600 -888700 0 0zm4935600 1406400l-1302800 0 0 -169500c41200,-3400 87300,-7000 135900,-10600 49900,-3600 90200,-10500 123600,-21100 49800,-14900 87500,-42200 111400,-80800 24800,-38900 37000,-88700 37000,-150300l0 -1306400c0,-180100 -45100,-318900 -133800,-416800 -89200,-97600 -197900,-146700 -324900,-146700 -95700,0 -183200,14100 -262600,42200 -78200,28000 -149200,63300 -209800,104500 -59000,39600 -107000,82000 -142000,127600 -34800,45800 -60600,81700 -76200,109100l0 1460800c0,58000 12000,106500 37800,144300 25000,37700 62400,66900 113200,87100 37700,17500 78200,29700 122300,38600 44400,8600 89500,15100 136500,18500l0 169500 -1303100 0 0 -169500c41300,-3400 83700,-7000 127900,-10600 44300,-3600 82200,-10500 115000,-21100 49900,-14900 87600,-42200 111800,-80800 24900,-38900 36700,-88700 36700,-150300l0 -1568500c0,-58800 -13000,-112500 -39600,-160700 -25900,-49400 -62600,-89700 -108900,-120400 -33700,-20300 -74500,-35200 -121300,-45000 -47000,-9600 -97600,-15600 -151000,-19200l0 -166900 884800 -57300 37900 36000 0 357700 12900 0c43200,-40300 97600,-90400 161900,-147400 64700,-57400 126300,-104800 183400,-140800 67200,-41300 146500,-75600 237600,-102900 92100,-27100 195200,-41200 310300,-41200 255200,0 444800,76200 568100,227500 123500,152300 184100,354500 184100,606700l0 1321200c0,60700 11300,109100 33400,146100 21100,36900 58000,65700 110300,86100 43400,17500 80100,29000 111500,35900 31400,7000 75500,12500 130700,15900l0 169500 0 0zm1945600 66900c-384800,0 -686000,-122300 -904200,-365700 -217500,-243400 -325900,-570700 -325900,-981200 0,-178200 29500,-345300 87300,-500900 59200,-155600 143600,-296200 255100,-423800 106000,-121300 239400,-219800 399800,-294400 159200,-74800 334200,-112500 523000,-112500 260600,0 473300,59700 636400,179200 164000,119600 245700,282200 245700,487900 0,86100 -21100,161600 -64500,227800 -43100,66700 -114300,99300 -213600,99300 -106000,0 -187800,-25600 -246800,-77400 -58000,-50900 -87500,-108900 -87500,-172200 0,-77500 11100,-156600 32400,-238400 22100,-81700 33800,-141500 37400,-179300 -31900,-52600 -79900,-88800 -144300,-106300 -63600,-18700 -132700,-27300 -206500,-27300 -85400,0 -168100,17700 -246500,52800 -78400,35200 -154000,100200 -227600,194200 -67100,86300 -120600,202400 -162100,348200 -41200,146000 -62600,319900 -62600,522200 0,319900 74600,580100 223000,782200 148000,201400 343400,302600 583700,302600 175000,0 321300,-40500 439300,-121300 117000,-81100 226400,-201400 327100,-363000l172900 108100c-118700,202900 -275300,363100 -469600,481700 -194400,118700 -394900,177500 -601400,177500zm4387500 -664500c-111300,203100 -260400,363800 -447500,484400 -187000,120400 -402300,180100 -644500,180100 -214600,0 -401400,-36000 -562600,-108100 -161300,-72000 -293900,-169800 -398000,-293500 -103800,-123300 -182200,-268400 -233800,-432600 -50600,-165200 -76500,-339300 -76500,-523000 0,-164500 27600,-326100 82000,-485400 55200,-158900 135500,-301400 242200,-429000 102400,-121300 229200,-219800 381300,-294400 152000,-74800 322200,-112500 510900,-112500 194500,0 360900,28800 499100,87800 139300,58000 251500,138100 337100,239100 83000,96800 144600,210000 185100,340200 40600,130900 60700,272700 60700,424700l0 170500 -1761500 0c0,166200 16500,317500 49600,452700 33100,136200 85900,254900 158500,358800 70000,99200 161200,177400 274400,235400 113100,57100 248600,86300 405200,86300 160400,0 298300,-36200 414400,-107400 115100,-71200 227500,-199500 335200,-385100l188700 111000 0 0zm-595700 -968000c0,-96600 -8300,-199500 -25800,-309300 -17600,-109900 -44200,-201200 -81800,-275300 -41700,-78900 -98600,-143200 -170500,-193300 -71900,-50100 -164700,-74800 -278200,-74800 -188700,0 -345300,74800 -470400,225200 -125500,150300 -192600,359400 -203600,627500l1230100 0 200 0zm-14127500 -2673400c-290600,-300000 -524400,-689200 -347400,-1094200 157000,-309300 297300,-625100 364000,-982200 26800,373200 264200,704800 377400,1062100 43700,172400 47000,350800 -23200,529400 -76800,194200 -200500,360400 -347300,510000l-23500 -25100z"/>
  <path class="fil1" d="M1400000 43700l4819300 0 -327200 212600 -4492100 0c-300700,0 -574100,123100 -772400,321300 -198200,198300 -321300,471700 -321300,772400l0 2536100 -212600 138100 0 -2674200c0,-359300 146900,-686000 383600,-922700 236700,-236700 563400,-383600 922700,-383600zm-1093700 9770200l0 2536100c0,300600 123100,574100 321300,772400 198300,198200 471700,321300 772400,321300l4492100 0 327200 212600 -4819300 0c-359300,0 -686000,-147000 -922700,-383600 -236700,-236700 -383600,-563400 -383600,-922700l0 -2674200 212600 138100zm29474400 -9770200l4819300 0c359300,0 686000,146900 922700,383600 236700,236700 383600,563400 383600,922700l0 2674200 -212600 -138100 0 -2536100c0,-300700 -123000,-574100 -321300,-772400 -198200,-198200 -471700,-321300 -772400,-321300l-4492100 0 -327200 -212600zm6125600 9632100l0 2674200c0,359300 -146900,686000 -383600,922700 -236700,236600 -563400,383600 -922700,383600l-4819300 0 327200 -212600 4492100 0c300700,0 574200,-123100 772400,-321300 198300,-198300 321300,-471800 321300,-772400l0 -2536100 212600 -138100z"/>
 </g>
</svg>
