<?xml version="1.0" encoding="UTF-8"?>
<!DOCTYPE svg PUBLIC "-//W3C//DTD SVG 1.1//EN" "http://www.w3.org/Graphics/SVG/1.1/DTD/svg11.dtd">
<!-- Creator: CorelDRAW X8 -->
<svg xmlns="http://www.w3.org/2000/svg" xml:space="preserve" width="60px" height="60px" version="1.1" style="shape-rendering:geometricPrecision; text-rendering:geometricPrecision; image-rendering:optimizeQuality; fill-rule:evenodd; clip-rule:evenodd"
viewBox="0 0 600000 600000"
 xmlns:xlink="http://www.w3.org/1999/xlink">
 <defs>
  <style type="text/css">
   <![CDATA[
    .fil0 {fill:#fff}
   ]]>
  </style>
 </defs>
 <g id="Layer_x0020_1">
  <metadata id="CorelCorpID_0Corel-Layer"/>
  <path class="fil0" d="M344975 299572c0,24837 -20138,44972 -44975,44972 -24837,0 -44972,-20135 -44972,-44972 0,-24840 20135,-44975 44972,-44975 24837,0 44975,20135 44975,44975zm-133785 51863c-5028,-8683 -9796,-17396 -14298,-26093 -1505,3574 -2962,7137 -4365,10684 -4587,11579 -8598,22909 -11991,33851 10973,2390 22547,4391 34589,6010 3914,527 7883,1014 11900,1459 -5417,-8404 -10707,-17053 -15835,-25911zm-26645 -51364c-4131,-8983 -7960,-17901 -11472,-26708 -5032,-12612 -9403,-24962 -13085,-36913 -6041,1712 -11838,3535 -17362,5462 -23559,8212 -42265,18366 -55052,29180 -11577,9791 -17878,19673 -17878,28480 0,9289 6888,19990 19471,30572 13552,11398 33287,22121 58034,30580 4025,1378 8183,2682 12467,3912 3631,-11855 7931,-24075 12855,-36511 3654,-9218 7665,-18592 12022,-28054zm-30331 -84286c-1423,-5697 -2668,-11273 -3734,-16713 -5388,-27541 -6171,-52070 -2891,-71481 3654,-21629 12492,-37514 25869,-45258 13913,-8054 33072,-7697 54811,572 19330,7353 41267,21164 63579,40975 2786,2475 5575,5049 8367,7719 4210,-4062 8400,-7909 12561,-11532 21141,-18396 42009,-31320 60514,-38191 20548,-7631 38707,-7909 52087,-193 13924,8031 23184,24812 26878,47784 3291,20455 2290,46352 -3719,75524 -751,3642 -1585,7339 -2500,11081 5598,1612 11012,3322 16225,5116 26555,9142 48187,20755 63343,33321 16895,14004 26218,29608 26218,45063 0,16038 -9921,32434 -27995,47123 -16126,13111 -39078,25200 -67331,34560 -3048,1012 -6169,1987 -9352,2929 1140,4572 2149,9070 3025,13490 5595,28275 6188,53458 2667,73423 -3980,22589 -13388,39138 -27068,47058 -13278,7688 -31232,7693 -51605,394 -18162,-6508 -38659,-18935 -59576,-36938 -4524,-3892 -9082,-8051 -13657,-12459 -3507,3391 -7019,6625 -10528,9695 -21722,18986 -43260,32085 -62317,39010 -21541,7824 -40558,7937 -54238,49 -13309,-7677 -22289,-23230 -26139,-44516 -3430,-18972 -2897,-42931 2251,-70047 1114,-5854 2435,-11869 3960,-18017 -4674,-1341 -9216,-2761 -13609,-4263 -27253,-9315 -49360,-21442 -64925,-34529 -17581,-14783 -27204,-31204 -27204,-46962 0,-15344 8994,-30889 25523,-44870 14700,-12430 35739,-23938 61863,-33046 5950,-2075 12175,-4034 18647,-5871zm161070 -68859c8881,9567 17717,20021 26394,31198 5459,7033 10862,14355 16180,21926 9822,921 19435,2075 28792,3444 13461,1967 26382,4385 38619,7209 828,-3385 1579,-6718 2256,-9998 5480,-26601 6449,-49853 3552,-67876 -2647,-16461 -8297,-27913 -16373,-32573 -7614,-4388 -19474,-3662 -33933,1707 -16059,5961 -34617,17569 -53876,34324 -3852,3357 -7727,6906 -11611,10639zm58196 76462c5236,8200 10355,16619 15330,25214 5068,8753 9921,17530 14533,26294 1106,-2591 2186,-5173 3234,-7741l-34 -14c4992,-12226 9329,-24183 12932,-35714 -11387,-2602 -23409,-4839 -35935,-6670 -3316,-485 -6673,-941 -10060,-1369zm42265 76272c4413,9295 8518,18527 12274,27641 5091,12342 9538,24451 13255,36198 2891,-859 5726,-1746 8498,-2664 25801,-8550 46406,-19304 60523,-30779 12920,-10503 20009,-21127 20009,-30484 0,-8779 -6542,-18678 -18397,-28505 -13229,-10965 -32544,-21252 -56622,-29540 -4819,-1659 -9822,-3240 -14998,-4737 -3849,12484 -8487,25345 -13827,38418l-40 0c-3297,8073 -6863,16237 -10675,24452zm-129842 154199c-8447,-9059 -16886,-18890 -25203,-29372 -6094,-7682 -12132,-15724 -18071,-24081 -10346,-844 -20488,-1927 -30364,-3254 -13065,-1757 -25626,-3946 -37531,-6576 -1423,5723 -2651,11304 -3680,16716 -4665,24576 -5224,45867 -2250,62317 2701,14938 8107,25336 15718,29724 8019,4623 20744,3985 36249,-1647 16697,-6066 35859,-17799 55511,-34977 3201,-2798 6410,-5751 9621,-8850zm-92914 -188396c1247,3118 2534,6258 3864,9411 4490,-8689 9246,-17402 14261,-26096 5020,-8708 10190,-17195 15471,-25436 -3869,482 -7699,1001 -11483,1557 -11939,1757 -23408,3863 -34282,6295 3444,11121 7512,22587 12169,34269zm15267 34636c6469,13428 13652,27012 21507,40578 7855,13570 16109,26638 24616,39050 14805,956 30081,1423 45621,1423 15727,0 31184,-538 46162,-1601 8303,-12439 16385,-25489 24152,-38962 7840,-13593 15091,-27253 21659,-40788 -6630,-13394 -13915,-26929 -21736,-40439 -7778,-13437 -15902,-26408 -24259,-38745 -14896,-1133 -30277,-1726 -45978,-1726 -15625,0 -31000,587 -45919,1712 -8410,12317 -16582,25308 -24395,38849 -7772,13479 -14935,27097 -21430,40649zm62241 101988c2327,3065 4666,6078 7013,9037 7733,9746 15545,18876 23338,27284 7540,-8306 15054,-17334 22478,-26964 2387,-3095 4763,-6250 7124,-9462 -10040,454 -20208,684 -30450,684 -9921,0 -19772,-190 -29503,-579zm45377 51668c4252,4093 8479,7951 12662,11551 18964,16319 37126,27436 52855,33072 14281,5116 25997,5615 33619,1204 7997,-4631 13788,-15959 16648,-32184 3084,-17501 2489,-39977 -2585,-65608 -788,-3986 -1698,-8045 -2715,-12170 -13145,3034 -27128,5551 -41741,7541 -8654,1179 -17509,2171 -26521,2976 -5850,8473 -11789,16634 -17793,24418 -8033,10423 -16200,20202 -24429,29200zm104604 -84822c-3461,-10868 -7585,-22065 -12293,-33483 -1494,-3622 -3048,-7268 -4655,-10930 -4626,8920 -9513,17850 -14641,26742 -5054,8765 -10230,17351 -15505,25707 2814,-337 5609,-694 8376,-1071 13527,-1843 26495,-4167 38718,-6965zm-90553 -170853c-1734,-2313 -3478,-4595 -5224,-6846 -8076,-10400 -16257,-20112 -24452,-28990 -7965,8581 -15910,17873 -23740,27791 -2080,2634 -4153,5312 -6219,8034 9785,-460 19707,-695 29710,-695 10100,0 20089,241 29925,706zm-44713 -51174c-2529,-2412 -5052,-4740 -7566,-6973 -20265,-17995 -39926,-30436 -57025,-36941 -15588,-5928 -28335,-6758 -36405,-2087 -7592,4397 -12881,15024 -15449,30215 -2860,16943 -2084,38823 2809,63836 992,5063 2146,10245 3458,15531 11753,-2667 24120,-4963 36958,-6851 9845,-1446 19971,-2659 30314,-3617 5718,-8070 11529,-15837 17394,-23264 8441,-10692 16979,-20673 25512,-29849z"/>
 </g>
</svg>
