<?xml version="1.0" encoding="UTF-8"?>
<!DOCTYPE svg PUBLIC "-//W3C//DTD SVG 1.1//EN" "http://www.w3.org/Graphics/SVG/1.1/DTD/svg11.dtd">
<!-- Creator: CorelDRAW 2020 (64-Bit) -->
<svg xmlns="http://www.w3.org/2000/svg" xml:space="preserve" width="85px" height="75px" version="1.1" style="shape-rendering:geometricPrecision; text-rendering:geometricPrecision; image-rendering:optimizeQuality; fill-rule:evenodd; clip-rule:evenodd"
viewBox="0 0 8500000 7500000"
 xmlns:xlink="http://www.w3.org/1999/xlink"
 xmlns:xodm="http://www.corel.com/coreldraw/odm/2003">
 <defs>
  <style type="text/css">
   <![CDATA[
    .fil6 {fill:#6699FF}
    .fil0 {fill:url(#id0)}
    .fil4 {fill:url(#id1)}
    .fil2 {fill:url(#id2)}
    .fil5 {fill:url(#id3)}
    .fil1 {fill:url(#id4)}
    .fil3 {fill:url(#id5)}
   ]]>
  </style>
  <linearGradient id="id0" gradientUnits="userSpaceOnUse" x1="5171600" y1="2355400" x2="6967900" y2="4023600">
   <stop offset="0" style="stop-opacity:1; stop-color:#22C4FB"/>
   <stop offset="1" style="stop-opacity:1; stop-color:#00518A"/>
  </linearGradient>
  <linearGradient id="id1" gradientUnits="userSpaceOnUse" xlink:href="#id0" x1="2083400" y1="3157600" x2="3342400" y2="503300">
  </linearGradient>
  <linearGradient id="id2" gradientUnits="userSpaceOnUse" xlink:href="#id0" x1="4552000" y1="4786000" x2="2381600" y2="5248600">
  </linearGradient>
  <linearGradient id="id3" gradientUnits="userSpaceOnUse" x1="3298300" y1="1371900" x2="6441100" y2="1199600">
   <stop offset="0" style="stop-opacity:1; stop-color:#2BD5FF"/>
   <stop offset="1" style="stop-opacity:1; stop-color:#0081EB"/>
  </linearGradient>
  <linearGradient id="id4" gradientUnits="userSpaceOnUse" xlink:href="#id3" x1="5868800" y1="3712100" x2="4929900" y2="6210600">
  </linearGradient>
  <linearGradient id="id5" gradientUnits="userSpaceOnUse" xlink:href="#id3" x1="1542600" y1="5431400" x2="2839000" y2="2384200">
  </linearGradient>
 </defs>
 <g id="Layer_x0020_1">
  <metadata id="CorelCorpID_0Corel-Layer"/>
  <g id="_2209357818432">
   <g>
    <path class="fil0" d="M6959400 5097400c107100,-61800 173200,-176200 173200,-300000l0 -2928500c0,-123700 -66100,-238100 -173200,-300100l-1643800 -948900c449400,259400 529500,625900 550700,1266400l0 1446900c0,413600 -157800,827300 -473400,1142900 -102300,102200 -215100,187700 -334700,256900l633100 1096600 1268100 -732200z"/>
    <path class="fil1" d="M5120000 6159500l1839400 -1062100c107100,-61800 173200,-176200 173200,-300000l0 -1898100c0,519000 -277300,771600 -821400,1110200l-1253100 723400c-358100,206800 -795300,277000 -1226400,161500 -139800,-37400 -270200,-92400 -389800,-161400l-633200 1096600 571400 329800 0 -21300 0 -384400 0 -141700 869900 502300 870000 -502300 0 141700 0 384400 0 21400z"/>
    <path class="fil2" d="M1367400 4797400c0,123800 66100,238200 173300,300000l1839400 1062000 0 -21300 0 -384400 0 -141700 869900 502300 822300 -474800c-116500,-48300 -240900,-110200 -377400,-183200l-1253000 -723400c-358200,-206800 -637500,-550300 -753100,-981400 -37400,-139800 -55100,-280200 -55200,-418300l-1266200 0 0 1464200zm3752600 956300l0 384400 0 21400 947100 -546900c-326000,188200 -603600,180000 -947100,46100l0 95000z"/>
    <path class="fil3" d="M1540700 1568800c-107200,62000 -173300,176400 -173300,300100l0 2928500c0,123800 66100,238200 173300,300000l1643800 949100c-449400,-259400 -529600,-625900 -550800,-1266500l0 -1446800c0,-413700 157800,-827300 473400,-1142900 102400,-102400 215100,-187800 334800,-257000l-633200 -1096500 -1268000 732000z"/>
    <path class="fil4" d="M4423300 104700c-107300,-61900 -239300,-61900 -346500,0l-2536100 1464100c-107200,62000 -173300,176400 -173300,300100l0 1898100c100,-518900 277400,-771500 821500,-1110100l1253000 -723500c358200,-206800 795300,-277000 1226400,-161400 139800,37400 270300,92400 389900,161300l257400 -1313400 -892300 -515200z"/>
    <path class="fil5" d="M5811300 2914800c37100,138800 54700,278100 55000,415300l0 -1443800c-21200,-640500 -101300,-1007000 -550700,-1266400l-892300 -515200c-107300,-61900 -239300,-61900 -346500,0l-1643800 949000c449400,-259400 806800,-145600 1372200,156300l1252900 723400c358300,206900 637600,550300 753200,981400z"/>
   </g>
   <path class="fil6" d="M987500 5225200c82200,-800 149400,65100 150200,147300 100,14300 -1700,28200 -5400,41400l1561100 908500c26700,-26900 42800,-43500 104300,-44100 61500,-600 149400,65200 150200,147400 800,82100 -65200,149400 -147300,150200 -82200,800 -149800,-99200 -150200,-147400 -500,-48200 1800,-28200 5400,-41300l-1561100 -908600c-26700,26800 -63500,43700 -104400,44000 -82100,800 -149300,-65100 -150100,-147300 -800,-82100 65200,-149400 147300,-150100zm1096900 -4847700c76900,0 139200,62300 139200,139200 0,76800 -62300,139100 -139200,139100 -43900,0 -83000,-20300 -108500,-52100 -143000,103100 -269000,187500 -379300,261400 -451600,302600 -633700,424600 -632700,939000l2000 1062700c60000,15400 104400,69900 104400,134800 0,63300 -42300,116700 -100100,133600l0 1086300c57200,15400 99200,67700 99200,129700 0,74200 -60000,134300 -134300,134300 -74100,0 -134300,-60100 -134300,-134300 0,-62000 42100,-114300 99200,-129700l0 -674200 -520800 413800 325000 258300 -12900 16200 12200 0 0 505900c57200,15400 99200,67600 99200,129600 0,74200 -60100,134300 -134200,134300 -74200,0 -134400,-60100 -134400,-134300 0,-62000 42100,-114200 99300,-129600l0 -489000 -310500 -246600 -84200 66800 0 500400c57300,15400 99300,67600 99300,129700 0,74100 -60100,134300 -134300,134300 -74200,0 -134300,-60200 -134300,-134300 0,-62100 42100,-114300 99200,-129700l0 -527700 17600 0 -9900 -12500 723700 -575000 0 -320700c-61800,-14100 -108000,-69500 -108000,-135600 0,-64700 44200,-119100 103900,-134700l-1900 -1062800c-1000,-551700 190000,-679700 663700,-997200 112900,-75600 242300,-162300 389200,-268500 -1100,-7100 -1600,-14400 -1600,-21700 0,-76900 62300,-139200 139100,-139200zm-806400 5636300c82100,-800 149400,65200 150100,147400 200,14300 -1700,28100 -5400,41300l1119200 666500c26600,-26900 42800,-43500 104300,-44100 61500,-600 149400,65200 150200,147400 700,82100 -65200,149300 -147400,150100 -82100,800 -149700,-99100 -150200,-147300 -400,-48200 1800,-28200 5500,-41400l-1119200 -666500c-26600,26900 -63500,43700 -104300,44100 -82200,800 -149400,-65200 -150200,-147300 -800,-82200 65200,-149400 147400,-150200zm6234500 -788600c-82200,-800 -149400,65100 -150200,147300 -100,14300 1700,28200 5400,41400l-1561100 908500c-26700,-26900 -42800,-43500 -104300,-44100 -61500,-600 -149400,65200 -150200,147400 -800,82100 65200,149400 147300,150200 82200,800 149800,-99200 150200,-147400 500,-48200 -1800,-28200 -5400,-41300l1561100 -908600c26700,26800 63500,43700 104400,44000 82100,800 149300,-65100 150100,-147300 800,-82100 -65200,-149400 -147300,-150100zm-1096900 -4847700c-76900,0 -139200,62300 -139200,139200 0,76800 62300,139100 139200,139100 43900,0 83000,-20300 108500,-52100 143000,103100 269000,187500 379300,261400 451600,302600 633700,424600 632700,939000l-2000 1062700c-60000,15400 -104400,69900 -104400,134800 0,63300 42300,116700 100100,133600l0 1086300c-57200,15400 -99200,67700 -99200,129700 0,74200 60000,134300 134300,134300 74100,0 134300,-60100 134300,-134300 0,-62000 -42100,-114300 -99200,-129700l0 -674200 520800 413800 -325000 258300 12900 16200 -12200 0 0 505900c-57200,15400 -99200,67600 -99200,129600 0,74200 60100,134300 134200,134300 74200,0 134400,-60100 134400,-134300 0,-62000 -42100,-114200 -99300,-129600l0 -489000 310500 -246600 84200 66800 0 500400c-57300,15400 -99300,67600 -99300,129700 0,74100 60100,134300 134300,134300 74200,0 134300,-60200 134300,-134300 0,-62100 -42100,-114300 -99200,-129700l0 -527700 -17600 0 9900 -12500 -723700 -575000 0 -320700c61800,-14100 108000,-69500 108000,-135600 0,-64700 -44200,-119100 -103900,-134700l1900 -1062800c1000,-551700 -190000,-679700 -663700,-997200 -112900,-75600 -242300,-162300 -389200,-268500 1100,-7100 1600,-14400 1600,-21700 0,-76900 -62300,-139200 -139100,-139200zm806400 5636300c-82100,-800 -149400,65200 -150100,147400 -200,14300 1700,28100 5400,41300l-1119200 666500c-26600,-26900 -42800,-43500 -104300,-44100 -61500,-600 -149400,65200 -150200,147400 -700,82100 65200,149300 147400,150100 82100,800 149700,-99100 150200,-147300 400,-48200 -1800,-28200 -5500,-41400l1119200 -666500c26600,26900 63500,43700 104300,44100 82200,800 149400,-65200 150200,-147300 800,-82200 -65200,-149400 -147400,-150200zm-2972000 1282600l-186500 -107700 0 -567500 -376700 -217400 0 -340700 563200 325200 563200 -325200 0 340700 -376600 217400 0 567500 -186600 107700zm-971100 -902200l583900 337100 0 341100 -583900 -337100 0 -341100zm1942300 0l-584000 337100 0 341100 584000 -337100 0 -341100z"/>
  </g>
 </g>
</svg>
