<?xml version="1.0" encoding="UTF-8"?>
<!DOCTYPE svg PUBLIC "-//W3C//DTD SVG 1.1//EN" "http://www.w3.org/Graphics/SVG/1.1/DTD/svg11.dtd">
<!-- Creator: CorelDRAW 2020 (64-Bit) -->
<svg xmlns="http://www.w3.org/2000/svg" xml:space="preserve" width="85px" height="75px" version="1.1" style="shape-rendering:geometricPrecision; text-rendering:geometricPrecision; image-rendering:optimizeQuality; fill-rule:evenodd; clip-rule:evenodd"
viewBox="0 0 8500000 7500000"
 xmlns:xlink="http://www.w3.org/1999/xlink"
 xmlns:xodm="http://www.corel.com/coreldraw/odm/2003">
 <defs>
  <style type="text/css">
   <![CDATA[
    .fil4 {fill:#6699FF;fill-rule:nonzero}
    .fil3 {fill:#6699FF;fill-rule:nonzero}
    .fil2 {fill:url(#id0)}
    .fil1 {fill:url(#id1)}
    .fil0 {fill:url(#id2)}
   ]]>
  </style>
  <linearGradient id="id0" gradientUnits="userSpaceOnUse" x1="4189800" y1="4644100" x2="4264500" y2="27000">
   <stop offset="0" style="stop-opacity:1; stop-color:#2BD5FF"/>
   <stop offset="1" style="stop-opacity:1; stop-color:#0081EB"/>
  </linearGradient>
  <linearGradient id="id1" gradientUnits="userSpaceOnUse" x1="427000" y1="4860700" x2="3551300" y2="3191600">
   <stop offset="0" style="stop-opacity:1; stop-color:#22C4FB"/>
   <stop offset="1" style="stop-opacity:1; stop-color:#00518A"/>
  </linearGradient>
  <linearGradient id="id2" gradientUnits="userSpaceOnUse" xlink:href="#id1" x1="8269100" y1="5350800" x2="4936200" y2="2312000">
  </linearGradient>
 </defs>
 <g id="Layer_x0020_1">
  <metadata id="CorelCorpID_0Corel-Layer"/>
  <path class="fil0" d="M8461500 4180300c-876900,-312200 -1678200,-867900 -2292000,-1654600 -304700,-390300 -547400,-816000 -725400,-1269500 -180300,376700 -448300,1069200 -497000,1936200 -35000,621900 127300,1164400 309900,1565700 946200,869200 1994600,1428000 3196600,1703500 -9400,-129300 11000,-1808500 7900,-2281300z"/>
  <path class="fil1" d="M38500 4180300c876900,-312200 1678200,-867900 2292100,-1654600 304600,-390300 547400,-816000 725300,-1269500 180400,376700 448400,1069200 497100,1936200 34900,621900 -127400,1164400 -309900,1565700 -946200,869200 -1994600,1428000 -3196600,1703500 9500,-129300 -11200,-1808500 -8000,-2281300z"/>
  <path class="fil2" d="M4948600 3191600c48800,-866900 316700,-1559400 497200,-1936100 -38900,-98900 -73500,-199600 -106200,-301000 -63100,-408500 -354500,-764100 -777600,-886700 -91400,-26400 -183400,-39100 -274200,-41700 -12600,-500 -25100,-1100 -37800,-1100 -12600,0 -25100,600 -37700,1100 -90900,2600 -182800,15300 -274300,41700 -423100,122600 -714500,478200 -777600,886700 -32600,101400 -67300,202100 -106100,301000 180400,376700 448300,1069200 497000,1936100 35000,621900 -127300,1164500 -309800,1565700 291200,-267400 564500,-561900 815700,-883700 66400,-85200 130400,-171800 192800,-259500 62400,87700 126300,174300 192900,259500 251100,321800 524500,616300 815700,883700 -182600,-401200 -344900,-943800 -310000,-1565700z"/>
  <path class="fil3" d="M417000 7104900c428000,-84700 1218200,-292500 2001900,-766300 379500,-229500 688900,-453200 937000,-655200l-77100 -44500 0 -341100 315500 182100c54000,-48300 104000,-94900 150200,-139200l-57700 -33300 0 -340700 271000 156500c61700,-66900 110900,-124500 148500,-170900 -29800,-32600 -48000,-76000 -48000,-123700 0,-101400 82300,-183700 183700,-183700 101400,0 183700,82300 183700,183700 0,47000 -17700,89900 -46800,122400 39700,48400 91200,108000 155300,176800l279000 -161100 0 340700 -64300 37100c46500,44300 96700,90700 150900,138800l321300 -185500 0 341100 -81800 47300c244700,197700 547600,415500 916900,638800 783800,473900 1573900,681600 2001900,766300 27600,-66600 93200,-113500 169800,-113500 101400,0 183700,82200 183700,183600 0,101500 -82300,183700 -183700,183700 -101400,0 -183700,-82200 -183700,-183700l100 -2400c-434200,-86000 -1232800,-296300 -2023900,-774600 -382300,-231100 -694500,-456900 -945200,-661200l-438000 252900 0 -341200 199600 -115200c-53900,-48300 -103900,-94800 -150200,-139200l-250100 144400 0 567400 -186500 107700 -186600 -107700 0 -567400 -256800 -148300c-46000,44500 -95700,91100 -149400,139600l205600 118700 0 341200 -442900 -255800c-254000,208600 -572600,440400 -965100,677700 -791100,478300 -1589700,688600 -2024000,774600l100 2400c0,101400 -82300,183700 -183700,183700 -101400,0 -183600,-82300 -183600,-183700 0,-101500 82200,-183600 183600,-183600 76600,0 142200,46800 169800,113500zm4055900 -1941700c-61000,-65900 -110400,-123200 -149000,-170200 -24600,12300 -52400,19200 -81900,19200 -28800,0 -56100,-6600 -80300,-18500 -36700,45100 -83900,100600 -142700,164900l231000 133300 222900 -128700zm1890800 -3183600c175700,282400 380700,518300 621700,730600 245600,216200 528600,408300 855900,600200 35300,-36600 88900,-53300 141500,-39100 76800,20800 122200,99900 101400,176700 -20900,76800 -100000,122200 -176800,101400 -76800,-20800 -122100,-99900 -101400,-176700l700 -2300c-331500,-194300 -618100,-388800 -867100,-608100 -246300,-216900 -455900,-458200 -635600,-747400 -24900,7500 -52200,8400 -79300,1100 -76700,-20800 -122100,-99800 -101400,-176700 20800,-76700 100000,-122200 176800,-101400 76800,20800 122200,99900 101400,176700 -6900,25600 -20300,47700 -37800,65000zm-4091000 -241700c76900,-20800 156000,24700 176800,101400 20700,76900 -24600,155900 -101500,176700 -27000,7300 -54300,6400 -79200,-1100 -179700,289200 -389300,530500 -635600,747400 -248900,219300 -535600,413800 -867100,608100l700 2300c20800,76800 -24600,155900 -101400,176700 -76800,20800 -155900,-24600 -176800,-101400 -20800,-76800 24700,-155900 101400,-176700 52600,-14200 106200,2500 141500,39100 327300,-191900 610300,-384000 855900,-600200 241100,-212300 446100,-448200 621800,-730600 -17600,-17300 -31000,-39400 -37900,-65000 -20800,-76800 24700,-155900 101400,-176700zm2527500 4255800c-79200,-6100 -148600,53200 -154700,132500 -6200,79300 53100,148700 132500,154800 27900,2100 54600,-3800 77700,-15900 230200,250700 481000,448800 763400,616200 285700,169200 603500,307100 965200,436300l-300 2300c-6100,79200 53200,148600 132500,154700 79300,6200 148700,-53100 154800,-132400 6100,-79500 -53200,-148700 -132500,-154900 -54300,-4200 -103900,22300 -131700,64800 -357500,-127800 -671300,-263800 -952700,-430500 -276200,-163800 -521500,-357400 -746700,-602300 14000,-20300 23000,-44500 25100,-70800 6100,-79300 -53200,-148600 -132600,-154800zm-1151800 0c79400,-6100 148700,53200 154800,132500 6200,79300 -53100,148700 -132500,154800 -27900,2100 -54500,-3800 -77600,-15900 -230300,250700 -481100,448800 -763500,616200 -285700,169200 -603400,307100 -965100,436300l200 2300c6200,79200 -53100,148600 -132400,154700 -79400,6200 -148700,-53100 -154800,-132400 -6200,-79500 53100,-148700 132400,-154900 54300,-4200 103900,22300 131700,64800 357600,-127700 671400,-263800 952700,-430500 276200,-163800 521500,-357500 746800,-602400 -14100,-20200 -23100,-44400 -25200,-70700 -6100,-79300 53300,-148600 132500,-154800z"/>
  <path class="fil4" d="M1676000 1404700l-599600 476300 -8000 13100 0 553000c-59900,16200 -104000,70900 -104000,135900 0,77700 63000,140700 140700,140700 77800,0 140800,-63000 140800,-140700 0,-65000 -44000,-119700 -104000,-135900l0 -524300 88200 -70100 325300 258500 0 512400c-59900,16200 -104000,70900 -104000,135900 0,77700 63100,140700 140800,140700 77700,0 140700,-63000 140700,-140700 0,-65000 -44000,-119700 -103900,-135900l0 -530200 700 -17000 -340600 -270600 435000 -340300c24200,17700 54000,28300 86300,28300 80500,0 145900,-65300 145900,-145900 0,-80500 -65400,-145800 -145900,-145800 -80500,0 -145800,65300 -145800,145800 0,20200 4000,39400 11400,56800z"/>
  <path class="fil4" d="M6944900 1404700l599600 476300 8000 13100 0 553000c59900,16200 104000,70900 104000,135900 0,77700 -63100,140700 -140800,140700 -77800,0 -140800,-63000 -140800,-140700 0,-65000 44100,-119700 104100,-135900l0 -524300 -88200 -70100 -325400 258500 0 512400c59900,16200 104000,70900 104000,135900 0,77700 -63000,140700 -140800,140700 -77700,0 -140600,-63000 -140600,-140700 0,-65000 44000,-119700 103900,-135900l0 -530200 -800 -17000 340700 -270600 -435100 -340300c-24100,17700 -54000,28300 -86300,28300 -80500,0 -145800,-65300 -145800,-145900 0,-80500 65300,-145800 145800,-145800 80600,0 145900,65300 145900,145800 0,20200 -4100,39400 -11400,56800z"/>
 </g>
</svg>
