<?xml version="1.0" encoding="UTF-8"?>
<!DOCTYPE svg PUBLIC "-//W3C//DTD SVG 1.1//EN" "http://www.w3.org/Graphics/SVG/1.1/DTD/svg11.dtd">
<!-- Creator: CorelDRAW 2020 (64-Bit) -->
<svg xmlns="http://www.w3.org/2000/svg" xml:space="preserve" width="156px" height="139px" version="1.1" style="shape-rendering:geometricPrecision; text-rendering:geometricPrecision; image-rendering:optimizeQuality; fill-rule:evenodd; clip-rule:evenodd"
viewBox="0 0 15600000 13900000"
 xmlns:xlink="http://www.w3.org/1999/xlink"
 xmlns:xodm="http://www.corel.com/coreldraw/odm/2003"
 xmlns:svg="http://www.w3.org/2000/svg">
 <defs>
  <style type="text/css">
   <![CDATA[
    .fil0 {fill:url(#id0)}
   ]]>
  </style>
  <linearGradient id="id0" gradientUnits="userSpaceOnUse" x1="7512000" y1="12141800" x2="7512100" y2="2079300">
   <stop offset="0" style="stop-opacity:1; stop-color:#3296FA"/>
   <stop offset="1" style="stop-opacity:1; stop-color:#0AAEE2"/>
  </linearGradient>
 </defs>
 <g id="Layer_x0020_1">
  <metadata id="CorelCorpID_0Corel-Layer"/>
  <path class="fil0" d="M14780400 6189700c-52600,0 -103800,5400 -153500,15400l-2793200 -4838100c142200,-140700 230600,-335900 230600,-551800 0,-428600 -347500,-776000 -776100,-776000 -382000,0 -698800,276200 -763300,639700l-5520500 0c-64600,-363500 -381400,-639700 -763400,-639700 -428500,0 -776000,347400 -776000,776000 0,242600 111500,459100 285900,601400l-2766100 4791100c-53300,-11500 -108400,-18000 -165100,-18000 -428600,0 -776000,347500 -776000,776100 0,428600 347400,776000 776000,776000 56700,0 111800,-6400 165000,-18000l2754000 4770100c-167200,142300 -273700,354100 -273700,590900 0,428600 347500,776000 776000,776000 370900,0 680600,-260400 757300,-608100l2451900 0c63200,133900 198500,227200 356400,227200 157900,0 293200,-93300 356400,-227200l2367900 0c76800,347700 386400,608100 757300,608100 428600,0 776100,-347400 776100,-776000 0,-210000 -83800,-400200 -219300,-539900l2781900 -4818400c49700,9900 100900,15300 153500,15300 428600,0 776000,-347400 776000,-776000 0,-428600 -347400,-776100 -776000,-776100zm-6980400 -1363100l-168500 -97300 0 -512600 -340300 -196500 0 -307700 508800 293800 508800 -293800 0 307700 -340300 196500 0 512600 -168500 97300zm-877400 -815000l527600 304600 0 308100 -527600 -304600 0 -308100zm1754700 0l-527500 304600 0 308100 527500 -304600 0 -308100zm-877300 5908200l-898500 -518800 0 -741700 -693800 1201600 0 0c41300,41500 66800,98600 66800,161800 0,16600 -1900,32700 -5300,48300l1537400 887600 1674500 -966800 -782600 -1355400 0 764600 -898500 518800zm-898500 -1512200l0 -1378900 -1260200 0 293900 169700 0 1642800 -1586500 -916000 0 1037000 0 0 1542700 890600c40700,-36800 94100,-59800 153400,-59800 18300,0 35900,2700 53000,6700l803700 -1392100zm0 -1504800l0 -234600 -1814100 -1047400 0 -1077900 -738700 426500 0 1313000 1074600 620400 1478200 0zm-1814100 -2505200l0 -417400 361500 208700 511300 -295200 -1375900 -2383300c-72900,36000 -152000,60800 -235600,72500l0 0 0 3241200 738700 -426500zm487300 -136000l897000 517800 -448500 -776700 0 0 -448500 258900zm1114900 643700l1110400 641100 1130200 -652500 377000 -653000c-91700,-72400 -151600,-183200 -151600,-309000 0,-57200 12600,-111100 34400,-160100l-1230100 -710200c-40700,36700 -94100,59700 -153300,59700 -59200,0 -112600,-23000 -153300,-59700l0 0 -1521100 878100 557400 965600zm2458400 -137200l883900 -510300 -162800 -94000c-71800,98500 -187300,163200 -318400,163200l0 0c-47200,0 -91800,-9700 -133700,-24800l-269000 465900zm1009800 -583000l354800 -204900 0 409800 751800 434100 0 -3234100 0 0c-88800,-2700 -173600,-20200 -252500,-50300l-1207600 2091600c85800,72500 141400,179500 141400,300600 0,41800 -8200,81300 -20300,119100l232400 134100zm354800 350300l0 1085400 -1814100 1047400 0 234600 1478100 0 1087800 -628000 0 -1305400 -751800 -434000zm-1814100 2493300l0 1356200 891500 1544000 1354000 -781700c-16500,-43600 -26600,-90300 -26600,-139700l0 0c0,-201700 151700,-366300 347000,-390200l0 -699700 -1599700 923600 0 -1642800 293900 -169700 -1260100 0zm2691800 -1986600l0 0 1004600 580000 -1004600 580000 0 -1160000zm1086900 627500l1617200 933700c-48000,90700 -78200,192000 -86900,299500l-1530300 0 0 -1233200zm1530300 1359100l0 0c8700,107500 38900,208900 86900,299600l-2477500 1430400c-56700,-69500 -135400,-120200 -226600,-138400l0 -775400 1086900 -627500 0 -188700 1530300 0zm-3109400 -5543400l0 0 -1201000 2080300c-45400,-18200 -94600,-28800 -146400,-28800 -115700,0 -218800,50600 -291100,129800l-1233100 -712000c5700,-20100 9800,-41000 9800,-63000 0,-16600 -1900,-32600 -5200,-48200l2658200 -1534700c58300,70600 129300,130200 208800,176600zm-5919700 -428900l0 0 5572500 0c17100,52100 39700,101600 66800,148300l-2646000 1527700c-41800,-43300 -100200,-70500 -165100,-70500 -64900,0 -123300,27200 -165100,70500l-2709800 -1564500c18300,-35700 34000,-72900 46700,-111500zm-113100 218500l0 0 2716800 1568500c-3300,15600 -5200,31600 -5200,48200 0,22000 4100,42900 9800,63000l-1517500 876200 -1376900 -2385000c66300,-47600 124600,-105300 173000,-170900zm-1742500 5627900l-1530300 0c-8400,-105200 -37700,-204400 -84000,-293600l1614300 -932000 0 1225600zm88900 -1276900l1011200 -583800 0 1167600 -1011200 -583800zm882600 -4049000l0 0c41800,8000 84700,12400 128600,13400l0 3306400 -2781600 1605900c-34600,-46300 -73900,-88900 -117900,-126400l2770900 -4799300zm128600 10732800l0 0c-49600,1200 -98100,6600 -145000,16600l-2754500 -4770900c44000,-37600 83300,-80100 117900,-126500l2781600 1605900 0 3274900zm-2714400 -4987300l0 0c46300,-89300 75600,-188500 84000,-293700l1530300 0 0 188700 1100100 635200 0 1036900 -2714400 -1567100zm2840200 4994800l0 0 0 -3209700 1476200 852300c-5800,20100 -9800,40900 -9800,62900 0,61100 24200,116200 63100,157400l-1279700 2216300c-76700,-39800 -160800,-66900 -249800,-79200zm356300 146600l0 0 1281600 -2219800c18600,4900 37900,8400 58200,8400 64900,0 123200,-27200 165000,-70400l1471000 849200 -2799000 1616000c-48400,-70600 -108400,-132200 -176800,-183400zm5836700 411300l0 0 -2401400 0c-70000,-111000 -192800,-185400 -333700,-185400 -140900,0 -263800,74400 -333700,185400l-2485300 0c-11500,-41000 -26300,-80400 -44100,-118400l2863100 -1652900 2797400 1615100c-26400,49100 -47000,101500 -62300,156200zm131100 -261700l0 0 -2740400 -1582200 1611500 -930400 1340800 2322100c-82000,50100 -153700,114600 -211900,190500zm324100 -247600l0 0 -1344000 -2327900 1354500 -782100c62900,77100 153300,129200 257000,142000l0 2912200c-94300,2900 -184500,22200 -267500,55800zm527200 -20200l0 0c-43000,-13800 -87900,-23300 -133800,-29300l0 -2921600c180800,-36100 317200,-195600 317200,-387200 0,-49600 -10200,-96600 -26900,-140300l2482100 -1433000c36000,47400 76700,91000 122500,129000l-2761100 4782400zm2638600 -5848200l0 0 -2772400 -1600700 0 -3313000c40400,-5300 80000,-13400 118200,-24700l2776700 4809400c-45800,37900 -86500,81600 -122500,129000z"/>
 </g>
</svg>
