<?xml version="1.0" encoding="UTF-8"?>
<!DOCTYPE svg PUBLIC "-//W3C//DTD SVG 1.1//EN" "http://www.w3.org/Graphics/SVG/1.1/DTD/svg11.dtd">
<!-- Creator: CorelDRAW X8 -->
<svg xmlns="http://www.w3.org/2000/svg" xml:space="preserve" width="60px" height="60px" version="1.1" style="shape-rendering:geometricPrecision; text-rendering:geometricPrecision; image-rendering:optimizeQuality; fill-rule:evenodd; clip-rule:evenodd"
viewBox="0 0 600000 600000"
 xmlns:xlink="http://www.w3.org/1999/xlink">
 <defs>
  <style type="text/css">
   <![CDATA[
    .fil0 {fill:#fff}
   ]]>
  </style>
 </defs>
 <g id="Layer_x0020_1">
  <metadata id="CorelCorpID_0Corel-Layer"/>
  <path class="fil0" d="M207108 138564c0,-6758 12223,-3992 30603,-3992 6137,0 18278,26666 21855,32695 4896,8252 31097,53561 32698,60444l2662 0c1052,-4510 3489,-8754 5885,-12745l40104 -71663c6435,-11200 1684,-8731 35176,-8731 12447,0 -10069,29733 -19511,48348l-24752 44215c-842,3833 21135,39989 23397,44059 4430,7980 7682,14468 12316,22281 20203,34064 17703,28706 -16730,28706 -7509,0 -9261,-7441 -16410,-20846 -6568,-12314 -37834,-65245 -39475,-72295l-2662 0c-1539,6611 -40578,74166 -45641,83424 -6893,12603 -3585,9717 -35523,9717 -10897,0 3381,-19772 8053,-27873l24763 -44425c16691,-32904 16991,-8257 -12863,-66073 -3096,-5989 -23945,-41748 -23945,-45246zm-117088 86485c0,8909 -524,12115 4025,19925 16935,29061 77556,137421 87010,151160 4269,6203 13521,13865 23392,13865l178297 0c19737,0 28173,-22550 36487,-36695l39810 -69296c4544,-8339 9116,-15094 13726,-23530 5193,-9508 24406,-38350 24406,-48776 0,-8909 524,-12113 -4028,-19922 -2186,-3753 -4456,-7733 -6874,-11755 -4794,-7977 -8961,-15429 -13504,-23749l-66632 -115657c-4269,-6205 -13521,-13864 -23391,-13864l-178297 0c-19738,0 -28171,22549 -36485,36692 -9323,15857 -17431,30503 -26816,46369 -4734,8005 -8569,14802 -12997,22927 -4544,8339 -9113,15094 -13722,23533 -5194,9507 -24407,38350 -24407,48773z"/>
  <g id="_2348611413360">
   <path class="fil0" d="M216009 482282l0 -10978 -17076 0 0 71963c0,1406 425,1831 1831,1831l15245 0 0 -40252c0,-9297 3935,-21345 14026,-21345l3660 0c9805,0 12197,11180 12197,21345l0 40252 16467 0c0,-11593 -1565,-44402 2735,-52764 4669,-9079 9102,-8833 15559,-8833 9139,0 11589,10511 11589,18298l0 43299 17076 0 0 -46958c0,-14179 -6200,-28665 -21345,-28665 -10401,0 -19248,1730 -25470,11121 -998,1508 -669,1786 -2585,2296 -1505,-6472 -10250,-13417 -18295,-13417 -7466,0 -10502,122 -16832,3901 -2021,1208 -3132,2234 -4680,3861 -1091,1145 -964,1054 -1925,2341l-2177 2704z"/>
   <path class="fil0" d="M72695 498140c0,1295 -12014,19819 -14284,23524l-10840 17215c-1137,1758 -3005,4210 -3540,6219l20735 0 19517 -35983 9028 17805c1321,2168 8884,16540 9267,18178l20735 0c-638,-2738 -16577,-28644 -20095,-34792l-6908 -11911c-346,-1622 5108,-9814 6075,-11427l13575 -23014c1480,-2475 6168,-9701 6744,-12164l-19517 0 -17685 34761 -17076 -34761 -21345 0 12838 23142c1536,2670 12776,21626 12776,23208z"/>
   <path class="fil0" d="M153806 533510c-14165,0 -14117,-13002 -10401,-17716 4255,-5400 18698,-4774 26867,-6679 0,9219 -130,17048 -8391,22105 -1604,981 -5794,2290 -8075,2290zm-21955 -57937l0 15247c10066,-6740 14823,-7928 26833,-7928 7812,0 11588,6746 11588,14638 -2954,0 -4725,451 -7659,879 -16030,2333 -38081,1845 -38081,26563 0,23664 28933,27593 41647,14814 1851,-1859 1896,-2976 4093,-4447l0 9759 16464 0 0 -48180c0,-16027 -9411,-27443 -25002,-27443 -9079,0 -15863,494 -24318,3737 -1979,756 -3337,1842 -5565,2361z"/>
   <path class="fil0" d="M347738 533510c-14544,0 -17747,-18867 -1666,-21792 6080,-1106 12509,-1293 18133,-2603 0,9686 238,16821 -8391,22105 -1604,981 -5794,2290 -8076,2290zm-21954 -57937l0 15247c3444,-1822 5426,-3526 9488,-5147 10805,-4320 28933,-6786 28933,11857l-25750 3521c-23392,5298 -21952,27870 -16688,35867 8465,12860 28259,12994 38339,2860 1704,-1712 2409,-3308 4099,-4439l0 9759 16466 0 0 -50009c0,-15037 -10683,-25614 -25004,-25614 -21302,0 -21110,4054 -29883,6098z"/>
   <path class="fil0" d="M491662 482282l0 -10978 -17076 0 0 73794 17076 0 0 -43299c0,-8654 6804,-18298 15248,-18298 4754,0 10497,-379 13850,6276 1616,3215 2616,7988 2616,12632l0 42689 17076 0 0 -45130c0,-14953 -5629,-30493 -21954,-30493 -7245,0 -12019,-192 -18303,4264 -1432,1015 -3532,2452 -4709,3829 -1338,1571 -2310,3606 -3824,4714z"/>
   <path class="fil0" d="M410552 484723l0 -13419 -17074 0 0 73794 17074 0 0 -37202c0,-10528 4447,-22563 14638,-22563 8796,0 4660,357 10975,1828l0 -16467c-6083,-1417 -11746,-1122 -16458,1837 -6545,4113 -7560,10355 -9155,12192z"/>
   <polygon class="fil0" points="444094,545098 461170,545098 461170,471304 444094,471304 "/>
   <path class="fil0" d="M451413 454840c16356,0 14352,-19516 1219,-19516 -5630,0 -9882,4280 -10219,9263 -363,5375 4470,10253 9000,10253z"/>
  </g>
 </g>
</svg>
