<?xml version="1.0" encoding="UTF-8"?>
<!DOCTYPE svg PUBLIC "-//W3C//DTD SVG 1.1//EN" "http://www.w3.org/Graphics/SVG/1.1/DTD/svg11.dtd">
<!-- Creator: CorelDRAW X8 -->
<svg xmlns="http://www.w3.org/2000/svg" xml:space="preserve" width="60px" height="60px" version="1.1" style="shape-rendering:geometricPrecision; text-rendering:geometricPrecision; image-rendering:optimizeQuality; fill-rule:evenodd; clip-rule:evenodd"
viewBox="0 0 600000 600000"
 xmlns:xlink="http://www.w3.org/1999/xlink">
 <defs>
  <style type="text/css">
   <![CDATA[
    .fil0 {fill:#fff}
   ]]>
  </style>
 </defs>
 <g id="Layer_x0020_1">
  <metadata id="CorelCorpID_0Corel-Layer"/>
  <path class="fil0" d="M299266 56478l-229148 80640 36207 300230 193182 106172 194176 -107615 36205 -300210 -230622 -79217zm-60962 284517l-28415 71062 -52841 975 141679 -315180 0 -5 6 5 0 9 148196 316115 -50551 -930 -31104 -72051c-42390,-37 -84589,0 -126970,0zm60429 -242488l0 101294 -41794 99142c89623,0 -8756,73 90017,73l-47849 -100108 -374 -100401zm0 -655l0 -5 0 5z"/>
 </g>
</svg>
