<?xml version="1.0" encoding="UTF-8"?>
<!DOCTYPE svg PUBLIC "-//W3C//DTD SVG 1.1//EN" "http://www.w3.org/Graphics/SVG/1.1/DTD/svg11.dtd">
<!-- Creator: CorelDRAW X8 -->
<svg xmlns="http://www.w3.org/2000/svg" xml:space="preserve" width="60px" height="60px" version="1.1" style="shape-rendering:geometricPrecision; text-rendering:geometricPrecision; image-rendering:optimizeQuality; fill-rule:evenodd; clip-rule:evenodd"
viewBox="0 0 600000 600000"
 xmlns:xlink="http://www.w3.org/1999/xlink">
 <defs>
  <style type="text/css">
   <![CDATA[
    .fil0 {fill:#fff;fill-rule:nonzero}
   ]]>
  </style>
 </defs>
 <g id="Layer_x0020_1">
  <metadata id="CorelCorpID_0Corel-Layer"/>
  <path class="fil0" d="M187612 169045l-9 17 27947 177126 48050 0 -3926 -41142 24656 0 3141 41142 100653 0 3138 -41142 24497 0 -3923 41142 48362 0 27638 -177126 -12 -17 -68655 -109821 -163228 0 -68329 109821zm-167886 151566l-11197 29168 5270 0 2738 -7721 11645 0 2738 7721 5474 0 -11234 -29168 -5434 0zm-1797 17566l0 0 4411 -12540 122 0 4374 12540 -8907 0 0 0zm21283 -17566l0 29168 5105 0 0 -11197 7764 0c2041,0 3716,-283 5066,-856 1267,-569 2287,-1346 3021,-2245 695,-859 1185,-1839 1432,-2902 244,-1060 366,-2002 405,-2940 0,-901 -161,-1882 -405,-2939 -247,-1063 -737,-2047 -1432,-2946 -734,-895 -1715,-1635 -3021,-2247 -1310,-570 -3025,-896 -5066,-896l-12869 0zm5105 13807l0 0 0 -9643 7557 0c658,0 1310,82 1922,204 573,167 1103,411 1593,780 451,368 817,856 1106,1468 243,655 365,1431 405,2372 0,936 -162,1715 -488,2328 -328,612 -737,1102 -1227,1468 -490,369 -1063,612 -1636,780 -612,161 -1184,243 -1757,243l-7475 0zm26955 -13807l-11197 29168 5272 0 2739 -7721 11641 0 2739 7721 5473 0 -11233 -29168 -5434 0 0 0zm-1797 17566l0 0 4410 -12540 122 0 4374 12540 -8906 0zm40974 -8294l5106 0c-162,-1553 -613,-2982 -1265,-4207 -694,-1227 -1595,-2248 -2698,-3106 -1103,-857 -2370,-1509 -3801,-1959 -1469,-451 -2980,-698 -4615,-698 -2206,0 -4167,409 -5882,1228 -1715,816 -3186,1919 -4371,3308 -1228,1389 -2126,3024 -2778,4861 -655,1880 -938,3841 -938,5885 0,2123 283,4085 938,5924 652,1877 1550,3470 2778,4862 1185,1389 2656,2492 4371,3308 1715,816 3676,1185 5882,1185 1757,0 3390,-286 4861,-859 1471,-570 2738,-1347 3838,-2409 1063,-1063 1922,-2288 2577,-3759 652,-1429 1020,-3022 1142,-4779l-4983 0c-122,1063 -366,2080 -694,2982 -369,941 -856,1757 -1469,2449 -657,697 -1392,1230 -2248,1635 -898,409 -1879,573 -3024,573 -1551,0 -2900,-286 -4045,-938 -1143,-615 -2041,-1432 -2736,-2495 -737,-1063 -1267,-2248 -1596,-3594 -323,-1310 -487,-2656 -487,-4085 -43,-1349 164,-2738 487,-4088 329,-1306 859,-2491 1596,-3551 695,-1063 1593,-1880 2736,-2532 1145,-618 2452,-901 4045,-941 1020,0 1961,162 2778,448 816,286 1513,695 2126,1185 572,533 1063,1145 1468,1840 369,734 655,1511 901,2327l0 0zm9706 -9272l0 29168 5111 0 0 -13155 13275 0 0 13155 5108 0 0 -29168 -5108 0 0 11599 -13275 0 0 -11599 -5111 0zm29648 0l0 29168 21285 0 0 -4410 -16177 0 0 -8541 14706 0 0 -4167 -14706 0 0 -7637 15891 0 0 -4413 -20999 0zm-78038 71050c-720,-3078 -1922,-5819 -3603,-8328 -1681,-2511 -3603,-4566 -6004,-6279 -2401,-1598 -4923,-2851 -7803,-3767 -2883,-910 -5766,-1369 -8887,-1369 -5766,0 -10568,1026 -14650,3081 -4084,2055 -7446,4794 -10088,8218 -2642,3424 -4561,7191 -5763,11412 -1202,4337 -1803,8674 -1803,13125 0,4450 601,8787 1803,13124 1202,4337 3121,8104 5763,11529 2642,3424 6004,6049 10088,8104 4082,2052 8884,3078 14650,3078 3963,0 7566,-683 10806,-2052 3123,-1256 5884,-3195 8285,-5593 2282,-2282 4085,-5020 5647,-8217 1318,-3195 2279,-6619 2761,-10270l8164 0c-598,5020 -1800,9587 -3722,13581 -1922,4107 -4442,7531 -7444,10270 -3124,2854 -6727,5023 -10809,6508 -4081,1596 -8645,2282 -13688,2282 -6724,0 -12731,-1143 -17773,-3424 -5043,-2285 -9247,-5480 -12609,-9360 -3362,-3881 -5885,-8332 -7566,-13468 -1681,-5023 -2520,-10383 -2520,-16092 0,-5590 839,-10956 2520,-16093 1681,-5020 4204,-9586 7566,-13464 3243,-3881 7566,-7078 12609,-9360 5042,-2282 11049,-3422 17773,-3538 4082,0 8045,573 11888,1712 3841,1143 7444,2855 10568,5137 3121,2282 5763,5023 7923,8214 2163,3311 3484,7079 4085,11299l-8167 0zm25353 16093c0,4450 601,8787 1800,13124 1202,4337 3124,8104 5766,11529 2642,3424 6004,6049 10083,8104 4082,2052 8886,3078 14649,3078 5644,0 10449,-1026 14531,-3078 4081,-2055 7324,-4680 9966,-8104 2642,-3425 4564,-7192 5763,-11529 1202,-4337 1803,-8674 1922,-13124 0,-4451 -720,-8788 -1922,-13125 -1199,-4221 -3121,-7988 -5763,-11412 -2642,-3424 -5885,-6163 -9966,-8218 -4082,-2055 -8887,-3081 -14531,-3081 -5763,0 -10567,1026 -14649,3081 -4079,2055 -7441,4794 -10083,8218 -2642,3424 -4564,7191 -5766,11412 -1199,4337 -1800,8674 -1800,13125zm-8167 0l0 0c0,-5590 842,-10956 2523,-16093 1681,-5020 4201,-9586 7566,-13464 3240,-3881 7560,-7078 12609,-9360 5042,-2282 11043,-3422 17767,-3538 6724,0 12609,1256 17652,3538 5045,2282 9246,5479 12608,9360 3365,3878 5885,8444 7566,13464 1681,5137 2523,10503 2523,16093 0,5709 -842,11069 -2523,16092 -1681,5136 -4201,9587 -7566,13468 -3362,3880 -7563,7075 -12608,9360 -5043,2281 -10928,3424 -17652,3424 -6724,0 -12725,-1143 -17767,-3424 -5049,-2285 -9247,-5480 -12609,-9360 -3365,-3881 -5885,-8332 -7566,-13468 -1681,-5023 -2523,-10383 -2523,-16092zm101614 -2053l30501 0c2401,0 4805,-343 7087,-1029 2160,-683 4082,-1825 5882,-3194 1562,-1372 3002,-2968 3963,-4907 961,-1942 1442,-4224 1561,-6735 0,-4907 -1561,-8901 -4563,-11869 -3121,-2854 -7685,-4223 -13930,-4337l-30501 0 0 32071zm-8163 -38690l0 0 39265 0c3481,0 6846,457 9967,1253 3124,916 5885,2171 8285,3884 2401,1712 4204,3877 5644,6619 1440,2738 2163,5819 2163,9473 0,5247 -1443,9700 -4204,13467 -2883,3878 -6964,6276 -12489,7305l0 224c2764,459 5046,1143 6965,2169 1802,1029 3242,2282 4444,3883 1199,1596 2041,3535 2520,5590 482,2055 842,4337 1083,6735 0,1369 119,3082 238,5020 0,2056 241,3995 482,6050 119,2055 601,3880 1080,5706 482,1825 1202,3197 2163,4110l-9009 0c-479,-683 -958,-1599 -1199,-2741 -241,-1140 -481,-2282 -601,-3421 -119,-1143 -240,-2399 -240,-3541 -120,-1140 -239,-2055 -239,-2965 -241,-2855 -481,-5709 -841,-8561 -360,-2851 -1080,-5363 -2282,-7645 -1199,-2284 -2883,-3994 -5043,-5479 -2163,-1256 -5165,-1942 -9006,-1826l-30983 0 0 36179 -8163 0 0 -81488 0 0zm80209 0l29662 0c12968,343 22816,3881 29421,10500 6604,6619 9963,16775 9963,30243 0,13581 -3359,23740 -9963,30359 -6605,6619 -16453,10156 -29421,10386l-29662 0 0 -81488zm8167 74869l0 0 17410 0c6126,0 11409,-572 15851,-1825 4445,-1259 8167,-3314 11050,-6050 2761,-2741 4921,-6278 6364,-10615 1321,-4337 1922,-9474 2038,-15636 0,-6047 -717,-11299 -2038,-15633 -1443,-4337 -3484,-7878 -6364,-10616 -2883,-2738 -6605,-4677 -11050,-5936 -4442,-1253 -9725,-1939 -15851,-1939l-17410 0 0 68250zm77757 -34126c0,4450 601,8787 1800,13124 1202,4337 3124,8104 5766,11529 2642,3424 6003,6049 10085,8104 4082,2052 8887,3078 14650,3078 5644,0 10448,-1026 14530,-3078 4085,-2055 7325,-4680 9967,-8104 2642,-3425 4564,-7192 5766,-11529 1199,-4337 1797,-8674 1919,-13124 0,-4451 -720,-8788 -1919,-13125 -1202,-4221 -3124,-7988 -5766,-11412 -2642,-3424 -5882,-6163 -9967,-8218 -4082,-2055 -8886,-3081 -14530,-3081 -5763,0 -10568,1026 -14650,3081 -4082,2055 -7443,4794 -10085,8218 -2642,3424 -4564,7191 -5766,11412 -1199,4337 -1800,8674 -1800,13125zm-8167 0l0 0c0,-5590 842,-10956 2523,-16093 1681,-5020 4204,-9586 7566,-13464 3240,-3881 7566,-7078 12608,-9360 5043,-2282 11047,-3422 17771,-3538 6726,0 12608,1256 17654,3538 5043,2282 9247,5479 12609,9360 3362,3878 5882,8444 7560,13464 1686,5137 2525,10503 2525,16093 0,5709 -839,11069 -2525,16092 -1678,5136 -4198,9587 -7560,13468 -3362,3880 -7566,7075 -12609,9360 -5046,2281 -10928,3424 -17654,3424 -6724,0 -12728,-1143 -17771,-3424 -5042,-2285 -9246,-5480 -12608,-9360 -3362,-3881 -5885,-8332 -7566,-13468 -1681,-5023 -2523,-10383 -2523,-16092zm84088 -40743l8645 0 27859 72927 238 0 27618 -72927 8646 0 -31822 81488 -9485 0 -31699 -81488zm86221 49530l33744 0 -16571 -41768 -17173 41768zm12969 -49530l0 0 9127 0 33622 81488 -8765 0 -10448 -25339 -39025 0 -10326 25339 -8649 0 34464 -81488zm33769 -1882l0 2897 6066 0 0 16262 3356 0 0 -16262 6089 0 0 -2897 -15511 0zm17705 0l0 19159 3192 0 0 -14785 57 0 5312 14785 2764 0 5312 -14785 51 0 0 14785 3195 0 0 -19159 -4669 0 -5154 14998 -51 0 -5286 -14998 -4723 0 0 0zm-141707 -196084l-14615 110985 -163421 -4153 -12753 -106832 26954 -54414 44326 0 -3271 19666 54167 0 -2863 -20265 44150 0 27326 55013z"/>
 </g>
</svg>
