<?xml version="1.0" encoding="UTF-8"?>
<!DOCTYPE svg PUBLIC "-//W3C//DTD SVG 1.1//EN" "http://www.w3.org/Graphics/SVG/1.1/DTD/svg11.dtd">
<!-- Creator: CorelDRAW X8 -->
<svg xmlns="http://www.w3.org/2000/svg" xml:space="preserve" width="60px" height="60px" version="1.1" style="shape-rendering:geometricPrecision; text-rendering:geometricPrecision; image-rendering:optimizeQuality; fill-rule:evenodd; clip-rule:evenodd"
viewBox="0 0 600000 600000"
 xmlns:xlink="http://www.w3.org/1999/xlink">
 <defs>
  <style type="text/css">
   <![CDATA[
    .fil0 {fill:#fff}
   ]]>
  </style>
 </defs>
 <g id="Layer_x0020_1">
  <metadata id="CorelCorpID_0Corel-Layer"/>
  <path class="fil0" d="M35762 426567c0,-6565 1009,-12311 3022,-17232 2018,-4923 4666,-9028 7948,-12310 3283,-3277 7058,-5766 11322,-7453 4269,-1689 8651,-2531 13153,-2531 10505,0 18805,3209 24899,9635 6095,6423 9142,15871 9142,28344 0,1219 -48,2556 -142,4008 -93,1454 -187,2744 -278,3869l-47548 0c470,4312 2489,7736 6052,10264 3560,2535 8345,3802 14349,3802 3841,0 7617,-352 11321,-1058 3703,-700 6727,-1567 9071,-2602l2815 17019c-1125,564 -2628,1129 -4504,1690 -1874,564 -3957,1054 -6259,1477 -2293,422 -4757,774 -7384,1057 -2625,281 -5250,422 -7878,422 -6658,0 -12450,-986 -17368,-2956 -4923,-1967 -9005,-4663 -12240,-8087 -3237,-3425 -5627,-7475 -7171,-12170 -1548,-4688 -2322,-9751 -2322,-15188zm499744 -213580c0,-28383 -17634,-52903 -43810,-62546 1103,-6064 1653,-11849 1653,-18185 0,-52628 -42707,-95335 -95335,-95335 -30583,0 -59239,14602 -77151,39674 -8816,-6885 -19559,-10468 -30858,-10468 -27831,0 -50698,22592 -50698,50698 0,6063 1100,12126 3030,17634 -26450,9096 -44362,34444 -44362,62549 0,28381 17637,53176 44087,62819 -1102,5789 -1655,11852 -1655,18187 0,44836 31334,82599 73216,92515l-334 54 0 62172c0,4782 445,9142 1338,13082 890,3938 2457,7291 4711,10058 2251,2763 5253,4923 9000,6471 3753,1545 8490,2319 14207,2319 4502,0 8300,-374 11396,-1123 3092,-754 5904,-1641 8438,-2676l-2950 -16313c-1971,748 -4150,1332 -6546,1758 -2389,422 -4708,632 -6962,632 -4688,0 -7803,-1313 -9351,-3941 -1551,-2624 -2322,-6142 -2322,-10550l0 -26019 25181 0 0 -17445 -25181 0 0 -15950 1219 14c13785,0 27074,-2971 39158,-8470 -193,944 -289,1956 -289,3027 0,3841 1242,6869 3728,9074 2486,2200 5417,3302 8790,3302 3376,0 6307,-1102 8796,-3302 2483,-2205 3722,-5233 3722,-9074 0,-3846 -1239,-6868 -3722,-9074 -1627,-1442 -3442,-2406 -5448,-2905 8535,-6049 16123,-13538 22416,-22255 8816,6891 19837,10749 31136,10749 27830,0 50698,-22595 50698,-50701 0,-6063 -1103,-12123 -3031,-17634 25903,-9368 44085,-34716 44085,-62822l0 0zm-450512 205561c-96,-1783 -399,-3518 -915,-5204 -516,-1690 -1313,-3189 -2390,-4502 -1080,-1312 -2441,-2389 -4082,-3234 -1641,-842 -3679,-1267 -6120,-1267 -2341,0 -4360,399 -6046,1199 -1690,794 -3096,1848 -4218,3160 -1128,1313 -1996,2838 -2605,4576 -607,1729 -1055,3489 -1338,5272l27714 0zm65971 45856c-6094,-93 -11044,-751 -14842,-1970 -3796,-1219 -6798,-2931 -9003,-5133 -2202,-2203 -3705,-4876 -4499,-8020 -796,-3140 -1196,-6678 -1196,-10618l0 -81445 20960 -3377 0 80604c0,1871 139,3560 422,5063 278,1499 819,2766 1616,3795 799,1035 1947,1877 3447,2534 1502,655 3515,1077 6049,1265l-2954 17302zm45292 -16035c2064,0 4034,-49 5911,-142 1876,-91 3376,-235 4501,-420l0 -15894c-848,-187 -2112,-377 -3801,-564 -1687,-187 -3235,-283 -4641,-283 -1970,0 -3821,116 -5556,351 -1734,236 -3259,681 -4572,1338 -1312,658 -2344,1548 -3095,2671 -749,1128 -1126,2534 -1126,4220 0,3286 1103,5559 3308,6823 2203,1268 5228,1900 9071,1900zm-1689 -61328c6191,0 11347,700 15477,2106 4124,1409 7427,3424 9916,6052 2483,2625 4243,5814 5272,9567 1032,3747 1548,7920 1548,12518l0 43602c-2999,658 -7175,1432 -12518,2322 -5346,893 -11818,1338 -19412,1338 -4782,0 -9116,-425 -13011,-1267 -3892,-845 -7245,-2225 -10057,-4150 -2815,-1922 -4969,-4431 -6469,-7526 -1502,-3093 -2253,-6894 -2253,-11392 0,-4315 867,-7972 2602,-10973 1735,-2999 4056,-5395 6962,-7172 2908,-1783 6236,-3073 9989,-3869 3753,-797 7642,-1197 11673,-1197 2721,0 5137,117 7248,352 2107,235 3822,538 5134,915l0 -1970c0,-3560 -1083,-6423 -3237,-8577 -2157,-2160 -5908,-3237 -11254,-3237 -3563,0 -7081,257 -10550,773 -3467,516 -6469,1239 -9003,2180l-2670 -16880c1218,-374 2743,-771 4572,-1194 1825,-422 3821,-799 5975,-1128 2160,-326 4434,-606 6823,-842 2393,-235 4808,-351 7243,-351zm72445 60908c3844,0 6562,-377 8158,-1128 1593,-748 2390,-2203 2390,-4360 0,-1689 -1032,-3163 -3096,-4430 -2060,-1267 -5201,-2699 -9422,-4292 -3280,-1219 -6262,-2483 -8935,-3796 -2670,-1312 -4943,-2885 -6820,-4714 -1877,-1828 -3331,-4008 -4360,-6539 -1029,-2534 -1547,-5582 -1547,-9142 0,-6942 2576,-12424 7735,-16458 5157,-4036 12238,-6049 21243,-6049 4499,0 8813,397 12938,1193 4127,800 7409,1667 9847,2603l-3659 16313c-2435,-842 -5086,-1590 -7946,-2245 -2860,-658 -6072,-987 -9635,-987 -6562,0 -9845,1829 -9845,5488 0,842 139,1591 420,2248 283,658 845,1293 1687,1902 847,607 1995,1265 3449,1968 1452,725 3303,1499 5556,2344 4595,1712 8394,3379 11393,5040 3002,1641 5369,3444 7103,5346 1735,1919 2954,4056 3657,6398 703,2347 1055,5043 1055,8138 0,7291 -2744,12821 -8229,16574 -5485,3728 -13244,5604 -23279,5604 -6565,0 -12027,-564 -16387,-1689 -4362,-1128 -7384,-2064 -9073,-2812l3517 -17022c3563,1406 7220,2509 10970,3308 3754,794 7456,1196 11115,1196zm130391 15049l-20959 0 0 -73990 20959 0 0 73990zm16178 -36995c0,-5346 867,-10386 2599,-15123 1741,-4734 4244,-8858 7526,-12376 3286,-3518 7271,-6307 11960,-8373 4688,-2061 10031,-3090 16035,-3090 3938,0 7549,351 10831,1054 3280,703 6469,1713 9565,3025l-4360 16739c-1970,-752 -4127,-1406 -6472,-1970 -2344,-565 -4969,-845 -7877,-845 -6188,0 -10809,1922 -13856,5768 -3047,3844 -4572,8907 -4572,15191 0,6659 1431,11818 4291,15472 2861,3656 7855,5488 14982,5488 2531,0 5249,-236 8158,-703 2905,-468 5581,-1222 8016,-2251l2954 17161c-2435,1029 -5488,1922 -9142,2670 -3657,751 -7688,1128 -12095,1128 -6753,0 -12569,-1009 -17442,-3027 -4876,-2015 -8887,-4759 -12027,-8226 -3144,-3470 -5440,-7574 -6894,-12308 -1452,-4737 -2180,-9871 -2180,-15404zm-248404 120059c3844,0 6571,-382 8161,-1128 1582,-746 2390,-2203 2390,-4360 0,-1683 -1029,-3172 -3093,-4433 -2055,-1262 -5204,-2693 -9428,-4289 -3277,-1216 -6265,-2489 -8932,-3793 -2670,-1309 -4944,-2885 -6820,-4714 -1877,-1828 -3331,-4008 -4360,-6539 -1032,-2532 -1550,-5585 -1550,-9142 0,-6945 2588,-12436 7738,-16464 5151,-4031 12237,-6046 21237,-6046 4505,0 8828,405 12946,1196 4119,788 7404,1664 9848,2600l-3660 16316c-2440,-842 -5096,-1593 -7945,-2245 -2863,-649 -6078,-989 -9638,-989 -6568,0 -9850,1828 -9850,5487 0,842 150,1593 428,2248 277,655 844,1301 1683,1905 839,601 1996,1262 3450,1965 1452,725 3303,1499 5556,2344 4595,1709 8391,3382 11390,5040 3005,1644 5369,3450 7106,5346 1735,1919 2957,4059 3660,6403 697,2333 1054,5043 1054,8133 0,7291 -2746,12821 -8234,16577 -5483,3725 -13241,5601 -23276,5601 -6562,0 -12027,-561 -16387,-1686 -4360,-1123 -7384,-2067 -9074,-2812l3518 -17025c3561,1409 7223,2511 10970,3308 3751,794 7455,1196 11112,1196zm43464 -21382c0,-6565 1015,-12311 3024,-17234 2010,-4916 4672,-9032 7952,-12308 3274,-3274 7055,-5769 11321,-7453 4266,-1686 8649,-2531 13153,-2531 10503,0 18805,3209 24897,9632 6092,6426 9142,15877 9142,28347 0,1221 -51,2559 -145,4008 -91,1448 -184,2747 -275,3872l-47546 0c471,4312 2495,7736 6047,10261 3557,2529 8345,3805 14352,3805 3838,0 7619,-358 11321,-1058 3697,-697 6727,-1570 9071,-2602l2815 17016c-1123,565 -2639,1131 -4504,1687 -1877,559 -3966,1060 -6259,1480 -2291,416 -4760,774 -7385,1054 -2622,284 -5249,425 -7880,425 -6653,0 -12450,-992 -17368,-2959 -4912,-1959 -9011,-4666 -12237,-8082 -3229,-3418 -5624,-7483 -7172,-12172 -1547,-4688 -2324,-9751 -2324,-15188zm49235 -8019c-94,-1783 -402,-3520 -916,-5204 -510,-1687 -1318,-3192 -2389,-4499 -1077,-1307 -2446,-2401 -4079,-3234 -1639,-842 -3682,-1270 -6120,-1270 -2347,0 -4368,402 -6052,1196 -1681,794 -3096,1862 -4215,3164 -1126,1312 -2004,2843 -2608,4578 -598,1723 -1055,3486 -1333,5269l27712 0zm64704 29824c2063,0 4034,-57 5910,-145 1868,-82 3376,-235 4502,-420l0 -15893c-848,-185 -2124,-380 -3802,-562 -1684,-184 -3234,-280 -4640,-280 -1970,0 -3830,119 -5562,348 -1720,230 -3260,683 -4563,1335 -1313,650 -2359,1554 -3102,2674 -745,1119 -1125,2534 -1125,4215 0,3291 1111,5567 3308,6826 2197,1261 5230,1902 9074,1902zm-1684 -61331c6188,0 11350,709 15466,2106 4122,1403 7441,3436 9921,6052 2481,2622 4241,5817 5270,9564 1029,3750 1550,7932 1550,12524l0 43600c-3004,660 -7180,1434 -12517,2321 -5344,887 -11818,1335 -19412,1335 -4788,0 -9128,-422 -13011,-1261 -3887,-836 -7248,-2237 -10058,-4153 -2812,-1916 -4972,-4436 -6468,-7526 -1497,-3090 -2254,-6894 -2254,-11395 0,-4312 868,-7971 2602,-10968 1735,-2996 4060,-5400 6960,-7174 2902,-1775 6244,-3073 9992,-3869 3744,-791 7642,-1197 11676,-1197 2715,0 5136,117 7245,352 2106,235 3815,541 5134,918l0 -1973c0,-3563 -1086,-6429 -3240,-8580 -2152,-2146 -5905,-3232 -11254,-3232 -3560,0 -7078,261 -10545,774 -3464,511 -6474,1236 -9008,2180l-2668 -16886c1216,-371 2747,-771 4570,-1188 1825,-416 3824,-802 5978,-1128 2154,-326 4433,-615 6823,-845 2384,-229 4807,-351 7248,-351zm95786 20537c-1871,-468 -4079,-972 -6608,-1480 -2525,-510 -5252,-771 -8158,-771 -1315,0 -2886,117 -4714,352 -1828,235 -3214,493 -4150,774l0 56548 -20956 0 0 -70050c3747,-1315 8186,-2559 13288,-3727 5109,-1168 10806,-1761 17096,-1761 1126,0 2486,77 4077,210 1587,133 3191,332 4784,564 1582,227 3192,522 4777,842 1593,326 2954,726 4079,1196l-3515 17303zm9847 18428c0,-5349 874,-10392 2603,-15126 1732,-4728 4249,-8864 7526,-12376 3277,-3515 7273,-6312 11959,-8373 4683,-2055 10029,-3090 16036,-3090 3937,0 7551,357 10831,1054 3274,698 6471,1710 9558,3028l-4359 16739c-1968,-752 -4125,-1418 -6472,-1973 -2333,-556 -4963,-845 -7869,-845 -6194,0 -10817,1925 -13861,5768 -3039,3839 -4570,8910 -4570,15194 0,6656 1437,11818 4292,15472 2857,3651 7849,5488 14981,5488 2529,0 5258,-239 8155,-703 2906,-462 5582,-1225 8022,-2251l2951 17161c-2437,1029 -5493,1922 -9144,2667 -3654,743 -7688,1128 -12099,1128 -6746,0 -12568,-1017 -17438,-3027 -4870,-2013 -8887,-4765 -12028,-8226 -3141,-3464 -5442,-7577 -6894,-12311 -1448,-4728 -2180,-9867 -2180,-15398zm73846 36995l0 -105783 20960 -3377 0 35451c1411,-474 3217,-924 5417,-1338 2196,-414 4339,-635 6403,-635 5998,0 10998,825 14981,2466 3983,1641 7175,3966 9561,6962 2390,2999 4085,6568 5066,10692 978,4119 1474,8731 1474,13785l0 41777 -20957 0 0 -39243c0,-6758 -873,-11542 -2599,-14352 -1726,-2809 -4946,-4218 -9635,-4218 -1877,0 -3643,165 -5278,491 -1636,323 -3118,680 -4433,1054l0 56268 -20960 0zm-81145 -235432c7163,5513 15704,8541 24523,8541 22317,0 40779,-18182 40779,-40780 0,-4960 -828,-9649 -2480,-14051l-51523 -12124 -11299 58414 0 0zm-167800 -195081l51523 12127 11574 -58689c-7164,-5513 -15704,-8269 -24801,-8269 -22317,0 -40779,18187 -40779,40780 0,4685 828,9646 2483,14051l0 0zm-4411 12399c-23145,7441 -39126,29758 -39126,54008 0,23695 14604,44913 36649,53176l72462 -65580 -13226 -28375 -56759 -13229 0 0zm82939 38302l75218 34438 76051 -66677c1100,-5508 1653,-11021 1653,-16807 0,-46839 -38024,-84866 -84867,-84866 -28103,0 -54278,13776 -69985,36924l-12674 65577 14604 31411 0 0zm99743 72465l56762 13226c23142,-7716 39123,-29758 39123,-54006 0,-23697 -14601,-44637 -36643,-53178l-74401 65027 15159 28931 0 0zm-177721 7163c-1103,5511 -1655,11296 -1655,17084 0,46843 38299,85139 85141,85139 28381,0 54556,-14048 70538,-37196l12399 -65580 -16810 -31958 -75493 -34444 -74120 66955 0 0z"/>
 </g>
</svg>
