<?xml version="1.0" encoding="UTF-8"?>
<!DOCTYPE svg PUBLIC "-//W3C//DTD SVG 1.1//EN" "http://www.w3.org/Graphics/SVG/1.1/DTD/svg11.dtd">
<!-- Creator: CorelDRAW X8 -->
<svg xmlns="http://www.w3.org/2000/svg" xml:space="preserve" width="60px" height="60px" version="1.1" style="shape-rendering:geometricPrecision; text-rendering:geometricPrecision; image-rendering:optimizeQuality; fill-rule:evenodd; clip-rule:evenodd"
viewBox="0 0 600000 600000"
 xmlns:xlink="http://www.w3.org/1999/xlink">
 <defs>
  <style type="text/css">
   <![CDATA[
    .fil3 {fill:#fff}
    .fil0 {fill:#fff;fill-rule:nonzero}
    .fil2 {fill:#fff;fill-rule:nonzero}
    .fil1 {fill:#fff;fill-rule:nonzero}
   ]]>
  </style>
 </defs>
 <g id="Layer_x0020_1">
  <metadata id="CorelCorpID_0Corel-Layer"/>
  <path class="fil0" d="M132092 230843c459,9417 9876,5029 14077,2100 4022,-2834 5213,-459 5581,-5935 380,-3615 533,-7246 460,-10877 -6268,-624 -12552,1004 -17731,4589 -2653,1834 -7407,7867 -2378,10151l-9 -28z"/>
  <path class="fil0" d="M319772 346579c7222,4479 20474,18009 9601,24596 -10426,9508 -16274,-10516 -25413,-13252 3926,-5397 8864,-10332 15812,-11333l0 -11z"/>
  <path class="fil0" d="M190506 361852c-8498,1276 -13252,8958 -20381,12850 -6673,3926 -9233,-1279 -9786,-2379 -1009,-459 -915,460 -2559,-1185 -6214,-9782 6423,-16914 12977,-21758 9178,-1837 14904,6120 19749,12435l0 37z"/>
  <path class="fil0" d="M359905 229658c-459,9417 -9876,5032 -14077,2103 -4023,-2837 -5213,-459 -5582,-5938 -379,-3612 -532,-7246 -459,-10874 6268,-624 12552,1003 17731,4586 2563,1837 7407,7867 2378,10151l9 -28z"/>
  <path class="fil1" d="M334943 114840c32632,-11517 7129,-56222 -21303,-36490 -18646,-15988 -44336,-18916 -71300,-18916 -26447,2112 -51559,6985 -69114,22312 -28341,-18284 -54488,25597 -21209,36655 -9326,36204 1275,73137 -184,109973 -1367,33095 -10095,77431 8314,107139 15602,25412 49274,34460 76972,35470 35379,1275 78256,-7407 95446,-41684 16455,-32635 11885,-73318 9785,-108513 -2104,-35564 1834,-71669 -7407,-105954l0 8zm-159642 -955c8404,32726 60792,24321 58734,-8498 -2330,-39308 -66785,-31717 -58734,8498z"/>
  <path class="fil2" d="M256199 153715c93,4663 1009,9782 184,14683 -1275,2379 -3671,2654 -5763,3563 -2931,-462 -5417,-2395 -6582,-5122 -734,-5581 185,-10876 459,-16455 0,-161 2691,31 5449,706 -1358,-428 -2758,-729 -4207,-763 -1499,-198 -3197,111 -4989,627 1820,-423 3135,-669 3104,-525 -275,5398 -1100,10676 -366,16181 -9774,12977 -15721,-2835 -13161,-12527l0 17c6,-37 57,-85 147,-139 -3027,358 -5740,-365 -7588,-3724 -3603,-6472 1670,-14613 8504,-15795 -37,-156 -68,-315 -88,-476 -561,-12427 23219,-13986 26053,-3561 355,1333 199,2532 -334,3595 7659,3563 16058,10596 9465,17787 -3541,3904 -7138,3019 -11024,1463 249,139 496,281 737,428l0 37z"/>
  <path class="fil2" d="M175301 113885c8404,32726 60792,24321 58734,-8498 -2330,-39308 -66785,-31717 -58734,8498z"/>
  <path class="fil1" d="M189746 98898c4896,0 8864,4298 8864,9598 0,5304 -3968,9601 -8864,9601 -4898,0 -8867,-4297 -8867,-9601 0,-5300 3969,-9598 8867,-9598z"/>
  <path class="fil2" d="M248755 107774c6489,37573 67916,27603 59057,-10242 -7957,-34013 -61248,-24596 -59057,10242z"/>
  <path class="fil1" d="M263844 96520c4796,0 8683,4300 8683,9601 0,5301 -3887,9601 -8683,9601 -4796,0 -8683,-4300 -8683,-9601 0,-5301 3887,-9601 8683,-9601z"/>
  <path class="fil3" d="M292573 504702c0,10993 1315,18079 7418,26303 689,926 499,813 1687,1218 8124,2787 17635,2390 25892,499 2183,-499 3940,-1017 5958,-1601 1727,-499 4289,-1310 5891,-1956l10876 -4530c10982,-4530 28752,-16098 38668,-22958 10066,-6967 12827,-8668 21265,-17104l3773 -4076c757,-786 1180,-1114 1823,-1956 2211,-2897 4844,-5400 7104,-8303l6916 -8490c8119,-9867 15667,-20245 23233,-30546 567,-771 1208,-1636 1698,-2370l-1916 -2735c-754,-1089 -1287,-1772 -2036,-2903 -2043,-3087 -2891,-3662 -6803,-3662 -10003,0 -21469,6304 -30274,9842l-24919 8509c-6883,2132 -13955,3977 -21090,5653 -2350,549 -2784,1343 -2784,3900 0,2115 1216,3813 2699,4570 2441,1244 6545,1238 9519,1235 1698,-2 1990,278 3481,321l7185 -391c18480,-2444 19523,-5667 23043,-6605 -592,887 -1051,1732 -1683,2673 -5908,8804 -10588,14570 -17042,22782 -1423,1809 -2807,3078 -4196,4819l-6358 6721c-2996,2852 -6125,5819 -9380,8351l-8801 6605c-570,413 -848,535 -1429,898 -11786,7367 -27249,13295 -42426,8235 -3371,-1123 -3152,-459 -3578,-3688 -2264,-17127 3303,-32188 9726,-46639 1701,-3821 3923,-7302 5910,-10950l3096 -5043c1128,-1695 2080,-3401 3322,-5108 4966,-6820 14706,-20092 20441,-25778l10176 -10752c1474,-1474 2733,-2758 4210,-4221l16378 -14726c579,-451 732,-663 1248,-1080l4623 -3804c7183,-5873 20735,-16393 29922,-20367 2271,-981 11693,-3402 14038,-3402 2800,0 4943,3119 4943,5814 0,12374 -3393,24458 -7449,35862 -941,2647 -1925,5703 -3872,7755 -564,593 -264,6 -888,856 5712,3025 21365,3359 24866,-3036 686,-1253 2591,-12872 2957,-15069 1088,-6534 2094,-13136 2727,-19655 844,-8708 2602,-26623 -5006,-32256 -2963,-2194 -5449,-2364 -9267,-2364 -5786,0 -11211,2412 -16387,4252 -9686,3444 -19046,8167 -27508,13771l-5935 4235c-4882,3659 -9913,7322 -14338,11534l-2758 2475c-593,552 -712,535 -1298,1026l-9460 8855c-2880,2878 -7965,7382 -10270,10369l-10953 12008c-4331,4448 -14561,17657 -17450,21507l-8637 11999c-4782,7220 -9853,14519 -13762,22283 -5789,11497 -10168,20279 -13819,32692 -1364,4637 -2940,11880 -2940,17697zm-232549 -46219c0,2851 16821,4674 20633,4657 3133,-11 5242,292 8144,286l28151 -1502 48796 -6143c9777,-1258 21169,-1978 30940,-3070 3450,-385 19624,-54 25248,-42 2971,8 5018,-278 8150,-281l15979 -1171c3331,-141 11492,-1312 15029,-1831 8663,-1267 18689,-3713 26246,-7472 1902,-947 3547,-1927 5148,-3282 1213,-1027 3441,-3277 3864,-4856 -836,-224 -2855,-1982 -7810,-3529 -11131,-3473 -32043,-122 -43183,1950 -11608,2163 -27045,5649 -37916,7432 -7747,1270 -25316,4542 -33185,4607 -1630,11 -1851,292 -3473,303 -5014,37 -12997,907 -18031,865 -5216,-46 -12614,581 -18023,873 -1222,65 -2557,-49 -3790,-12 -1488,43 -1786,306 -3469,309 -1165,3 -2614,-93 -3745,34l-7019 539c-2624,142 -4776,221 -7276,283 -2035,49 -4921,539 -6965,590 -7602,196 -26374,2503 -33180,4612 -2205,680 -9263,2962 -9263,5851zm-50579 -16569c2852,0 41210,-4362 42815,-4566l26416 -2943c2046,-210 3716,-436 5502,-604 12214,-1153 24812,-2800 37128,-4147l79535 -9706c8408,-1238 12623,-2352 20222,-3614 25444,-4229 57751,-7376 84093,-10672l15976 -1763c1242,-131 1953,263 1772,-740 -354,-1953 -5386,-5259 -8705,-6418 -3980,-1389 -10897,-2021 -15310,-1417 -2367,326 -5216,-150 -9576,890 -7185,1720 -10134,2466 -17756,3464 -20364,2670 -42146,4575 -62209,7265 -6531,876 -12731,1344 -19262,2248l-28613 3365c-25169,2834 -50357,6188 -75373,9796 -2322,338 -6820,791 -8669,2087 -1788,1252 -11426,1349 -13997,1697 -919,125 -1636,37 -2537,80l-12501 1162c-7917,485 -19573,2886 -26708,5267 -3816,1275 -11208,4827 -12243,9269zm454049 65985c-4918,0 -12169,-215 -16568,-2324 493,-1026 2951,-8002 4555,-11435 3385,-7246 6545,-14828 10548,-21716 1006,-1732 1684,-3606 2752,-5389l8612 -15517c7869,-13720 21742,-35212 32477,-48334l15108 -17155 12864 -11265c7064,-5284 18190,-12209 28485,-12209l6979 292c905,3884 2617,3181 2617,14244 0,8277 -3036,18060 -5437,24214 -3507,8983 -7560,16965 -12314,24897 -924,1545 -1964,3155 -2874,4680 -978,1630 -1965,2990 -2934,4623 -505,850 -972,1349 -1534,2248l-10907 15253c-1012,1253 -2554,2605 -3753,3804l-12776 13385c-2704,3235 -6324,6653 -9029,9576l-11335 11047c-6132,5448 -15378,11766 -22998,14502 -3192,1148 -8203,2579 -12538,2579zm-17257 26742l-7160 0c-1718,0 -6208,-6840 -7271,-9005 -1712,-3493 -2903,-8167 -2903,-13377 0,-7376 2801,-17235 4978,-24092 1967,-6199 10516,-31929 12364,-35597 5687,-11279 14545,-25575 22150,-35697l12705 -16365c1401,-1791 2889,-3537 4414,-5179l2330 -2610c553,-596 536,-712 1026,-1299l10452 -11060c4575,-4573 11239,-11254 16163,-15231 10888,-8793 20046,-16109 33639,-21592 5581,-2253 18436,-5709 25032,-2400 3266,1638 1466,1856 7478,4441 944,406 550,80 1120,913 760,1103 2375,5298 2917,6676 7276,18499 5989,43010 -1001,61671 -1956,5218 -5700,13869 -8620,18705l-5196 8465c-3589,5845 -13266,17895 -18196,22793l-14524 17158c-3657,3654 -12266,13533 -15753,16226l-4892 4408c-921,935 -1537,1295 -2469,2182 -595,567 -697,582 -1276,1049 -5867,4740 -7741,6293 -14031,10678 -647,451 -791,621 -1350,976 -518,328 -935,547 -1442,884 -1829,1213 -3632,2256 -5573,3438 -4258,2588 -14049,7169 -18777,8547 -13207,3841 -15508,4260 -26334,4294z"/>
 </g>
</svg>
