<svg xmlns="http://www.w3.org/2000/svg" width="16.5804mm" height="2.8222mm" viewBox="0 0 1658040 282220">
  <g>
    <path fill="white"
          d="M777930 196410l-84730 0 19840 40020c12390,24980 32650,24980 45050,0l19840 -40020zm-505490 3640l0 -187010 -54030 0 0 187010c0,350 -670,1030 -2000,2020 -3360,2520 -9000,4860 -16900,6990l-50 40c-7130,1960 -14930,3460 -23370,4490 -8390,1020 -17340,1530 -26860,1530 -9580,0 -18570,-510 -26950,-1530 -8390,-1020 -16150,-2520 -23240,-4490l-90 -40c-7900,-2130 -13540,-4470 -16910,-6990 -1320,-990 -1990,-1670 -1990,-2020l0 -187010 -54030 0 0 187010c0,23980 11530,41850 34580,53610 20260,10330 49850,15500 88770,15500 38760,0 68280,-5190 88550,-15550 23010,-11760 34520,-29620 34520,-53560zm292790 -13010c0,39430 -18570,63890 -55700,73300 -11280,2890 -22560,5070 -33810,6570 -11290,1500 -22130,2250 -32520,2250 -9090,0 -18660,-690 -28690,-2070l-50 0c-9720,-1350 -19830,-3390 -30330,-6120 -10730,-2770 -20520,-5910 -29390,-9410 -9120,-3610 -17660,-7730 -25640,-12340l-11600 -6720 29600 -44430 10150 5640c5800,3220 12220,6230 19270,8990 6940,2720 14490,5180 22620,7360 8120,2180 15880,3820 23260,4910 7170,1050 14050,1580 20610,1580 9800,0 18990,-650 27560,-1960 8550,-1290 16440,-3200 23640,-5710 4330,-1510 7790,-2990 10370,-4450 1830,-1030 3080,-1940 3730,-2710 780,-980 1420,-2420 1900,-4310 660,-2550 980,-5900 980,-10040 0,-2650 -690,-5100 -2060,-7330 -1700,-2750 -4490,-5450 -8340,-8090 -3260,-2100 -9820,-4080 -19660,-5920 -11090,-2060 -25780,-3720 -44040,-4950 -11520,-700 -24770,-880 -36020,-2230 -8410,-760 -15640,-1780 -21660,-3030 -6550,-1370 -12030,-3100 -16400,-5180 -12270,-5750 -21570,-13660 -27870,-23700 -6330,-10070 -9500,-21910 -9500,-35520 0,-14710 3810,-27590 11430,-38660 7410,-10770 18260,-19450 32550,-26040l40 0c10010,-4590 21220,-8030 33620,-10300 12280,-2250 25600,-3380 39970,-3380 36870,0 72400,8640 106570,25900l11690 5910 -25970 46660 -10740 -5290c-13970,-6870 -27790,-12040 -41450,-15480 -13440,-3390 -26750,-5080 -39910,-5080 -5270,0 -10430,260 -15470,780 -5170,530 -10600,1360 -16270,2480 -6280,1270 -11730,2820 -16340,4600 -4130,1600 -7540,3400 -10220,5390l-20 -30c-1790,1350 -3120,2980 -3990,4880 -970,2120 -1450,4850 -1450,8180 0,2350 450,4280 1350,5770 1020,1610 2680,3050 4970,4300 870,410 3710,960 8510,1640 6060,850 14350,1640 24830,2360 13820,920 24890,1720 33250,2400 9460,760 16470,1420 21020,1970l50 0c12310,1520 23020,3550 32100,6100 9470,2660 17290,5960 23420,9900 5110,3160 9780,6860 14020,11050l50 50c4240,4190 8010,8850 11310,13970l150 240c3450,5660 6060,11400 7810,17210 1800,5990 2710,12040 2710,18140zm202640 -147530l114070 230080 -63990 0 -70680 -142580c-6420,-12980 -17020,-12930 -23420,0l-70690 142580 -63970 0 114070 -230080c17770,-35830 46830,-35830 64610,0z"/>
  </g>
</svg>
