<?xml version="1.0" encoding="UTF-8"?>
<!DOCTYPE svg PUBLIC "-//W3C//DTD SVG 1.1//EN" "http://www.w3.org/Graphics/SVG/1.1/DTD/svg11.dtd">
<!-- Creator: CorelDRAW X8 -->
<svg xmlns="http://www.w3.org/2000/svg" xml:space="preserve" width="60px" height="60px" version="1.1" style="shape-rendering:geometricPrecision; text-rendering:geometricPrecision; image-rendering:optimizeQuality; fill-rule:evenodd; clip-rule:evenodd"
viewBox="0 0 600000 600000"
 xmlns:xlink="http://www.w3.org/1999/xlink">
 <defs>
  <style type="text/css">
   <![CDATA[
    .fil0 {fill:#fff}
   ]]>
  </style>
 </defs>
 <g id="Layer_x0020_1">
  <metadata id="CorelCorpID_0Corel-Layer"/>
  <path class="fil0" d="M318575 207346l0 52518c88,2152 1426,6423 2971,10684 258,1556 749,4334 1233,5133l0 -1848c1259,3263 2475,6166 3130,7634 4410,9918 11460,20024 18513,28358l5170 5802c2455,2452 4578,4856 7280,7016 757,604 1136,1145 1865,1789l6063 4850 924 125c1225,-5250 2211,-9420 2963,-15163 260,-2007 1519,-15766 1811,-16347 150,-7212 774,-14724 1043,-22079 839,-23128 3,-44760 -60,-67811l-977 -67476c-219,-9363 -913,-13187 -1381,-21274 -215,-919 -162,-749 -666,-1330 0,9700 -6327,11812 -14545,20027 -2897,2900 -5556,5981 -8104,9182 -12512,15704 -20838,33026 -25756,52696 -521,2095 -1437,5275 -1477,7514zm50426 137753c3164,6574 3991,18066 3991,27978 2036,477 4692,1834 6650,1996l-669 -12969c-8,-2018 256,-2732 338,-4314 365,-7109 550,-10190 3985,-14437 -3943,-1046 -6114,-7758 -7072,-12413 -618,-3007 -2157,-14493 -1525,-17226 -292,578 -1548,14341 -1812,16345 -748,5743 -1734,9915 -2959,15165l-927 -125zm3200 48694c7039,0 12328,2662 16053,8368 3901,5970 4879,12098 4879,20344 0,5035 -1214,10350 -3161,13476 -5414,8697 -18842,6956 -24755,-859 -3336,-4413 -5154,-8696 -6052,-14609 -289,-1897 -315,-2640 -374,-4723 -34,-1199 -247,-1253 -247,-2140 0,-868 235,-1154 247,-2407 65,-8509 4654,-17450 13410,-17450zm-26299 22808c0,7424 1088,12535 4376,18431 530,949 700,1312 1333,2160 1567,2097 3183,3926 5289,5442 9074,6537 21274,6922 31402,2410 1670,-743 3379,-1608 4887,-2625 1409,-950 2996,-2160 4173,-3342 8663,-8680 11001,-23466 6395,-34980 -1179,-2957 -3141,-5890 -5190,-8223 -1919,-2183 -5284,-4275 -7847,-5570 -7659,-3870 -18640,-3371 -26297,5 -7129,3141 -12291,7070 -15752,14035 -1528,3078 -2769,7761 -2769,12257zm-210930 -2951c0,-9267 3736,-19857 13686,-19857 7384,0 12166,2653 16106,8583 5352,8051 6798,24730 1698,33367 -995,1684 -2610,3319 -4294,4295 -7798,4524 -17226,269 -22099,-7064 -3016,-4536 -5097,-11750 -5097,-19324zm-12611 2146c0,9779 1811,17300 7449,23678 1069,1210 2342,2315 3665,3313 5712,4312 12232,5210 19477,5210 4057,0 8935,-1800 11965,-3064 1695,-706 3459,-1681 4893,-2619 4241,-2770 8459,-7940 10210,-12600 5539,-14718 1897,-32094 -12662,-39323 -9598,-4767 -22354,-3069 -31201,2172 -865,513 -1539,896 -2302,1454 -6055,4473 -11494,12016 -11494,21779zm82386 -7512l-40 17132c-708,6299 1378,13978 -3492,15293 -3461,933 -4975,329 -5559,1418 -496,924 -379,4056 233,5335 3450,0 5919,-270 9394,-270l11540 0c3302,0 5581,270 8855,270 970,-1840 1012,-3867 536,-5905 -2665,0 -7393,-218 -8496,-2775 -958,-2220 -629,-30113 -629,-33718 0,-1639 627,-2710 1531,-3569 816,-771 2044,-1559 3027,-2072 5990,-3127 14692,-3427 19216,2797 2186,3008 2526,7206 2526,12235l0 22002c0,7470 -8586,2781 -8586,6710 0,1879 -187,2787 536,4295l20126 -270c3475,0 5944,270 9394,270 204,-888 334,-800 572,-1843 525,-2310 77,-2696 -36,-4062 -2175,0 -6727,-1125 -8057,-1874 -1972,-1108 -1335,-5848 -1335,-8861 0,-6743 -272,-13130 -269,-20126 6,-8532 -2648,-17209 -9573,-21016 -9011,-4955 -17334,-1338 -25044,4113 -1613,1140 -3237,2863 -4294,2951 0,-4363 1043,-7030 -539,-9391 -6477,3109 -20217,5000 -21331,5771 -1700,1171 -1281,2945 477,3813l5099 1876c4493,1931 4218,2651 4218,9471zm82117 53665c0,-5280 1959,-7010 5570,-9992 3878,-3197 6245,-2619 11336,-2619 4425,0 10576,754 13845,1987 5570,2098 7355,4768 7355,10355 0,13714 -21971,16132 -31725,9990 -2829,-1783 -6381,-5259 -6381,-9721zm2951 -55009c0,-6911 3319,-13683 9930,-13683 3435,0 4643,-48 7790,1602 3211,1684 5054,4924 6057,8433 2189,7671 958,20823 -10360,20823 -8649,0 -13417,-8404 -13417,-17175zm-11540 1613c0,8691 1758,13930 8425,18408 4569,3067 9187,1602 51,6971 -4054,2378 -6857,2905 -4178,7622 1394,2455 5102,5281 7778,5908 -116,1394 -1630,1822 -3949,3563 -4581,3441 -10542,6741 -10542,13609 0,10222 11724,17442 22811,17442l3755 0c14409,0 33010,-11977 33010,-26567 0,-4841 -1361,-9076 -4711,-11659 -6200,-4771 -10698,-3798 -17717,-4822 -2330,-340 -4683,-181 -7018,-498 -3691,-496 -10540,161 -10540,-5023 0,-4111 7353,-3646 9817,-4139 10908,-2186 20509,-9958 20509,-21889l-309 -5327c-74,-521 -151,-952 -307,-1601l-229 -1128c-37,-1398 6032,1936 9649,-1925 2854,-3053 1706,-6732 1661,-8802 -916,244 -870,522 -1610,1072 -2730,2035 -5139,2146 -8586,2146 -8258,0 -9564,-4292 -22275,-4292 -5459,0 -13978,3560 -17141,5936 -4487,3376 -8354,8725 -8354,14995zm-272918 -13955c0,1494 3572,2135 5792,3062 7475,3123 4297,4793 4955,12755 521,6293 -15,10560 -15,17190 0,3203 -150,5635 -263,8589 -119,3030 -1508,4082 -4130,4725 -4658,1145 -6463,-280 -4998,6004 1350,0 1851,-281 3481,-275 5919,26 12609,-700 18564,-31 1092,122 2588,37 3722,31 1633,-6 2138,275 3484,275 692,-1440 536,-3436 536,-5100 -1151,-22 -3765,-544 -4839,-793 -5253,-1233 -3676,-3833 -4056,-7217 -511,-4544 -227,-23494 -227,-29019 0,-2009 527,-2996 1681,-3954 4209,-3489 13396,-6687 19417,-2650 1681,1125 3198,2863 4020,4833 2089,5026 1573,6976 1709,11440 43,1500 284,2424 275,4284 -3,1431 28,2880 11,4305l-277 8578c11,1879 -236,2656 -270,4292 -68,3347 -1125,4419 -3818,5034 -4657,1066 -6508,-343 -5037,5967 1531,0 1857,-269 3489,-269 4320,0 22709,-377 25492,269 825,-1715 964,-3268 536,-5100 -1454,-31 -5737,-1091 -6724,-1590 -2574,-1307 -2131,-2577 -2131,-6191 2,-9876 226,-19196 -272,-28976 -151,-2919 -2002,-3129 5456,-6624 6307,-2959 14213,-2427 18437,3934 3399,5114 2409,19962 2409,27641 0,8354 63,9564 -4118,10911 -947,303 -3198,876 -4199,895 -70,842 -269,956 -269,1880 0,1488 269,1590 269,2951l16371 -267c3364,0 6035,284 9124,267 2549,-20 4292,1788 4292,-4831 -1553,-34 -4850,-799 -6276,-1238 -4382,-1347 -3654,-3640 -3654,-8419 0,-2594 3,-5190 0,-7784 -6,-10307 2140,-23916 -6233,-32140 -3544,-3478 -7716,-4620 -13088,-4620 -4858,0 -11764,3798 -15619,6384 -6046,4059 -3954,4033 -7186,-219 -833,-1097 -1856,-2117 -2951,-2953 -6925,-5293 -13974,-3328 -21027,187l-6466 3997c-6230,4725 -1550,-3595 -3373,-7396l-11217 3274c-4598,1159 -10789,1239 -10789,3702zm539934 22272l0 -13686c0,-1947 5366,-1341 7784,-1341 12529,0 26297,4406 26297,18514 0,4904 -382,8475 -3104,12461 -467,683 -1494,1981 -2100,2460 -6463,5105 -14032,5587 -22156,3850 -6503,-1389 -6437,-7838 -6443,-12875 -3,-1755 -289,-2586 -278,-4553 6,-1610 0,-3220 0,-4830zm13150 -21467l-8855 0c-1786,0 -2325,-269 -4026,-269 -498,-2146 -354,-5471 -277,-8059l277 -8042c0,-2772 0,-5545 0,-8317 -2,-7231 -62,-6171 9392,-6171 10876,0 18516,6194 18516,16637 0,9694 -5539,14221 -15027,14221zm-39986 -32202l8845 1355c3016,635 4305,2520 4305,6160l0 52864c12,2043 -283,2916 -275,4821 40,9468 -22,10851 -7880,11977 -2307,331 -2724,-519 -3753,1346 -907,1644 -1242,2787 -1242,4663 12586,0 24529,536 37302,536 13915,0 30875,-5970 36533,-18210 5048,-10925 1769,-22155 -8031,-28267 -2200,-1372 -7529,-3764 -9983,-3969 481,-663 2996,-1734 4668,-2846 1520,-1006 3064,-2273 4150,-3631 3702,-4634 4598,-6775 4598,-13113 0,-12702 -12824,-19052 -23616,-19052 -3070,0 -20627,-178 -22470,74 -3535,485 -14496,65 -18884,-340 -2158,-201 -2328,377 -3022,1777 -527,1063 -1213,2452 -1245,3855zm-56086 76746c-5613,0 -14315,-1142 -16379,-5627 -1564,-3407 -898,-5221 -1258,-7863l0 -54596c830,-6077 -2163,-7134 7999,-7852l9720 720c9255,1341 15024,4088 21456,10483 12977,12900 12081,39509 3149,52124 -2361,3336 -4629,5629 -8099,7999 -4121,2815 -9725,4612 -16588,4612zm-46157 -76746c3532,295 11866,1160 13428,4553 1148,2497 683,4663 785,8070l287 20931c-3,1724 -290,2398 -281,4278 31,6919 638,12926 17,20412 -145,1741 -14,4085 -14,5891 0,2185 -176,3869 -264,5638 -221,4518 -978,6023 -4822,6984 -1060,264 -4283,431 -4884,1018 -1031,1003 -1570,3475 -1570,5411 10508,0 22416,536 33009,536 16773,0 27590,-1964 39714,-10466 10341,-7251 17178,-20497 17178,-33273 0,-8640 -142,-14836 -4116,-22719 -1318,-2617 -2296,-4349 -3934,-6529 -321,-425 -681,-952 -1032,-1383l-3912 -4139c-4547,-3515 -6693,-5609 -13133,-7798 -6676,-2267 -11670,-3047 -19760,-3047 -7722,0 -14624,162 -22286,255l-5361 284c-2168,8 -3192,-287 -5360,-273 -4034,20 -7078,-266 -11007,-266 -950,1794 -2166,3421 -2682,5632zm-35030 -62733c-632,2729 907,14218 1528,17226 955,4652 3126,11367 7072,12413 3348,-2928 6211,-4570 10389,-8751 10040,-10057 15880,-18312 22416,-30438 4525,-8396 8944,-22108 10605,-32945 1876,-12262 2149,-31473 -989,-43940 -2305,-9150 -5562,-20497 -9621,-28939 -6622,-13773 -8260,-17189 -18029,-30172 -2644,-3515 -9927,-11477 -13691,-15230 -3433,-3419 -5652,-7050 -7841,-11438l-2659 -5652c-382,-681 -240,-417 -555,-774 470,8087 1165,11911 1383,21274l978 67476c60,23051 896,44683 57,67811 -267,7356 -890,14867 -1043,22079z"/>
 </g>
</svg>
