<?xml version="1.0" encoding="UTF-8"?>
<!DOCTYPE svg PUBLIC "-//W3C//DTD SVG 1.1//EN" "http://www.w3.org/Graphics/SVG/1.1/DTD/svg11.dtd">
<!-- Creator: CorelDRAW X8 -->
<svg xmlns="http://www.w3.org/2000/svg" xml:space="preserve" width="60px" height="60px" version="1.1" style="shape-rendering:geometricPrecision; text-rendering:geometricPrecision; image-rendering:optimizeQuality; fill-rule:evenodd; clip-rule:evenodd"
viewBox="0 0 600000 600000"
 xmlns:xlink="http://www.w3.org/1999/xlink">
 <defs>
  <style type="text/css">
   <![CDATA[
    .fil0 {fill:#fff}
   ]]>
  </style>
 </defs>
 <g id="Layer_x0020_1">
  <metadata id="CorelCorpID_0Corel-Layer"/>
  <g id="_2348762641200">
   <path class="fil0" d="M6361 424600c0,0 19349,0 19349,0 0,0 0,-76402 0,-76402 0,0 29951,66606 29951,66606 3535,8061 8374,10913 17859,10913 9490,0 14139,-2852 17677,-10913 0,0 29950,-66606 29950,-66606 0,0 0,76402 0,76402 0,0 19350,0 19350,0 0,0 0,-76278 0,-76278 0,-7441 -2979,-11038 -9116,-12897 -14698,-4590 -24560,-621 -29024,9303 0,0 -29393,65733 -29393,65733 0,0 -28466,-65733 -28466,-65733 -4277,-9924 -14323,-13893 -29021,-9303 -6140,1859 -9116,5456 -9116,12897 0,0 0,76278 0,76278z"/>
   <path class="fil0" d="M156583 362413c0,0 19341,0 19341,0 0,0 0,42092 0,42092 -178,2288 735,7654 11333,7821 5409,85 41735,0 42072,0 0,0 0,-50117 0,-50117 0,0 19389,0 19389,0 88,0 -20,68347 -20,68636 108,16855 -20914,20517 -30603,20801 0,0 -61092,0 -61092,0 0,0 0,-13017 0,-13017 108,0 61047,14 61200,-3 12453,-1315 10982,-7503 10982,-9587 0,0 0,-5074 0,-5074 0,0 -41123,0 -41123,0 -19134,-176 -31317,-8527 -31467,-18133 -14,-890 411,-42999 -12,-43419z"/>
   <path class="fil0" d="M263629 424600c0,0 55624,0 55624,0 6511,0 12838,-1363 17861,-3722 8371,-3844 12464,-9051 12464,-15874 0,0 0,-14139 0,-14139 0,-5582 -4652,-10792 -13768,-14261 -4836,-1863 -10789,-2855 -16557,-2855 0,0 -23443,0 -23443,0 -7809,0 -11531,-2355 -12461,-7565 -187,-621 -187,-1117 -187,-1738 0,0 0,-8805 0,-8805 0,-496 0,-995 187,-1612 930,-3969 2977,-5086 9859,-5707 559,0 1301,-124 1860,-124 0,0 55256,0 55256,0 0,0 0,-12895 0,-12895 0,0 -54327,0 -54327,0 -7812,0 -11905,493 -15624,1610 -11537,3597 -16560,9303 -16560,19224 0,0 0,11288 0,11288 0,8683 9862,16124 26419,17858 1862,125 3722,247 5578,247 0,0 20095,0 20095,0 746,0 1488,0 2047,125 6140,499 8742,1613 10604,3846 1114,1114 1489,2231 1489,3473 0,0 0,11285 0,11285 0,1366 -930,3104 -2790,4589 -1675,1488 -4467,2483 -8186,2730 -746,0 -1304,124 -2047,124 0,0 -53393,0 -53393,0 0,0 0,12898 0,12898z"/>
   <path class="fil0" d="M470278 402152c0,13269 9859,20713 29764,22201 1859,122 3721,247 5581,247 0,0 50417,0 50417,0 0,0 0,-12898 0,-12898 0,0 -50788,0 -50788,0 -11347,0 -15628,-2854 -15628,-9674 0,0 0,-66725 0,-66725 0,0 -19346,0 -19346,0 0,0 0,66849 0,66849z"/>
   <path class="fil0" d="M361926 402827c0,0 0,-45984 0,-45984 0,-11681 8203,-18768 24420,-21004 1679,-247 3547,-375 5222,-375 0,0 36726,0 36726,0 1862,0 3543,128 5405,375 16220,2236 24424,9323 24424,21004 0,0 0,45984 0,45984 0,9479 -3484,14553 -11515,17858 0,0 19061,17201 19061,17201 0,0 -22465,0 -22465,0 0,0 -15421,-13918 -15421,-13918 0,0 -15522,984 -15522,984 0,0 -20693,0 -20693,0 -3543,0 -7271,-496 -11373,-1616 -12302,-3354 -18269,-9819 -18269,-20509zm20883 -1117c0,621 187,1242 374,1990 1117,5343 6151,8326 13793,8326 0,0 17578,0 17578,0 0,0 -16146,-14576 -16146,-14576 0,0 22465,0 22465,0 0,0 14082,12713 14082,12713 2594,-1383 4303,-3498 4901,-6216 184,-621 184,-1242 184,-1863 0,0 0,-44121 0,-44121 0,-499 0,-1120 -184,-1743 -1120,-4969 -6154,-7827 -13609,-7827 0,0 -29271,0 -29271,0 -8574,0 -14167,3728 -14167,9570 0,0 0,43747 0,43747z"/>
   <path class="fil0" d="M573062 313904c-11891,-323 -20976,782 -28743,4059 -2208,930 -5729,955 -6089,3722 1213,1270 1403,3169 2367,4731 1854,3002 4986,7024 7778,9133 3053,2305 6200,4768 9471,6764 5819,3549 12319,5576 17923,9130 3303,2098 6582,4737 9805,7101 1594,1171 2665,2988 4734,3719 0,-110 0,-224 0,-337 -1085,-1383 -1366,-3288 -2367,-4734 -1462,-1466 -2928,-2931 -4396,-4397 -4298,-5706 -9754,-10717 -15554,-14879 -4626,-3322 -14978,-7806 -16909,-13189 -113,-114 -226,-227 -340,-338 3280,-371 7121,-1556 10148,-2367 5086,-1363 9627,-1012 14879,-2367 2367,-677 4734,-1354 7101,-2029 0,-454 0,-902 0,-1355 -2653,-2724 -4547,-6327 -7441,-8790 -7571,-6449 -15837,-12892 -24347,-18264 -4722,-2979 -10556,-4915 -15556,-7441 -1684,-848 -4641,-1290 -5752,-2704 -2627,-3351 -4059,-7597 -6086,-11500 -4243,-8176 -8413,-17102 -12175,-25702 -2565,-5865 -4240,-11648 -7438,-16909 -15355,-25248 -31884,-40485 -57489,-55463 -5449,-3186 -12008,-4445 -18942,-6086 -3716,-227 -7438,-453 -11157,-677 -2270,-950 -4634,-3728 -6763,-5074 -8484,-5358 -30240,-17014 -36522,-1690 -3968,9672 5927,19111 9465,24013 2486,3438 5667,7290 7441,11160 1168,2539 1369,5088 2367,7778 2460,6622 4598,13830 7778,19950 1607,3098 3379,6361 5412,9133 1247,1698 3381,2447 3719,5072 -2089,2922 -2209,7458 -3382,11160 -5284,16665 -3291,37380 4396,49714 2362,3787 7918,11908 15557,8793 6684,-2721 5190,-11157 7101,-18601 434,-1687 170,-2928 1015,-4056 0,110 0,223 0,337 2029,4059 4059,8115 6088,12172 4505,7257 12501,14839 19276,19956 3512,2653 6279,7240 10823,8793 0,-113 0,-224 0,-340 -116,0 -227,0 -340,0 -879,-1372 -2257,-1939 -3382,-3042 -2645,-2596 -5587,-5822 -7778,-8793 -6160,-8368 -11608,-17524 -16569,-27057 -2370,-4549 -4430,-9569 -6429,-14201 -768,-1786 -760,-4488 -2364,-5412 -2188,3393 -5411,6137 -7101,10146 -2707,6406 -3056,14218 -4059,22320 -592,212 -329,65 -678,337 -4708,-1137 -6366,-5984 -8115,-10145 -4428,-10520 -5250,-27460 -1352,-39566 1006,-3133 5561,-13003 3719,-15894 -879,-2889 -3784,-4558 -5412,-6767 -2009,-2727 -4019,-6318 -5411,-9470 -3623,-8201 -5315,-17408 -9130,-25699 -1823,-3966 -4907,-7974 -7438,-11500 -2807,-3904 -5945,-6778 -8119,-11498 -771,-1678 -1823,-4362 -675,-6089 363,-1162 879,-1646 2030,-2026 1962,-1514 7424,501 9468,1352 5423,2251 9949,4396 14542,7438 2205,1463 4436,4292 7100,5074 1015,0 2030,0 3045,0 4759,1094 10094,340 14542,1689 7860,2390 14907,6106 21305,10148 19491,12309 35430,29827 46332,50727 1752,3364 2512,6576 4057,10148 3118,7197 7044,14604 10142,21642 3096,7022 6112,14108 10485,19953 2302,3073 11183,4720 15220,6427 2829,1196 7463,2440 10145,4056 5119,3087 10080,6763 14882,10148 2398,1689 9777,5397 10142,8453z"/>
   <path class="fil0" d="M421899 185055c-2481,-46 -4235,272 -6089,674 0,114 0,227 0,341 113,0 227,0 337,0 1185,2429 3271,3994 4734,6088 1128,2367 2256,4734 3385,7101 110,-113 224,-227 337,-337 2095,-1477 3053,-3838 3041,-7441 -839,-884 -960,-1990 -1689,-3045 -967,-1403 -2837,-2199 -4056,-3381z"/>
   <path class="fil0" d="M565122 411334c0,8518 6730,14258 14259,14258 7529,0 14258,-5740 14258,-14258 0,-8515 -6729,-14256 -14258,-14256 -7529,0 -14259,5741 -14259,14256zm25325 0c0,6463 -4943,11293 -11066,11293 -6197,0 -11064,-4830 -11064,-11293 0,-6463 4867,-11293 11064,-11293 6123,0 11066,4830 11066,11293zm-7222 8138c0,0 3191,0 3191,0 0,0 -4674,-7149 -4674,-7149 2509,-266 4408,-1482 4408,-4447 0,-3308 -2089,-4678 -6120,-4678 0,0 -6350,0 -6350,0 0,0 0,16274 0,16274 0,0 2736,0 2736,0 0,0 0,-7035 0,-7035 0,0 2548,0 2548,0 0,0 4261,7035 4261,7035zm-6809 -9314c0,0 0,-4678 0,-4678 0,0 3155,0 3155,0 1638,0 3614,304 3614,2206 0,2279 -1789,2472 -3841,2472 0,0 -2928,0 -2928,0z"/>
  </g>
 </g>
</svg>
