<?xml version="1.0" encoding="UTF-8"?>
<!DOCTYPE svg PUBLIC "-//W3C//DTD SVG 1.1//EN" "http://www.w3.org/Graphics/SVG/1.1/DTD/svg11.dtd">
<!-- Creator: CorelDRAW X8 -->
<svg xmlns="http://www.w3.org/2000/svg" xml:space="preserve" width="60px" height="60px" version="1.1" style="shape-rendering:geometricPrecision; text-rendering:geometricPrecision; image-rendering:optimizeQuality; fill-rule:evenodd; clip-rule:evenodd"
viewBox="0 0 600000 600000"
 xmlns:xlink="http://www.w3.org/1999/xlink">
 <defs>
  <style type="text/css">
   <![CDATA[
    .fil0 {fill:#fff}
   ]]>
  </style>
 </defs>
 <g id="Layer_x0020_1">
  <metadata id="CorelCorpID_0Corel-Layer"/>
  <g id="_2348604633968">
   <path id="path22" class="fil0" d="M395395 32477c-511,5 -1024,127 -1480,394 -907,533 -1477,1511 -1477,2562l0 75391c0,740 -346,1400 -986,1774 -641,371 -1426,371 -2070,0l-12316 -7098c-1837,-1057 -4079,-1057 -5913,0l-49176 28384c-1840,1060 -2956,3101 -2956,5221l0 56764c0,2120 1119,4062 2956,5125l49176 28381c1837,1063 4073,1063 5910,0l49176 -28381c1836,-1063 2956,-3005 2956,-5125l0 -141514c0,-2152 -1173,-4173 -3053,-5222l-29271 -16359c-459,-258 -969,-300 -1476,-297l0 0zm-316339 70855c-939,39 -1820,204 -2662,691l-49176 28381c-1831,1060 -2956,2990 -2956,5125l99 76176c0,1060 547,2043 1480,2565 912,544 2043,544 2953,0l29172 -16756c1848,-1097 3056,-3004 3056,-5122l0 -35578c0,-2120 1116,-4067 2956,-5122l12416 -7194c927,-536 1922,-788 2956,-788 1015,0 2056,252 2957,788l12416 7194c1842,1055 2956,3002 2956,5122l0 35578c0,2118 1219,4037 3056,5122l29172 16756c915,544 2046,544 2956,0 904,-522 1477,-1505 1477,-2565l99 -76176c0,-2137 -1111,-4065 -2956,-5125l-49176 -28381c-831,-487 -1715,-652 -2659,-689l-592 0 0 -2zm441888 691c-1029,-3 -2035,258 -2956,788l-49176 28384c-1837,1060 -2956,3002 -2956,5122l0 56764c0,2134 1202,4070 3055,5125l48782 27791c1800,1026 4000,1105 5814,96l29562 -16458c939,-518 1574,-1491 1579,-2562 6,-1069 -552,-2030 -1479,-2563l-49471 -28380c-927,-528 -1576,-1599 -1576,-2662l0 -17736c0,-1063 658,-2033 1576,-2563l15373 -8870c915,-530 2038,-530 2956,0l15375 8870c919,530 1477,1500 1477,2563l0 13991c0,1063 561,2036 1480,2563 921,533 2038,533 2956,0l29464 -17147c1831,-1063 2956,-3007 2956,-5122l0 -13700c0,-2115 -1122,-4062 -2956,-5125l-48878 -28381c-921,-533 -1931,-788 -2957,-788l0 0zm-147033 42376c258,0 558,62 788,195l16852 9757c456,264 788,751 788,1281l0 19511c0,530 -329,1018 -788,1281l-16852 9757c-459,261 -1021,261 -1477,0l-16852 -9757c-459,-263 -788,-751 -788,-1281l0 -19511c0,-530 332,-1014 788,-1281l16852 -9754c230,-133 434,-196 689,-196l0 -2z"/>
   <path id="path28" class="fil0" d="M299586 219864c-4691,0 -9247,970 -13280,3254l-127628 73702c-8260,4756 -13277,13745 -13277,23306l0 147138c0,9556 5017,18533 13277,23307l33330 19239c16195,7979 22167,7857 29534,7857 23979,0 37667,-14547 37667,-39832l0 -145242c0,-2052 -1777,-3524 -3792,-3524l-15991 0c-2046,0 -3793,1472 -3793,3524l0 145242c0,11208 -11670,22476 -30617,13005l-34684 -20324c-1228,-666 -2169,-1846 -2169,-3252l0 -147138c0,-1395 930,-2818 2169,-3523l127355 -73435c1196,-686 2611,-686 3793,0l127358 73435c1216,728 2168,2083 2168,3523l0 147138c0,1406 -705,2846 -1899,3524l-127627 73435c-1092,649 -2603,649 -3793,0l-32786 -19511c-978,-573 -2310,-531 -3254,0 -9048,5130 -10752,5728 -19236,8674 -2092,728 -5267,1859 1086,5419l42809 25201c4076,2358 8617,3520 13280,3520 4726,0 9201,-1162 13275,-3520l127630 -73435c8260,-4805 13278,-13751 13278,-23307l0 -147138c0,-9561 -5018,-18527 -13278,-23306l-127630 -73702c-4000,-2284 -8586,-3254 -13275,-3254l0 0zm-72808 -116135c-1023,0 -2038,257 -2954,788l-49178 28281c-1837,1060 -2954,3104 -2954,5224l0 56764c0,2123 1117,4062 2954,5125l49178 28381c1837,1060 4071,1060 5913,0l49173 -28381c1834,-1063 2960,-3005 2960,-5125l0 -56764c0,-2123 -1123,-4164 -2960,-5224l-49173 -28281c-918,-531 -1936,-788 -2959,-788zm106949 221273c-36343,0 -57989,15468 -57989,41190 0,27902 21484,35566 56364,39019 41732,4085 44981,10210 44981,18425 0,14247 -11356,20325 -38206,20325 -33729,0 -41145,-8422 -43628,-25203 -292,-1797 -1681,-3249 -3521,-3249l-16531 0c-2038,0 -3793,1752 -3793,3793 0,21478 11684,46880 67473,46880 40386,0 63681,-15855 63681,-43626 0,-27538 -18819,-34928 -57992,-40104 -39583,-5239 -43353,-7804 -43353,-17074 0,-7650 3195,-17883 32517,-17883 26186,0 35864,5646 39832,23303 346,1661 1811,2982 3526,2982l16526 0c1021,0 2007,-623 2710,-1355 695,-782 1180,-1658 1083,-2710 -2557,-30407 -22836,-44713 -63677,-44713l-3 0zm187118 -170618c-195,0 -414,0 -590,96l-9462 5519c-354,202 -589,576 -589,987l0 10839c0,406 235,780 589,984l9462 5420c355,204 732,204 1083,0l9462 -5420c349,-204 590,-578 590,-984l0 -10839c0,-411 -241,-785 -590,-987l-9462 -5519c-175,-105 -297,-96 -493,-96z"/>
  </g>
 </g>
</svg>
