<?xml version="1.0" encoding="UTF-8"?>
<!DOCTYPE svg PUBLIC "-//W3C//DTD SVG 1.1//EN" "http://www.w3.org/Graphics/SVG/1.1/DTD/svg11.dtd">
<!-- Creator: CorelDRAW 2020 (64-Bit) -->
<svg xmlns="http://www.w3.org/2000/svg" xml:space="preserve" width="360px" height="137px" version="1.1" style="shape-rendering:geometricPrecision; text-rendering:geometricPrecision; image-rendering:optimizeQuality; fill-rule:evenodd; clip-rule:evenodd"
viewBox="0 0 36000000 13700000"
 xmlns:xlink="http://www.w3.org/1999/xlink"
 xmlns:xodm="http://www.corel.com/coreldraw/odm/2003"
 xmlns:svg="http://www.w3.org/2000/svg">
 <defs>
  <style type="text/css">
   <![CDATA[
    .fil0 {fill:#fff}
    .fil1 {fill:#fff;fill-rule:nonzero}
   ]]>
  </style>
 </defs>
 <g id="Layer_x0020_1">
  <metadata id="CorelCorpID_0Corel-Layer"/>
  <path class="fil0" d="M10154200 2949000c-11000,106000 -13800,222600 -20400,330700 -76600,1274200 -133600,2458500 -66100,3743200 23300,442400 67000,885700 88100,1326700 15700,-1500 362400,-167200 379000,-181600 9500,-19200 58400,-1207300 63800,-1336300 55400,-1304100 -37300,-2415600 -98900,-3699600 -5300,-110800 -17400,-222200 -21900,-330500 -107900,49100 -215700,98200 -323600,147400zm5671500 6552000c-38700,31800 -178700,10900 -238000,10900 300,79200 700,158400 1100,237700 359900,0 720000,0 1079900,-200 -300,-78700 -500,-157600 -700,-236400 -87000,700 -233200,20400 -288200,-25500 -35700,-63100 -33100,-1221000 0,-1311800 100300,-35900 181200,-5600 287700,-24000 700,-60400 13700,-181700 -7300,-229200 -357000,500 -714100,1000 -1071200,1500 -100,76500 -200,152900 -400,229400 150300,24600 299600,-57500 308400,114900 10500,208500 16900,1147300 -21300,1230000 -16700,900 -33300,1800 -50000,2700zm4358900 -41800c5500,110700 -183400,65800 -293900,76400 700,73000 1300,145900 2000,218900 358500,100 717000,400 1075500,400 -200,-74100 -400,-148500 -500,-222700 -100600,1200 -204700,9900 -284400,-19200 -35100,-98100 -30200,-1174800 -17800,-1353500 705700,-24900 621800,-15900 632500,459700 72400,2200 144800,4300 217200,6500 300,-233500 800,-467000 1100,-700400 -724500,0 -1449000,0 -2173500,0 300,231400 600,462800 1000,694200 74200,700 148300,1400 222400,2100 200,-136400 -32400,-411400 99500,-450000 71200,-20900 440900,-17800 530300,-11100 900,14200 13900,1211700 -4100,1279900 -2400,6300 -4900,12500 -7300,18800zm-3299100 -902700c-116700,418300 44800,880600 427800,1098600 260600,148300 623500,210700 917600,180300 292300,-30100 557900,-165100 713800,-395200 38000,-55900 96400,-169300 97700,-252600 -70300,-200 -140700,-600 -211000,-800 -50000,325700 -541900,514400 -936400,386600 -329200,-106700 -574500,-420700 -513400,-869500 94400,-693000 864900,-795900 1277200,-470000 50400,39900 115900,123600 142300,208700 27200,87100 -34800,132500 218100,106100 -1200,-207600 -2500,-415200 -3800,-622700 -66900,-400 -133900,-700 -200800,-1100 -3700,37500 -7400,74900 -11100,112400 -58900,8200 -61600,-7300 -98400,-37000 -80000,-64800 -201800,-107800 -333200,-134900 -575400,-118400 -1310100,59300 -1486400,691100zm6346700 -629300c-800,76200 -1500,152300 -2200,228600 284000,26100 307900,-80100 306900,250700 -500,191800 -900,383600 -1300,575400 -900,371100 32800,610000 -495500,637900 -178900,9500 -351500,-36400 -424000,-139000 -96100,-135700 -74400,-312100 -74400,-498900 0,-1009400 -59000,-794600 308000,-826300 -700,-76200 -1500,-152300 -2200,-228500 -358300,-2000 -716600,-4000 -1074900,-6000 -300,79300 -700,158500 -1000,237800 95700,-300 208200,-9600 285700,17000 84100,235800 -51400,983300 76600,1286800 134900,320100 549400,387500 979900,365000 861600,-44900 735300,-595400 727600,-1296100 -4600,-416800 200,-373600 303500,-373200 -1200,-79100 -2400,-158100 -3700,-237300 -303000,2000 -606000,4100 -909000,6100zm-9367900 236900c209200,200 423700,-4800 632100,100 451500,10800 472300,531100 -12200,555800 -198400,10200 -418300,1100 -619200,1600 -200,-185800 -500,-371700 -700,-557500zm19800 1329800c-38100,-94000 -17200,-401400 -19800,-529700 312500,3200 858100,29500 1135100,-54800 159900,-48700 271700,-133000 320800,-279700 49200,-146900 38600,-380300 -34600,-500000 -152800,-249800 -656400,-203300 -989500,-203300 -397900,0 -796200,2000 -1193800,-200 700,80600 1400,161200 2100,241800 209100,-1300 291100,-30500 296700,112500 5100,128800 -400,270900 -400,401200 0,926100 86200,833100 -306300,831400 -700,79100 -1400,158300 -2100,237400 360400,200 720900,200 1081300,200 200,-75600 15100,-166500 -5200,-237800 -92000,1100 -209500,10700 -284300,-19000zm17360700 -323800c153800,119000 63100,328700 -256100,417700 -366500,102200 -1019800,-135500 -1015600,-510700 -74700,-100 -149400,-100 -224100,-200 2000,226700 4100,453400 6100,680000 80800,100 161700,200 242600,200 2500,-34000 4900,-68200 7400,-102300 74100,-11800 244900,76600 339000,103400 1226700,348300 1701400,-575000 1107600,-982700 -316200,-217000 -1255800,-94500 -1323300,-378100 -91300,-384500 1190500,-452300 1277700,184400 65800,-1700 131700,-3400 197500,-5000 -700,-209800 -1300,-419700 -2000,-629500 -69400,1700 -138900,3200 -208200,4800 -2600,35900 -5000,71700 -7600,107600 -49600,6900 -268600,-99300 -354700,-126400 -392500,-123800 -880200,-76200 -1176900,169900 -193900,160800 -216700,493900 -22100,691000 361100,365900 1190700,204300 1412700,375900zm-3869400 296200c-18100,89300 -135400,40700 -291800,56900 200,76900 400,153800 600,230600 280000,29300 2029300,-24300 2171800,8800 -1000,-233700 -2100,-467400 -3100,-701000 -67100,900 -134400,1800 -201500,2800 -49300,345300 53500,459800 -370200,458200 -256400,-1000 -572600,13900 -822900,-6500 -500,-191100 -900,-382300 -1300,-573500 130100,-8100 292600,-4500 424800,-2300 152700,2600 132800,103900 124100,309200 67500,100 135100,100 202700,200 -100,-286200 -200,-572500 -200,-858700 -67100,500 -134200,1100 -201400,1600 2100,153400 45800,303100 -125300,305900 -132800,2200 -294100,6100 -423600,-1700 -600,-181700 -1200,-363300 -1800,-544900 260000,-15300 560400,-900 824900,-1100 328500,-300 360900,27200 367000,468100 70100,400 140200,800 210300,1100 100,-231100 200,-462300 300,-693500 -725100,-100 -1450200,-100 -2175200,-300 -400,79600 -800,159300 -1200,239000 198600,-400 301700,-34600 308300,103800 10900,226700 1900,829300 600,1114100 -200,46800 6500,55100 -15900,83200zm-2213000 -1301300c173700,-13800 424800,-5600 604000,-2000 421600,8400 467500,543500 -11900,558300 -137500,4200 -475300,14700 -596600,-4700 1500,-183900 3000,-367800 4500,-551600zm-760400 -4100c53500,-13300 195300,-21100 243000,3900 58600,30600 48800,122100 48500,191700 -700,162400 -100,325200 -100,487800 0,763200 70800,671300 -307000,668200 500,81500 1100,163000 1600,244400 359500,-100 719100,-300 1078600,-500 -2600,-80500 -5200,-160900 -7800,-241400 -124100,-7000 -271700,37700 -297700,-63700 -11700,-45800 -2200,-465600 1700,-485400 130300,-9300 583400,-12600 690400,16400 252900,68600 111900,310300 173900,540100 53700,198700 213600,276600 452600,277900 285600,1600 335400,-81600 364700,-343200 -700,-69800 -1500,-139700 -2200,-209600 -62600,-100 -125100,-100 -187600,-100 -11000,94500 35900,290600 -63900,313400 -214300,49100 -42000,-420600 -178800,-573400 -91200,-102200 -141000,-63400 -240400,-118100 59100,-35800 194800,-30600 309200,-136400 83700,-77500 135000,-159500 130400,-326500 -8200,-294400 -160800,-416200 -434300,-460800 -245200,-40100 -1433300,-17000 -1781000,-19400 2100,78300 4100,156400 6200,234700zm-19598300 -2740800c200,1833300 300,3666400 500,5499600 43600,-20600 87100,-41200 130600,-61900 -200,-1832300 -400,-3664600 -600,-5497000 -43500,19800 -87000,39600 -130500,59300zm-612100 282900c200,1836400 300,3672800 500,5509100 43700,-20100 87400,-40400 131000,-60600 0,-1835900 -100,-3671900 -100,-5507900 -43800,19800 -87600,39600 -131400,59400zm1264800 -585000c-5300,770100 -100,1556300 -800,2332100 -100,193000 -155100,275000 -144600,503200 2200,47900 13700,90400 40100,117500 124500,127900 105300,107900 105600,374900 -800,720400 -1800,1440700 -2700,2161100 47100,-21800 94200,-43600 141200,-65400 5100,-117900 1100,-313700 1100,-439700 -100,-539800 -200,-1079500 -300,-1619300 -100,-78900 -10600,-296600 9700,-355500 29600,-86000 88400,-148600 120400,-246400 37800,-115400 30600,-212200 -32100,-294200 -107000,-139800 -100200,-139800 -100300,-351100 -100,-726100 -200,-1452300 -200,-2178500 -45700,20500 -91400,40900 -137100,61300zm25122200 1345700c-626800,700 -523600,129000 -523600,-483900 0,-252800 -36000,-226400 114100,-388400 310200,-334900 612600,-719700 908300,-1068500 278100,-312500 207800,-240300 731100,-256600 0,-128800 0,-257600 0,-386300 -542100,400 -1084200,900 -1626300,1300 -23900,17300 -19200,-21500 -19900,34500 0,115300 0,230600 0,346000 90900,17300 427100,-51800 310000,169100 -210700,247900 -421500,495700 -632200,743600 -24700,32400 -19100,38800 -58100,62100 -226800,-263400 -453700,-527000 -680400,-790500 -183000,-230600 192400,-178300 226400,-182600 100,-116000 100,-231800 100,-347700 -900,-61400 3800,-14600 -21400,-35100 -663700,-300 -1327500,-800 -1991300,-1200 -600,129400 -1200,258800 -1800,388300 132000,-1600 366000,-14100 479100,23800 115500,38600 198000,131700 272500,227800 278100,359000 689900,764900 1009900,1116900 97300,109200 82600,9000 82600,293400 0,105300 17600,429700 -9400,502600 -20800,25300 1800,16600 -47400,28000 -173000,1600 -345800,3200 -518800,5000 400,126000 700,252000 1100,378000 663700,700 1327400,1300 1991200,2000 1400,-127200 2800,-254400 4200,-381600zm-11066300 -2290500c779100,-95600 1357600,323000 1442500,1001100 97900,782400 -366800,1288500 -1049700,1387600 -771800,111900 -1342000,-327700 -1430600,-996000 -103200,-778300 350500,-1308500 1037800,-1392700zm-2036400 1281100c58900,783200 611200,1212200 1293400,1418300 1425600,430900 3621700,-228700 3050100,-1986400 -118000,-362600 -349000,-598100 -598400,-765400 -797500,-534900 -2057700,-521300 -2882800,-78500 -573000,307400 -878500,746400 -862300,1412000zm-3813800 21100c352400,130600 677100,145600 1046800,217300 228300,19300 1072200,83100 1214200,173200 164900,104600 191800,308300 54600,469600 -248000,291600 -1631600,310700 -2187100,-150700 -122800,-102000 -232400,-214200 -236700,-455400 -141900,1000 -283800,2000 -425600,3000 33700,128400 -14200,889600 10600,1118900 154200,-700 308400,-1500 462600,-2300 4800,-53900 9700,-107800 14600,-161600 110500,-35100 383800,94800 514700,132600 542800,156500 1206500,209900 1750400,81700 1171900,-276200 1356400,-1458300 204800,-1798700 -465700,-137600 -1087600,-155400 -1583300,-217700 -217100,-27400 -588100,-58700 -633200,-258100 -111800,-494500 1313600,-616300 2022100,-218100 150500,84500 377900,271100 391500,499600 126700,100 253400,100 380100,200 -2200,-341800 -4400,-683500 -6600,-1025300 -131200,-100 -262400,-100 -393600,-300 -5200,80900 10200,105900 -26700,170600 -97900,26500 -124900,-22300 -189700,-62400 -54500,-33700 -124300,-60600 -191700,-83400 -671200,-226800 -1707000,-245200 -2332900,84800 -709600,374200 -625700,1198700 140100,1482500zm8673100 -1201300c82800,-10300 341200,-11600 423500,-600 164000,21900 154900,112600 154000,267700 100,558700 100,1117500 100,1676300 1100,365500 -171400,234800 -571400,263700 0,121300 -200,242600 -300,364100 582200,-1100 1164500,-2200 1746700,-3200 -700,-101800 -14500,-284000 7800,-374600 -631200,-47300 -594300,180600 -594300,-537800 0,-372000 -8100,-753200 800,-1124100 47500,22200 75500,65700 123000,100900 525000,461400 2017300,1938800 2416800,1938800 113600,0 227200,-200 340900,100 -200,-789100 -300,-1578200 -500,-2367200 1000,-125400 29800,-215900 159800,-220100 127100,-4000 260600,1100 387300,0 2400,-127800 4800,-255700 7200,-383600 -566100,0 -1132100,0 -1698200,-200 500,126500 900,252800 1400,379300 110600,0 407400,-15900 486400,27700 115100,63400 76100,294300 76100,422600 0,336800 -2900,674900 800,1011400 -54000,-23600 -83000,-76800 -129600,-117400 -83800,-74900 -167500,-149700 -251300,-224500 -46200,-40600 -70500,-76000 -120700,-116900 -163900,-152700 -328000,-305500 -492000,-458300 -55500,-46500 -75100,-59700 -130000,-120200 -211200,-195300 -710300,-598700 -858900,-803500 -495900,0 -991800,-200 -1487700,-200 800,133300 1500,266500 2300,399800zm-16204300 533100c-4200,431100 600,887400 700,1317100 0,823300 -307300,1215500 -124800,2181700 18900,99900 40100,197700 60500,296100 62500,302600 48300,292200 48300,587800 -200,366300 -300,732700 -400,1099200 15900,-2600 141300,-64000 153000,-73400 -5600,-252100 300,-651300 300,-905300 0,-146800 200,-293500 200,-440200 100,-107400 21300,-226100 37400,-330800 190500,-1230600 -32700,-1608400 -31500,-2682400 400,-371800 800,-743600 1200,-1115400 -48300,21900 -96600,43700 -144900,65600zm678100 -314000c1800,456600 16400,980000 -49600,1422300 -64900,435400 -157000,846400 -171400,1299400 -15100,474900 47400,898000 116800,1351400 72600,474400 70900,584900 70700,1037500 -100,113900 -8400,259700 600,369500 49600,-23400 99100,-46700 148600,-70000 -14300,-475800 10700,-925900 61700,-1389800 47700,-433700 116200,-889800 121300,-1330700 5500,-464300 -65700,-886200 -114000,-1336300 -45900,-427900 -52300,-982800 -32400,-1420700 -50800,22500 -101500,45000 -152300,67400zm689400 -317800c-800,302500 -111300,981400 -151600,1333100 -118000,1031800 -132100,1759900 -34400,2796500 41500,439500 127800,904600 152300,1337500 61000,-28800 121900,-57400 182800,-86200 19500,-436700 93000,-897400 129400,-1338900 82600,-1003400 88900,-1792700 -3400,-2795300 -40500,-439500 -111000,-873700 -126500,-1313600 -49600,22400 -99000,44600 -148600,66900zm638300 -294700c-4700,107500 -19300,222100 -28800,330300 -138000,1576800 -173600,2869600 -37500,4447900 18700,217600 50200,444900 62900,660300 14400,-900 272700,-124200 296100,-139800 15200,-82800 68100,-1245900 71700,-1342600 38900,-1068300 52500,-1678600 -20900,-2755200 -1500,-22100 -100300,-1259800 -110100,-1308000 -77800,35700 -155600,71400 -233400,107100zm2699100 -1105000c-36400,1353800 -177000,2583300 -106400,3956500 19800,407600 12800,918800 62900,1314000 122200,-58300 244400,-116600 366600,-174800 21400,-400700 42700,-801400 64000,-1202100 50000,-1306500 41900,-2347700 -37500,-3663200 -10000,-165200 -26900,-354900 -27000,-518300 -20000,3500 -298500,133300 -321300,148000 -500,46700 -900,93300 -1300,139900zm-1342500 5893900c120400,-57300 240700,-114700 361000,-172100 30200,-441600 42400,-896200 57400,-1340600 34000,-1013800 38300,-1710200 -23200,-2726100 -13400,-219500 -30600,-437500 -46700,-656500 -15800,-216000 -42200,-440800 -50900,-654500 -29300,5500 -99700,43600 -131600,57800 -45200,20000 -87400,41800 -132600,61200 -40700,17500 -35600,8500 -38400,55700 -21700,329300 -43500,658600 -65200,987800 -64100,1128800 -100400,1809000 -30300,2953100 29800,445100 33000,1002500 100500,1434200zm-692100 331700c113600,-54000 227200,-108000 340900,-162000 66900,-1895600 15500,-3529300 -39100,-5401100 -98100,43700 -196200,87300 -294200,131000 -18800,11100 -12600,2300 -14600,31600 -89500,1348400 -172900,2613400 -100900,3970000 25400,479200 72300,955200 107900,1430500z"/>
  <path class="fil1" d="M1400000 43700l4819300 0 -327200 212600 -4492100 0c-300700,0 -574100,123100 -772400,321300 -198200,198300 -321300,471700 -321300,772400l0 2536100 -212600 138100 0 -2674200c0,-359300 146900,-686000 383600,-922700 236700,-236700 563400,-383600 922700,-383600zm-1093700 9770200l0 2536100c0,300600 123100,574100 321300,772400 198300,198200 471700,321300 772400,321300l4492100 0 327200 212600 -4819300 0c-359300,0 -686000,-147000 -922700,-383600 -236700,-236700 -383600,-563400 -383600,-922700l0 -2674200 212600 138100zm29474400 -9770200l4819300 0c359300,0 686000,146900 922700,383600 236700,236700 383600,563400 383600,922700l0 2674200 -212600 -138100 0 -2536100c0,-300700 -123000,-574100 -321300,-772400 -198200,-198200 -471700,-321300 -772400,-321300l-4492100 0 -327200 -212600zm6125600 9632100l0 2674200c0,359300 -146900,686000 -383600,922700 -236700,236600 -563400,383600 -922700,383600l-4819300 0 327200 -212600 4492100 0c300700,0 574200,-123100 772400,-321300 198300,-198300 321300,-471800 321300,-772400l0 -2536100 212600 -138100z"/>
 </g>
</svg>
