<?xml version="1.0" encoding="UTF-8"?>
<!DOCTYPE svg PUBLIC "-//W3C//DTD SVG 1.1//EN" "http://www.w3.org/Graphics/SVG/1.1/DTD/svg11.dtd">
<!-- Creator: CorelDRAW 2020 (64-Bit) -->
<svg xmlns="http://www.w3.org/2000/svg" xml:space="preserve" width="360px" height="137px" version="1.1" style="shape-rendering:geometricPrecision; text-rendering:geometricPrecision; image-rendering:optimizeQuality; fill-rule:evenodd; clip-rule:evenodd"
viewBox="0 0 36000000 13700000"
 xmlns:xlink="http://www.w3.org/1999/xlink"
 xmlns:xodm="http://www.corel.com/coreldraw/odm/2003"
 xmlns:svg="http://www.w3.org/2000/svg">
 <defs>
  <style type="text/css">
   <![CDATA[
    .fil0 {fill:#fff}
    .fil1 {fill:#fff;fill-rule:nonzero}
   ]]>
  </style>
 </defs>
 <g id="Layer_x0020_1">
  <metadata id="CorelCorpID_0Corel-Layer"/>
  <g id="_2051091099712">
   <path class="fil0" d="M13326500 8923500l-2595500 0c-78600,0 -142400,-62700 -142400,-140100l0 -3833100c0,-77400 63800,-140100 142400,-140100l2574700 100c78600,0 142500,62700 142500,140100l0 57700c0,77400 -63900,140200 -142500,140200l-2210200 -100c-78700,0 -142400,62700 -142400,140100l0 1256400c0,77500 63700,140100 142400,140100l2138500 -100c78700,0 142400,62700 142400,140200l0 54700c0,77400 -63700,140100 -142400,140100l-2138500 0c-78700,0 -142400,62700 -142400,140100l0 1285800c0,77500 63700,140200 142400,140200l2231000 -200c78800,0 142500,62700 142500,140200l0 57600c0,77400 -63900,140100 -142500,140100z"/>
   <g>
    <path class="fil0" d="M18588200 8923500l-79400 0c-78700,0 -142500,-62700 -142500,-140100l0 -3382700c0,-44600 -61300,-58500 -81200,-18400l-1475500 2974900c-23900,48200 -73500,78700 -127900,78700l-207800 0c-54400,0 -104000,-30400 -128000,-78400l-1475400 -2958600c-20000,-40000 -81200,-26000 -81200,18500l0 3366100c0,77400 -63800,140100 -142400,140100l-79500 -100c-78700,0 -142500,-62700 -142500,-140100l0 -3833100c0,-77400 63800,-140100 142500,-140100l318600 100c54300,0 103900,30300 127800,78200l1437600 2871600c52300,104300 203500,104300 255700,-100l1434800 -2871300c24000,-48000 73500,-78300 127800,-78300l318500 -100c78800,0 142500,62700 142500,140100l0 3833100c0,77400 -63700,140100 -142500,140100l0 -100zm0 0l0 0 0 0z"/>
   </g>
   <path class="fil0" d="M20435300 7136300l0 1309300c0,77500 63800,140200 142500,140200l1163200 -200c681300,0 1129500,-199800 1129500,-796300 0,-596300 -448300,-793100 -1129500,-793100l-1163300 0c-78800,0 -142500,62600 -142500,140100l100 0zm0 -1848100l0 1232900c0,77400 63800,140100 142500,140100l1100500 0c639500,0 1108600,-173400 1108600,-758100 0,-578800 -472100,-755000 -1111600,-755000l-1097600 100c-78800,0 -142500,62700 -142500,140100l100 -100zm1251900 -477900c869500,0 1479100,302600 1479100,1066500 0,421600 -206700,711800 -534400,861800 -56100,25700 -55500,104300 1600,127800 374600,152700 619500,460500 619500,934900 0,784500 -588700,1122300 -1497100,1122300l-1542800 -100c-78700,0 -142500,-62700 -142500,-140100l0 -3833100c0,-77400 63800,-140100 142500,-140100l1474100 100z"/>
   <g>
    <path class="fil0" d="M24635700 8923500l-79400 0c-78800,0 -142500,-62700 -142500,-140100l0 -3833100c0,-77400 63700,-140100 142500,-140100l79400 100c78700,0 142500,62700 142500,140100l0 3833100c0,77400 -63800,140100 -142500,140100l0 -100zm0 0l0 0 0 0z"/>
   </g>
   <path class="fil0" d="M26515400 7136300l0 1309300c0,77500 63800,140200 142500,140200l1163200 -200c681400,0 1129600,-199800 1129600,-796300 0,-596300 -448300,-793100 -1129600,-793100l-1163200 0c-78700,0 -142500,62600 -142500,140100zm0 -1848100l0 1232900c0,77400 63800,140100 142500,140100l1100600 0c639500,0 1108500,-173400 1108500,-758100 0,-578800 -472100,-755000 -1111600,-755000l-1097500 100c-78700,0 -142500,62700 -142500,140100l0 -100zm1252000 -477900c869500,0 1479100,302600 1479100,1066500 0,421600 -206800,711800 -534400,861800 -56200,25700 -55500,104300 1600,127800 374500,152700 619500,460500 619500,934900 0,784500 -588800,1122300 -1497100,1122300l-1542700 -100c-78700,0 -142500,-62700 -142500,-140100l0 -3833100c0,-77400 63800,-140100 142500,-140100l1474000 100z"/>
   <path class="fil0" d="M33243100 8923500l-2595600 0c-78600,0 -142500,-62700 -142500,-140100l0 -3833100c0,-77400 63900,-140100 142500,-140100l2574600 100c78700,0 142400,62700 142400,140100l0 57700c0,77400 -63700,140200 -142400,140200l-2210100 -100c-78600,0 -142500,62700 -142500,140100l0 1256400c0,77500 63900,140100 142500,140100l2138400 -100c78700,0 142500,62700 142500,140200l0 54700c0,77400 -63900,140100 -142500,140100l-2138400 0c-78600,0 -142500,62700 -142500,140100l0 1285800c0,77500 63900,140200 142500,140200l2231100 -200c78600,0 142400,62700 142400,140200l0 57600c0,77400 -63800,140100 -142400,140100z"/>
   <path class="fil0" d="M5627800 9842700c-2378000,0 -3794400,-2747200 -2555100,-4581100 382600,-609300 984200,-1072200 1696000,-1281800 650800,-191500 1319200,-158500 1951800,98200 588500,238700 1083500,656400 1414500,1183600 194600,287800 338500,610000 420600,953500 36400,152100 25000,422100 25000,591800 0,384200 -601900,532200 -928300,533900l-2800 200 -1342500 0 -1406200 0 -1317000 0c208800,920400 1046000,1610500 2044000,1610500 250300,0 453100,199500 453100,445600 0,246000 -202800,445600 -453100,445600zm-1795000 -4095400c-127600,208200 -218800,440300 -264900,687700 12200,8900 30100,14800 55600,14800l1277300 0 1406200 0 1277200 0c25600,0 43400,-5900 55700,-14800 -46100,-247400 -137300,-479500 -264900,-687700 -883400,-1295600 -2658900,-1295400 -3542200,0z"/>
  </g>
  <path class="fil1" d="M1400000 43700l4819300 0 -327200 212600 -4492100 0c-300700,0 -574100,123100 -772400,321300 -198200,198300 -321300,471700 -321300,772400l0 2536100 -212600 138100 0 -2674200c0,-359300 146900,-686000 383600,-922700 236700,-236700 563400,-383600 922700,-383600zm-1093700 9770200l0 2536100c0,300600 123100,574100 321300,772400 198300,198200 471700,321300 772400,321300l4492100 0 327200 212600 -4819300 0c-359300,0 -686000,-147000 -922700,-383600 -236700,-236700 -383600,-563400 -383600,-922700l0 -2674200 212600 138100zm29474400 -9770200l4819300 0c359300,0 686000,146900 922700,383600 236700,236700 383600,563400 383600,922700l0 2674200 -212600 -138100 0 -2536100c0,-300700 -123000,-574100 -321300,-772400 -198200,-198200 -471700,-321300 -772400,-321300l-4492100 0 -327200 -212600zm6125600 9632100l0 2674200c0,359300 -146900,686000 -383600,922700 -236700,236600 -563400,383600 -922700,383600l-4819300 0 327200 -212600 4492100 0c300700,0 574200,-123100 772400,-321300 198300,-198300 321300,-471800 321300,-772400l0 -2536100 212600 -138100z"/>
 </g>
</svg>
