<?xml version="1.0" encoding="UTF-8"?>
<!DOCTYPE svg PUBLIC "-//W3C//DTD SVG 1.1//EN" "http://www.w3.org/Graphics/SVG/1.1/DTD/svg11.dtd">
<!-- Creator: CorelDRAW X8 -->
<svg xmlns="http://www.w3.org/2000/svg" xml:space="preserve" width="60px" height="60px" version="1.1" style="shape-rendering:geometricPrecision; text-rendering:geometricPrecision; image-rendering:optimizeQuality; fill-rule:evenodd; clip-rule:evenodd"
viewBox="0 0 600000 600000"
 xmlns:xlink="http://www.w3.org/1999/xlink">
 <defs>
  <style type="text/css">
   <![CDATA[
    .fil0 {fill:#fff}
   ]]>
  </style>
 </defs>
 <g id="Layer_x0020_1">
  <metadata id="CorelCorpID_0Corel-Layer"/>
  <path class="fil0" d="M125141 428200c0,7571 -6210,14321 -14323,14321 -6211,0 -11611,1627 -16206,5139 -5139,3246 -9184,7841 -12433,12974 -6482,8646 -9722,18910 -11075,22694l0 51345c0,7835 -6752,14323 -14862,14323 -7837,0 -14320,-6488 -14320,-14323l0 -106473c0,-7835 6483,-14048 14320,-14048 8110,0 14862,6213 14862,14048l0 1896c1622,-1896 3776,-4050 5673,-5405 8920,-5942 20534,-10812 34041,-10539 8113,0 14323,6213 14323,14048l0 0zm320110 -297514c-18981,9896 -117318,50329 -138258,61240 -20934,10916 -32564,10811 -49099,2905 -16540,-7905 -121193,-50176 -140046,-59187 -18848,-9009 -19245,-15214 -723,-22462 18519,-7251 122596,-48081 144590,-55976 21989,-7892 29625,-8178 48340,-1312 18720,6851 116467,45760 134966,52534 18502,6781 19213,12371 230,22258zm-134851 -8739l53969 -21351 0 1987 3 0 48782 19282 -48742 19258 0 -1987 -5295 2067 -48717 -19256zm-22022 54660l-22555 -9354 32320 -4958 -9765 14312zm-22555 -9354l-34972 -14505 82432 -12654 -15140 22201 -32320 4958zm62121 -71195l-30824 3203 -6900 16603 -11145 -18530 -35590 -3198 26556 -9575 -7966 -14707 24860 9723 23443 -7667 -6336 15202 23902 8946zm-75257 26308c0,-9428 -19729,-17078 -44056,-17078 -24333,0 -44062,7650 -44062,17078 0,9428 19729,17076 44062,17076 24327,0 44056,-7648 44056,-17076zm192564 64157c-18981,9899 -117318,50329 -138258,61251 -20934,10911 -32564,10803 -49099,2897 -16543,-7900 -121193,-50179 -140046,-59187 -9414,-4499 -14372,-8300 -14372,-11892l0 -35957c148,3586 4958,7381 14372,11877 18853,9011 123506,51285 140046,59196 16535,7903 28165,8008 49099,-2905 20940,-10914 119277,-51347 138258,-61246 9170,-4779 13739,-8555 13938,-11937l-9 35422c0,3549 -4266,7447 -13929,12481l0 0zm0 60806c-18981,9899 -117318,50330 -138258,61251 -20934,10908 -32564,10803 -49099,2895 -16543,-7901 -121193,-50179 -140046,-59185 -9414,-4502 -14372,-8303 -14372,-11894l0 -35955c148,3586 4958,7384 14372,11886 18853,9005 123503,51284 140046,59184 16535,7906 28165,8011 49099,-2902 20940,-10917 119277,-51350 138258,-61243 9170,-4776 13739,-8555 13938,-11940l-9 35419c0,3555 -4266,7453 -13929,12484l0 0zm0 58638c-18981,9896 -117318,50326 -138258,61240 -20934,10919 -32562,10811 -49099,2905 -16540,-7908 -121193,-50179 -140046,-59187 -9414,-4507 -14372,-8309 -14372,-11894l0 -35958c148,3577 4958,7381 14372,11888 18853,9003 123503,51282 140046,59182 16535,7906 28165,8017 49099,-2905 20940,-10914 119277,-51341 138258,-61240 9170,-4776 13739,-8555 13938,-11940l-9 35417c0,3554 -4266,7455 -13929,12492l0 0zm10681 204376c4867,-6483 14320,-7297 20264,-2160 7033,5944 19188,12155 29727,11888 7297,0 14052,-2426 18380,-5133 3779,-3243 4862,-5947 4862,-8107 0,-1353 -272,-1894 -814,-2710 -272,-808 -1352,-1885 -3509,-3232 -3787,-2710 -11897,-5681 -21620,-7568l-269 0c-8379,-1622 -16489,-3782 -23508,-7025 -7296,-3520 -13788,-8379 -18655,-15675 -2962,-4865 -4589,-10806 -4589,-17025 0,-12430 7027,-22967 15948,-29722 9453,-6488 20806,-9997 33233,-9997 18646,0 31887,8915 40536,14862 6482,4317 8379,13240 4322,19990 -4322,6485 -13243,8385 -19992,3787 -8652,-5670 -16217,-10001 -24866,-10001 -6758,0 -12699,2166 -16211,4862 -3515,2437 -4326,4867 -4326,6219 0,1077 0,1349 541,2160 273,541 1083,1624 2977,2704 3512,2426 10533,4864 19726,6483l272 278 270 0c8917,1615 17297,4048 25132,7829 7288,3243 14592,8379 19182,15942 3245,5406 5133,11622 5133,17836 0,13240 -7296,24321 -17027,31345 -9723,6752 -21890,10809 -35128,10809 -21075,-272 -37284,-9995 -48095,-18641 -5950,-4873 -6755,-14057 -1896,-20004l0 6zm-18567 -130233c0,8107 -6214,14862 -14593,14862 -8110,0 -14593,-6755 -14593,-14862l0 -5669c0,-8110 6483,-14601 14593,-14601 8379,0 14593,6491 14593,14601l0 5669zm0 48906l0 105393c0,8110 -6214,14590 -14593,14590 -8110,0 -14593,-6480 -14593,-14590l0 -105393c0,-8640 6483,-14864 14593,-14864 8379,0 14593,6224 14593,14864zm-51415 105393c0,7838 -6492,14593 -14596,14593 -7296,0 -12971,-5134 -14321,-11617 -10267,7022 -23241,11617 -36748,11617 -36482,0 -65668,-30810 -65668,-67286 0,-37021 29186,-67822 65668,-67822 13238,0 26209,4317 36210,11344l0 -50797c0,-7841 6483,-14596 14859,-14596 8104,0 14593,6755 14593,14596l0 107005 0 270 0 52696 3 -3zm-65665 -91066c-9734,0 -18647,4053 -25399,11080 -6758,6755 -10811,16484 -10811,27293 0,10269 4053,19992 10811,26747 6752,7030 15665,11084 25399,11084 9995,0 18646,-4054 25395,-11084 6755,-6755 10815,-16478 10815,-26747 0,-10809 -4054,-20538 -10815,-27293 -6749,-7027 -15400,-11080 -25395,-11080zm-203061 38100c275,-36751 28919,-67552 65929,-67552 35132,0 62966,26209 65129,62688l0 1352c0,533 0,1885 -267,2427 -816,6491 -6485,10811 -14060,10811l-85929 0c1349,6219 4325,13241 9190,17833 5675,6491 16486,11353 25937,12161 9728,805 21350,-1622 28108,-6755 5675,-5948 16747,-5137 20268,-814 3509,3790 6213,11894 0,17566 -13244,12153 -29183,17836 -48376,17836 -37010,-266 -65654,-30804 -65929,-67553zm29452 -13240l76474 0c-2702,-10809 -16484,-26751 -39997,-28644 -22961,1082 -34317,17563 -36477,28644l0 0z"/>
 </g>
</svg>
