<svg xmlns="http://www.w3.org/2000/svg" xml:space="preserve" width="8.8194mm" height="8.8194mm" version="1.1" viewBox="0 0 881940 881940">
 <g fill="white">
  <path d="M-2368290 2082410c58000,37200 126900,58900 200910,58900 243360,0 380850,-205550 372570,-389930 25590,-18450 47830,-41520 65400,-67840 -23520,10430 -48780,17490 -75280,20630 27050,-16200 47850,-41880 57630,-72520 -25330,15030 -53400,25950 -83230,31830 -23920,-25480 -57990,-41380 -95690,-41380 -84600,0 -146780,78950 -127670,160930 -108950,-5450 -205530,-57640 -270160,-136950 -34340,58930 -17810,136000 40570,175020 -21490,-690 -41730,-6610 -59400,-16420 -1410,60750 42100,117530 105150,130200 -18470,5010 -38660,6150 -59180,2220 16640,52090 65060,89970 122430,91050 -55090,43190 -124520,62490 -194050,54260z"/>
  <path d="M60010 837850l163800 0 0 -529160 -163800 0 0 529160zm425660 -277770c0,-74400 34250,-118710 99800,-118710 60230,0 89180,42530 89180,118710 0,76220 0,277770 0,277770l163020 0c0,0 0,-193310 0,-335060 0,-141760 -80330,-210270 -192530,-210270 -112240,0 -159470,87450 -159470,87450l0 -71300 -157140 0 0 529180 157140 0c0,0 0,-196270 0,-277770zm-344530 -320700c53510,0 96860,-43770 96860,-97680 0,-53900 -43350,-97610 -96860,-97610 -53510,0 -96860,43710 -96860,97610 0,53910 43350,97680 96860,97680z"/>
  <path d="M-1889610 141110l170490 0 0 -426940 118950 0 12670 -142920 -131620 0c0,0 0,-53380 0,-81420 0,-33710 6780,-47030 39370,-47030 26210,0 92250,0 92250,0l0 -148350c0,0 -97270,0 -118050,0 -126860,0 -184060,55890 -184060,162820 0,93160 0,113980 0,113980l-88680 0 0 144720 88680 0 0 425140z"/>
  <path d="M-1164160 382470c-114990,0 -129400,500 -174560,2550 -45070,2070 -75820,9220 -102760,19680 -27830,10810 -51450,25300 -75000,48820 -23520,23550 -38010,47170 -48800,75000 -10500,26920 -17630,57680 -19680,102750 -2070,45160 -2550,59560 -2550,174540 0,114960 480,129400 2550,174540 2050,45070 9180,75830 19680,102750 10790,27830 25280,51450 48800,75000 23550,23540 47170,38010 75000,48850 26940,10430 57690,17600 102760,19650 45160,2050 59570,2550 174560,2550 114940,0 129350,-500 174540,-2550 45050,-2050 75790,-9220 102730,-19650 27850,-10840 51470,-25310 75020,-48850 23530,-23550 37990,-47170 48780,-75000 10500,-26920 17670,-57680 19700,-102750 2050,-45140 2550,-59580 2550,-174540 0,-114980 -500,-129380 -2550,-174540 -2030,-45070 -9200,-75830 -19700,-102750 -10790,-27830 -25250,-51450 -48780,-75000 -23550,-23520 -47170,-38010 -75020,-48820 -26940,-10460 -57680,-17610 -102730,-19680 -45190,-2050 -59600,-2550 -174540,-2550zm276770 197360c0,28050 -22750,50800 -50810,50800 -28030,0 -50810,-22750 -50810,-50800 0,-28060 22780,-50810 50810,-50810 28060,0 50810,22750 50810,50810zm-276770 367110c-77960,0 -141130,-63200 -141130,-141130 0,-77930 63170,-141110 141130,-141110 77930,0 141110,63180 141110,141110 0,77930 -63180,141130 -141110,141130zm0 -358500c-120090,0 -217400,97310 -217400,217370 0,120060 97310,217400 217400,217400 120040,0 217380,-97340 217380,-217400 0,-120060 -97340,-217370 -217380,-217370zm0 -129680c113030,0 126420,430 171050,2460 41270,1890 63700,8790 78600,14580 19770,7690 33860,16850 48690,31670 14800,14810 23980,28930 31680,48650 5780,14940 12680,37370 14550,78640 2050,44610 2500,58020 2500,171050 0,113030 -450,126440 -2500,171080 -1870,41260 -8770,63670 -14550,78590 -7700,19770 -16880,33860 -31680,48690 -14830,14800 -28920,23980 -48690,31650 -14900,5810 -37330,12710 -78600,14580 -44630,2050 -58000,2480 -171050,2480 -113050,0 -126440,-430 -171080,-2480 -41290,-1870 -63700,-8770 -78620,-14580 -19760,-7670 -33840,-16850 -48660,-31650 -14830,-14830 -23990,-28920 -31680,-48690 -5790,-14920 -12690,-37330 -14580,-78590 -2030,-44640 -2460,-58050 -2460,-171080 0,-113030 430,-126440 2460,-171050 1890,-41270 8790,-63700 14580,-78640 7690,-19720 16850,-33840 31680,-48650 14820,-14820 28900,-23980 48660,-31670 14920,-5790 37330,-12690 78620,-14580 44640,-2030 58030,-2460 171080,-2460z"/>
 </g>
</svg>
