<?xml version="1.0" encoding="UTF-8"?>
<!DOCTYPE svg PUBLIC "-//W3C//DTD SVG 1.1//EN" "http://www.w3.org/Graphics/SVG/1.1/DTD/svg11.dtd">
<!-- Creator: CorelDRAW 2020 (64-Bit) -->
<svg xmlns="http://www.w3.org/2000/svg" xml:space="preserve" width="85px" height="75px" version="1.1" style="shape-rendering:geometricPrecision; text-rendering:geometricPrecision; image-rendering:optimizeQuality; fill-rule:evenodd; clip-rule:evenodd"
viewBox="0 0 8500000 7500000"
 xmlns:xlink="http://www.w3.org/1999/xlink"
 xmlns:xodm="http://www.corel.com/coreldraw/odm/2003">
 <defs>
  <style type="text/css">
   <![CDATA[
    .fil4 {fill:#6699FF}
    .fil0 {fill:#6699FF;fill-rule:nonzero}
    .fil3 {fill:#6699FF;fill-rule:nonzero}
    .fil2 {fill:url(#id0)}
    .fil1 {fill:url(#id1)}
   ]]>
  </style>
  <linearGradient id="id0" gradientUnits="userSpaceOnUse" x1="5579300" y1="6562400" x2="5614100" y2="1750300">
   <stop offset="0" style="stop-opacity:1; stop-color:#2BD5FF"/>
   <stop offset="1" style="stop-opacity:1; stop-color:#0081EB"/>
  </linearGradient>
  <linearGradient id="id1" gradientUnits="userSpaceOnUse" x1="933700" y1="5970900" x2="4875400" y2="4728600">
   <stop offset="0" style="stop-opacity:1; stop-color:#22C4FB"/>
   <stop offset="1" style="stop-opacity:1; stop-color:#00518A"/>
  </linearGradient>
 </defs>
 <g id="Layer_x0020_1">
  <metadata id="CorelCorpID_0Corel-Layer"/>
  <g id="_2173593048976">
   <path class="fil0" d="M2971600 1835800l-773700 -614700 10600 -13400 -18800 0 0 -564100c-61100,-16500 -106100,-72300 -106100,-138600 0,-79300 64300,-143600 143600,-143600 79300,0 143600,64300 143600,143600 0,66300 -45000,122100 -106100,138600l0 534900 89900 71500 331900 -263700 0 -522800c-61100,-16500 -106100,-72200 -106100,-138500 0,-79300 64400,-143600 143600,-143600 79300,0 143600,64300 143600,143600 0,66300 -45000,122100 -106000,138500l0 540900 -13100 0 13800 17400 -347500 276000 556800 442400 0 -720700c-61100,-16500 -106100,-72400 -106100,-138700 0,-79300 64400,-143500 143600,-143500 79400,0 143600,64200 143600,143500 0,66300 -44900,122200 -106100,138700l0 1690300 -75000 -79400 0 -794600zm2540600 0l773800 -614700 -10600 -13400 18800 0 0 -564100c61000,-16500 106000,-72300 106000,-138600 0,-79300 -64300,-143600 -143500,-143600 -79400,0 -143700,64300 -143700,143600 0,66300 45000,122100 106200,138600l0 534900 -90000 71500 -331900 -263700 0 -522800c61100,-16500 106100,-72200 106100,-138500 0,-79300 -64300,-143600 -143600,-143600 -79300,0 -143600,64300 -143600,143600 0,66300 45000,122100 106100,138500l0 540900 13000 0 -13800 17400 347500 276000 -556800 442400 0 -720700c61100,-16500 106100,-72400 106100,-138700 0,-79300 -64400,-143500 -143600,-143500 -79400,0 -143600,64200 -143600,143500 0,66300 44900,122200 106100,138700l0 1690300 75000 -79400 0 -794600zm-1245300 -5800c68100,11200 120000,70400 120000,141800 0,66300 -44900,122100 -106000,138500l0 984700 717000 -569500 0 -172900 -382900 -304200 13800 -17400 -13000 0 0 -311600c-61200,-16500 -106200,-72300 -106200,-138700 0,-79300 64400,-143600 143700,-143600 79200,0 143500,64300 143500,143600 0,66400 -45000,122200 -106000,138700l0 293500 307100 244000 0 -266200c-61200,-16500 -106200,-72400 -106200,-138700 0,-79400 64300,-143600 143700,-143600 79300,0 143500,64200 143500,143600 0,66300 -44900,122200 -106000,138700l0 564100 -18800 0 10600 13300 -783800 622600 0 739200 -19800 0 -19200 -19400 -19100 19400 -19900 0 0 -739200 -783700 -622600 10600 -13300 -18900 0 0 -564100c-61000,-16500 -106000,-72400 -106000,-138700 0,-79400 64300,-143600 143500,-143600 79400,0 143700,64200 143700,143600 0,66300 -45000,122200 -106200,138700l0 266200 307200 -244000 0 -293500c-61100,-16500 -106100,-72300 -106100,-138700 0,-79300 64300,-143600 143600,-143600 79200,0 143600,64300 143600,143600 0,66400 -45000,122200 -106100,138700l0 311600 -13100 0 13900 17400 -383000 304200 0 172900 717000 569500 0 -984700c-61100,-16400 -106000,-72200 -106000,-138500 0,-71200 51700,-130400 119700,-141700 15900,-2700 34300,-2700 50300,-100z"/>
   <g>
    <path class="fil1" d="M62500 2677200l729200 -737400c352500,-356600 922900,-349900 1267500,15000l3513400 3719700 -729200 737500c-352600,356500 -923000,349800 -1267500,-15100l-3513400 -3719700z"/>
    <path class="fil2" d="M8437500 2781300l-712700 -754600c-344600,-364800 -915000,-371500 -1267500,-14900l-3594800 3635400 712600 754600c344700,364800 915100,371600 1267600,15000l3594800 -3635500z"/>
   </g>
   <path class="fil3" d="M4250000 1500000l-186500 -107800 0 -567400 -376700 -217400 0 -340700 563200 325200 563200 -325200 0 340700 -376600 217400 0 567400 -186600 107800zm-971100 -902300l583900 337200 0 341100 -583900 -337100 0 -341200zm1942300 0l-584000 337200 0 341100 584000 -337100 0 -341200z"/>
   <g>
    <path class="fil4" d="M1594300 5269300c69000,20200 108500,92500 88300,161500 -3500,12100 -8600,23200 -15000,33300l1492600 1600900c29100,-15700 64200,-20500 98500,-10400 69000,20200 108600,92500 88400,161500 -20200,69000 -92500,108600 -161600,88400 -69000,-20200 -108500,-92600 -88300,-161600 3500,-12000 8600,-23100 15000,-33200l-1492600 -1600900c-29100,15700 -64200,20500 -98500,10400 -69000,-20200 -108600,-92500 -88400,-161500 20200,-69000 92500,-108600 161600,-88400zm-1135800 -1274300l343400 272900 8200 13300 0 564100c61100,16500 106100,72300 106100,138600 0,79300 -64300,143600 -143600,143600 -79400,0 -143600,-64300 -143600,-143600 0,-66300 44900,-122100 106100,-138600l0 -534900 -90000 -71500 -331900 263700 0 522800c61100,16500 106100,72200 106100,138500 0,79300 -64300,143600 -143600,143600 -79300,0 -143500,-64300 -143500,-143600 0,-66300 44900,-122000 106000,-138500l0 -540900 -700 -17300 347500 -276100 -161700 -128400c-27200,29800 -66400,48500 -110000,48500 -82100,0 -148700,-66600 -148700,-148800 0,-82100 66600,-148700 148700,-148700 82200,0 148800,66600 148800,148700 0,11200 -1200,22100 -3600,32600zm485500 1615400c78800,23100 124000,105700 100900,184600 -4000,13700 -9800,26400 -17100,38000l877700 962500c33300,-18000 53600,-29200 112600,-12000 59000,17300 124000,105800 100900,184600 -23000,78900 -105700,124100 -184500,101000 -78800,-23100 -114500,-138300 -101000,-184600 13600,-46300 9900,-26400 17200,-38000l-877700 -962500c-33300,18000 -73400,23400 -112600,11900 -78900,-23000 -124100,-105700 -101000,-184500 23100,-78900 105700,-124100 184600,-101000z"/>
    <path class="fil4" d="M6905800 5269300c-69000,20200 -108600,92500 -88400,161500 3500,12100 8600,23200 15000,33300l-1492500 1600900c-29200,-15700 -64300,-20500 -98600,-10400 -69000,20200 -108600,92500 -88300,161500 20200,69000 92500,108600 161500,88400 69000,-20200 108600,-92600 88400,-161600 -3600,-12000 -8700,-23100 -15100,-33200l1492600 -1600900c29100,15700 64300,20500 98600,10400 68900,-20200 108500,-92500 88300,-161500 -20200,-69000 -92500,-108600 -161500,-88400zm1135700 -1274300l-343400 272900 -8200 13300 0 564100c-61100,16500 -106000,72300 -106000,138600 0,79300 64200,143600 143500,143600 79400,0 143600,-64300 143600,-143600 0,-66300 -44900,-122100 -106100,-138600l0 -534900 90000 -71500 331900 263700 0 522800c-61100,16500 -106100,72200 -106100,138500 0,79300 64300,143600 143600,143600 79300,0 143500,-64300 143500,-143600 0,-66300 -44900,-122000 -106000,-138500l0 -540900 800 -17300 -347500 -276100 161700 -128400c27200,29800 66300,48500 109900,48500 82100,0 148700,-66600 148700,-148800 0,-82100 -66600,-148700 -148700,-148700 -82200,0 -148800,66600 -148800,148700 0,11200 1300,22100 3600,32600zm-485400 1615400c-78900,23100 -124100,105700 -101000,184600 4000,13700 9800,26400 17200,38000l-877800 962500c-33300,-18000 -53600,-29200 -112500,-12000 -59100,17300 -124100,105800 -101000,184600 23100,78900 105700,124100 184500,101000 78900,-23100 114600,-138300 101000,-184600 -13500,-46300 -9800,-26400 -17200,-38000l877800 -962500c33200,18000 73400,23400 112600,11900 78800,-23000 124000,-105700 100900,-184500 -23100,-78900 -105700,-124100 -184500,-101000z"/>
   </g>
  </g>
 </g>
</svg>
