<svg xmlns="http://www.w3.org/2000/svg" xml:space="preserve" width="75px" height="75px" version="1.1" viewBox="0 0 75 75">
  <g>
    <path fill="white" d="M-0.27 61.4c6.81,4.36 14.9,6.91 23.59,6.91 28.57,0 44.71,-24.13 43.73,-45.77 3.01,-2.17 5.62,-4.88 7.68,-7.96 -2.76,1.22 -5.73,2.05 -8.84,2.42 3.18,-1.9 5.62,-4.92 6.77,-8.52 -2.97,1.77 -6.27,3.05 -9.77,3.74 -2.81,-2.99 -6.81,-4.86 -11.23,-4.86 -9.94,0 -17.23,9.27 -14.99,18.89 -12.79,-0.64 -24.13,-6.76 -31.71,-16.07 -4.04,6.92 -2.1,15.96 4.76,20.54 -2.53,-0.08 -4.9,-0.77 -6.98,-1.92 -0.16,7.13 4.95,13.79 12.35,15.28 -2.17,0.59 -4.54,0.72 -6.95,0.26 1.95,6.12 7.64,10.56 14.37,10.69 -6.46,5.07 -14.61,7.33 -22.78,6.37z"/>
 </g>
</svg>
