<?xml version="1.0" encoding="UTF-8"?>
<!DOCTYPE svg PUBLIC "-//W3C//DTD SVG 1.1//EN" "http://www.w3.org/Graphics/SVG/1.1/DTD/svg11.dtd">
<!-- Creator: CorelDRAW 2020 (64-Bit) -->
<svg xmlns="http://www.w3.org/2000/svg" xml:space="preserve" width="85px" height="75px" version="1.1" style="shape-rendering:geometricPrecision; text-rendering:geometricPrecision; image-rendering:optimizeQuality; fill-rule:evenodd; clip-rule:evenodd"
viewBox="0 0 8500000 7500000"
 xmlns:xlink="http://www.w3.org/1999/xlink"
 xmlns:xodm="http://www.corel.com/coreldraw/odm/2003">
 <defs>
  <style type="text/css">
   <![CDATA[
    .fil1 {fill:#6699FF}
    .fil0 {fill:#6699FF}
    .fil2 {fill:#6699FF;fill-rule:nonzero}
    .fil3 {fill:url(#id0)}
    .fil4 {fill:url(#id1)}
    .fil5 {fill:url(#id2)}
   ]]>
  </style>
  <linearGradient id="id0" gradientUnits="userSpaceOnUse" x1="1785600" y1="4382800" x2="4580300" y2="658500">
   <stop offset="0" style="stop-opacity:1; stop-color:#2BD5FF"/>
   <stop offset="1" style="stop-opacity:1; stop-color:#0081EB"/>
  </linearGradient>
  <linearGradient id="id1" gradientUnits="userSpaceOnUse" xlink:href="#id0" x1="4281700" y1="1628900" x2="7516500" y2="4736300">
  </linearGradient>
  <linearGradient id="id2" gradientUnits="userSpaceOnUse" x1="5172600" y1="4072500" x2="2364500" y2="5237100">
   <stop offset="0" style="stop-opacity:1; stop-color:#22C4FB"/>
   <stop offset="1" style="stop-opacity:1; stop-color:#00518A"/>
  </linearGradient>
 </defs>
 <g id="Layer_x0020_1">
  <metadata id="CorelCorpID_0Corel-Layer"/>
  <g id="_2209503967744">
   <path class="fil0" d="M4250000 7416600l-186600 -107700 0 -567400 -376600 -217500 0 -340600 563200 325200 563200 -325200 0 340600 -376700 217500 0 567400 -186500 107700zm-971200 -902200l584000 337200 0 341100 -584000 -337200 0 -341100zm1942300 0l-583900 337200 0 341100 583900 -337200 0 -341100z"/>
   <g>
    <g>
     <path class="fil1" d="M1448500 5501200c82200,0 148800,66600 148800,148800 0,14300 -2000,28200 -5800,41300l1150100 698600c26900,-26600 43300,-43000 104700,-43000 61500,0 148800,66600 148800,148700 0,82200 -66600,148800 -148800,148800 -82100,0 -148700,-100500 -148700,-148800 0,-48200 2000,-28200 5800,-41300l-1150200 -698600c-26900,26600 -63800,43000 -104700,43000 -82100,0 -148800,-66600 -148800,-148700 0,-82200 66700,-148800 148800,-148800z"/>
     <path class="fil1" d="M2099700 427600c82100,0 148700,66700 148700,148800 0,82100 -66600,148800 -148700,148800 -46900,0 -88800,-21800 -116000,-55700 -152900,110100 -287600,200400 -405500,279400 -482800,323500 -677400,454000 -676400,1003900l2100 1136000c64200,16500 111600,74800 111600,144100 0,82200 -66600,148800 -148700,148800 -82200,0 -148800,-66600 -148800,-148800 0,-69100 47200,-127300 111200,-143900l-2200 -1136200c-1000,-589800 203200,-726700 709600,-1066100 120700,-80800 259100,-173500 416100,-287100 -1200,-7600 -1800,-15300 -1800,-23200 0,-82100 66600,-148800 148800,-148800z"/>
     <path class="fil1" d="M1867100 6458300c82200,0 148800,100500 148800,148700 0,48200 -2000,28200 -5800,41300l822900 455900c26900,-26600 43200,-43100 104700,-43100 61500,0 148800,66600 148800,148800 0,82100 -66700,148800 -148800,148800 -82200,0 -148800,-100600 -148800,-148800 0,-48300 2100,-28200 5800,-41300l-822900 -455900c-26800,26600 -43200,43100 -104700,43100 -61500,0 -148700,-66600 -148700,-148800 0,-82100 66600,-148700 148700,-148700z"/>
     <path class="fil2" d="M823100 5189300l-611700 -486000 -8200 -13300 0 -564100c-61000,-16500 -106000,-72400 -106000,-138700 0,-79300 64300,-143500 143500,-143500 79400,0 143700,64200 143700,143500 0,66400 -45000,122200 -106200,138700l0 534800 90000 71500 331900 -263600 0 -522800c-61100,-16500 -106100,-72300 -106100,-138600 0,-79300 64300,-143500 143600,-143500 79300,0 143600,64200 143600,143500 0,66300 -45000,122100 -106100,138600l0 540900 800 17300 -347500 276100 443800 347100c24700,-18100 55100,-28800 88000,-28800 82200,0 148800,66600 148800,148700 0,82200 -66600,148800 -148800,148800 -82100,0 -148700,-66600 -148700,-148800 0,-20500 4100,-40000 11600,-57800z"/>
    </g>
    <g>
     <path class="fil1" d="M7051500 5501200c-82200,0 -148800,66600 -148800,148800 0,14300 2000,28200 5800,41300l-1150100 698600c-26900,-26600 -43300,-43000 -104700,-43000 -61500,0 -148800,66600 -148800,148700 0,82200 66600,148800 148800,148800 82100,0 148700,-100500 148700,-148800 0,-48200 -2000,-28200 -5800,-41300l1150200 -698600c26900,26600 63800,43000 104700,43000 82100,0 148800,-66600 148800,-148700 0,-82200 -66700,-148800 -148800,-148800z"/>
     <path class="fil1" d="M6400300 427600c-82100,0 -148700,66700 -148700,148800 0,82100 66600,148800 148700,148800 46900,0 88800,-21800 116000,-55700 152900,110100 287600,200400 405500,279400 482800,323500 677400,454000 676400,1003900l-2100 1136000c-64200,16500 -111600,74800 -111600,144100 0,82200 66600,148800 148700,148800 82200,0 148800,-66600 148800,-148800 0,-69100 -47200,-127300 -111200,-143900l2200 -1136200c1000,-589800 -203200,-726700 -709600,-1066100 -120700,-80800 -259100,-173500 -416100,-287100 1200,-7600 1800,-15300 1800,-23200 0,-82100 -66600,-148800 -148800,-148800z"/>
     <path class="fil1" d="M6632900 6458300c-82200,0 -148800,100500 -148800,148700 0,48200 2000,28200 5800,41300l-822900 455900c-26900,-26600 -43200,-43100 -104700,-43100 -61500,0 -148800,66600 -148800,148800 0,82100 66700,148800 148800,148800 82200,0 148800,-100600 148800,-148800 0,-48300 -2100,-28200 -5800,-41300l822900 -455900c26800,26600 43200,43100 104700,43100 61500,0 148700,-66600 148700,-148800 0,-82100 -66600,-148700 -148700,-148700z"/>
     <path class="fil2" d="M7676900 5189300l611700 -486000 8200 -13300 0 -564100c61000,-16500 106000,-72400 106000,-138700 0,-79300 -64300,-143500 -143500,-143500 -79400,0 -143700,64200 -143700,143500 0,66400 45000,122200 106200,138700l0 534800 -90000 71500 -331900 -263600 0 -522800c61100,-16500 106100,-72300 106100,-138600 0,-79300 -64300,-143500 -143600,-143500 -79300,0 -143600,64200 -143600,143500 0,66300 45000,122100 106100,138600l0 540900 -800 17300 347500 276100 -443800 347100c-24700,-18100 -55100,-28800 -88000,-28800 -82200,0 -148800,66600 -148800,148700 0,82200 66600,148800 148800,148800 82100,0 148700,-66600 148700,-148800 0,-20500 -4100,-40000 -11600,-57800z"/>
    </g>
   </g>
   <g>
    <path class="fil3" d="M3930400 128300l-2222500 1283200c-197800,114200 -319600,325200 -319600,553600l0 2566200c0,228400 121800,439400 319600,553600l1369100 790400 0 0c-767400,-443000 -604300,-1146900 -200800,-1834000 285400,-485800 1457000,-2518500 2118700,-3667400l-425300 -245600c-197800,-114200 -441500,-114200 -639200,0z"/>
    <path class="fil4" d="M7111600 4531300l0 -2566200c0,-228400 -121700,-439400 -319600,-553600l-2222400 -1283200c-197800,-114200 -441500,-114200 -639200,0l-1369000 790500 -100 0c767400,-443100 1295400,50200 1688700,743100 278100,490100 1452600,2521100 2116800,3668600l425200 -245600c197900,-114200 319600,-325200 319600,-553600z"/>
    <path class="fil5" d="M7111600 2950500l0 0c0,886100 -691100,1096800 -1487900,1090800 -383700,-2800 -1594200,-2900 -2746100,-2300 -500,800 -900,1600 -1400,2300 -403500,687100 -566600,1391000 200800,1834000l377800 218200 0 -375200 795200 459100 795200 -459100 0 375100 1746800 -1008500c197900,-114200 319600,-325200 319700,-553600l-100 -1580800z"/>
   </g>
  </g>
 </g>
</svg>
