<?xml version="1.0" encoding="UTF-8"?>
<!DOCTYPE svg PUBLIC "-//W3C//DTD SVG 1.1//EN" "http://www.w3.org/Graphics/SVG/1.1/DTD/svg11.dtd">
<!-- Creator: CorelDRAW 2020 (64-Bit) -->
<svg xmlns="http://www.w3.org/2000/svg" xml:space="preserve" width="85px" height="75px" version="1.1" style="shape-rendering:geometricPrecision; text-rendering:geometricPrecision; image-rendering:optimizeQuality; fill-rule:evenodd; clip-rule:evenodd"
viewBox="0 0 8500000 7500000"
 xmlns:xlink="http://www.w3.org/1999/xlink"
 xmlns:xodm="http://www.corel.com/coreldraw/odm/2003">
 <defs>
  <style type="text/css">
   <![CDATA[
    .fil5 {fill:#6699FF}
    .fil0 {fill:#6699FF}
    .fil6 {fill:#6699FF;fill-rule:nonzero}
    .fil3 {fill:url(#id0)}
    .fil1 {fill:url(#id1)}
    .fil4 {fill:url(#id2)}
    .fil2 {fill:url(#id3)}
   ]]>
  </style>
  <linearGradient id="id0" gradientUnits="userSpaceOnUse" x1="5119300" y1="862700" x2="5988900" y2="3555100">
   <stop offset="0" style="stop-opacity:1; stop-color:#22C4FB"/>
   <stop offset="1" style="stop-opacity:1; stop-color:#00518A"/>
  </linearGradient>
  <linearGradient id="id1" gradientUnits="userSpaceOnUse" xlink:href="#id0" x1="3380800" y1="862700" x2="2511100" y2="3555100">
  </linearGradient>
  <linearGradient id="id2" gradientUnits="userSpaceOnUse" x1="6708300" y1="1698200" x2="6439500" y2="6905000">
   <stop offset="0" style="stop-opacity:1; stop-color:#2BD5FF"/>
   <stop offset="1" style="stop-opacity:1; stop-color:#0081EB"/>
  </linearGradient>
  <linearGradient id="id3" gradientUnits="userSpaceOnUse" xlink:href="#id2" x1="1791800" y1="1698200" x2="2060600" y2="6905000">
  </linearGradient>
 </defs>
 <g id="Layer_x0020_1">
  <metadata id="CorelCorpID_0Corel-Layer"/>
  <g id="_2173599491840">
   <path class="fil0" d="M4250000 7333200l-186500 -107700 0 -567400 -376700 -217500 0 -340600 563200 325200 563200 -325200 0 340600 -376600 217500 0 567400 -186600 107700zm-971100 -902200l583900 337200 0 341100 -583900 -337200 0 -341100zm1942300 0l-584000 337200 0 341100 584000 -337200 0 -341100z"/>
   <g>
    <path class="fil1" d="M2141600 4048000l-976300 -976200 2935500 -2935500c0,0 372300,1580100 -564300,2516700l-1394900 1395000z"/>
    <path class="fil2" d="M2722900 3937800c-1207900,-1207700 360500,-2776000 360500,-2776000l-2718700 2718700c1125600,1125600 1678400,1666400 2785800,2789600l0 -434300 299400 172900c1005200,-1184500 131400,-1612400 -727000,-2470900z"/>
    <path class="fil3" d="M6358500 4048000l976200 -976200 -2935500 -2935500c0,0 -372300,1580100 564300,2516700l1395000 1395000z"/>
    <path class="fil4" d="M5777200 3937800c1207800,-1207700 -360500,-2776000 -360500,-2776000l2718700 2718700c-1125700,1125600 -1678500,1666300 -2785800,2789600l0 -434300 -299400 172900c-1005300,-1184500 -131400,-1612400 727000,-2470900z"/>
   </g>
   <g>
    <g>
     <path class="fil5" d="M408300 4554700c79500,20600 127300,101700 106800,181300 -3600,13800 -9000,26800 -15900,38500l1763000 1773600c32700,-19100 72600,-25800 112200,-15500 79500,20500 127400,101700 106800,181200 -20500,79500 -101700,127400 -181200,106800 -79600,-20500 -127400,-101700 -106900,-181200 3600,-13900 9100,-26800 16000,-38600l-1763100 -1773500c-32700,19000 -72600,25700 -112100,15500 -79600,-20500 -127400,-101700 -106900,-181200 20600,-79600 101700,-127400 181300,-106900z"/>
     <path class="fil5" d="M482200 5499700c80500,16400 132400,95100 115900,175500 -2900,14100 -7700,27200 -14000,39300l954300 886600c31700,-20700 51000,-33500 111200,-21200 60300,12400 132400,95100 115900,175600 -16500,80500 -95100,132400 -175600,115900 -80400,-16500 -125500,-128300 -115900,-175600 9700,-47200 7700,-27200 14000,-39300l-954300 -886600c-31700,20700 -71200,29400 -111200,21200 -80500,-16500 -132400,-95100 -115900,-175600 16500,-80400 95100,-132300 175600,-115800z"/>
     <path class="fil6" d="M3671400 4389300l-373400 -296700 -8200 -13300 0 -564100c-61100,-16500 -106100,-72400 -106100,-138700 0,-79300 64300,-143500 143600,-143500 79300,0 143600,64200 143600,143500 0,66400 -45000,122200 -106100,138700l0 534800 89900 71500 331900 -263600 0 -522800c-61100,-16500 -106100,-72300 -106100,-138600 0,-79300 64400,-143500 143600,-143500 79300,0 143600,64200 143600,143500 0,66300 -45000,122100 -106000,138600l0 540900 700 17300 -347500 276100 205600 157900c24700,-18100 30500,-28900 88100,-28900 57500,0 148700,66600 148700,148800 0,82100 -66600,148700 -148700,148700 -82200,0 -148800,-97400 -148800,-148700 0,-51400 4100,-40100 11600,-57900z"/>
     <path class="fil6" d="M1629600 1795000l-555000 549800 -14200 6600 -560200 -66900c-23600,58700 -84400,96800 -150200,88900 -78800,-9400 -135000,-80800 -125600,-159500 9400,-78900 80900,-135000 159600,-125600 65900,7800 115900,59100 125100,121800l531100 63400 81600 -80900 -222400 -360800 -519100 -62000c-23700,58800 -84400,96800 -150200,88900 -78700,-9300 -134900,-80800 -125500,-159600 9400,-78700 80800,-134900 159500,-125400 65900,7800 115900,59000 125000,121600l537100 64100 17300 1300 233000 377800 397300 -399600c-15100,-26600 -22100,-58100 -18200,-90800 9700,-81600 83700,-139800 165300,-130100 81600,9800 139800,83800 130100,165400 -9700,81500 -83800,139800 -165300,130000 -20400,-2400 -39400,-8800 -56100,-18400z"/>
     <path class="fil5" d="M2750800 571300c-80500,16500 -132400,95100 -115900,175600 2900,14000 7700,27200 14000,39300l-353800 300800c-31700,-20700 -51000,-33500 -111300,-21200 -60200,12300 -132300,95100 -115800,175600 16400,80500 95100,132300 175500,115900 80500,-16500 125600,-128400 116000,-175600 -9700,-47300 -7700,-27200 -14000,-39300l353800 -300800c31600,20700 71200,29400 111200,21200 80500,-16500 132400,-95100 115900,-175600 -16500,-80500 -95100,-132400 -175600,-115900z"/>
     <path class="fil5" d="M788800 2685400c-80500,16500 -132400,95100 -115900,175600 2900,14100 7600,27200 14000,39300l-353800 300800c-31700,-20700 -51000,-33500 -111300,-21200 -60200,12300 -132300,95100 -115800,175600 16400,80500 95100,132300 175500,115900 80500,-16500 125600,-128300 115900,-175600 -9600,-47300 -7600,-27200 -14000,-39300l353900 -300800c31600,20700 71200,29400 111200,21200 80500,-16500 132400,-95100 115900,-175600 -16500,-80500 -95100,-132400 -175600,-115900z"/>
    </g>
    <g>
     <path class="fil5" d="M8091700 4554700c-79500,20600 -127300,101700 -106800,181300 3600,13800 9000,26800 15900,38500l-1763000 1773600c-32700,-19100 -72600,-25800 -112200,-15500 -79500,20500 -127400,101700 -106800,181200 20500,79500 101700,127400 181200,106800 79600,-20500 127400,-101700 106900,-181200 -3600,-13900 -9100,-26800 -16000,-38600l1763100 -1773500c32700,19000 72600,25700 112100,15500 79600,-20500 127400,-101700 106900,-181200 -20600,-79600 -101700,-127400 -181300,-106900z"/>
     <path class="fil5" d="M8017800 5499700c-80500,16400 -132400,95100 -115900,175500 2900,14100 7700,27200 14000,39300l-954300 886600c-31700,-20700 -51000,-33500 -111200,-21200 -60300,12400 -132400,95100 -115900,175600 16500,80500 95100,132400 175600,115900 80400,-16500 125500,-128300 115900,-175600 -9700,-47200 -7700,-27200 -14000,-39300l954300 -886600c31700,20700 71200,29400 111200,21200 80500,-16500 132400,-95100 115900,-175600 -16500,-80400 -95100,-132300 -175600,-115800z"/>
     <path class="fil6" d="M4828600 4389300l373400 -296700 8200 -13300 0 -564100c61100,-16500 106100,-72400 106100,-138700 0,-79300 -64300,-143500 -143600,-143500 -79300,0 -143600,64200 -143600,143500 0,66400 45000,122200 106100,138700l0 534800 -89900 71500 -331900 -263600 0 -522800c61100,-16500 106100,-72300 106100,-138600 0,-79300 -64400,-143500 -143600,-143500 -79300,0 -143600,64200 -143600,143500 0,66300 45000,122100 106000,138600l0 540900 -700 17300 347500 276100 -205600 157900c-24700,-18100 -30500,-28900 -88100,-28900 -57500,0 -148700,66600 -148700,148800 0,82100 66600,148700 148700,148700 82200,0 148800,-97400 148800,-148700 0,-51400 -4100,-40100 -11600,-57900z"/>
     <path class="fil6" d="M6870400 1795000l555000 549800 14200 6600 560200 -66900c23600,58700 84400,96800 150200,88900 78800,-9400 135000,-80800 125600,-159500 -9400,-78900 -80900,-135000 -159600,-125600 -65900,7800 -115900,59100 -125100,121800l-531100 63400 -81600 -80900 222400 -360800 519100 -62000c23700,58800 84400,96800 150200,88900 78700,-9300 134900,-80800 125500,-159600 -9400,-78700 -80800,-134900 -159500,-125400 -65900,7800 -115900,59000 -125000,121600l-537100 64100 -17300 1300 -233000 377800 -397300 -399600c15100,-26600 22100,-58100 18200,-90800 -9700,-81600 -83700,-139800 -165300,-130100 -81600,9800 -139800,83800 -130100,165400 9700,81500 83800,139800 165300,130000 20400,-2400 39400,-8800 56100,-18400z"/>
     <path class="fil5" d="M5749200 571300c80500,16500 132400,95100 115900,175600 -2900,14000 -7700,27200 -14000,39300l353800 300800c31700,-20700 51000,-33500 111300,-21200 60200,12300 132300,95100 115800,175600 -16400,80500 -95100,132300 -175500,115900 -80500,-16500 -125600,-128400 -116000,-175600 9700,-47300 7700,-27200 14000,-39300l-353800 -300800c-31600,20700 -71200,29400 -111200,21200 -80500,-16500 -132400,-95100 -115900,-175600 16500,-80500 95100,-132400 175600,-115900z"/>
     <path class="fil5" d="M7711200 2685400c80500,16500 132400,95100 115900,175600 -2900,14100 -7600,27200 -14000,39300l353800 300800c31700,-20700 51000,-33500 111300,-21200 60200,12300 132300,95100 115800,175600 -16400,80500 -95100,132300 -175500,115900 -80500,-16500 -125600,-128300 -115900,-175600 9600,-47300 7600,-27200 14000,-39300l-353900 -300800c-31600,20700 -71200,29400 -111200,21200 -80500,-16500 -132400,-95100 -115900,-175600 16500,-80500 95100,-132400 175600,-115900z"/>
    </g>
   </g>
  </g>
 </g>
</svg>
