<?xml version="1.0" encoding="UTF-8"?>
<!DOCTYPE svg PUBLIC "-//W3C//DTD SVG 1.1//EN" "http://www.w3.org/Graphics/SVG/1.1/DTD/svg11.dtd">
<!-- Creator: CorelDRAW 2020 (64-Bit) -->
<svg xmlns="http://www.w3.org/2000/svg" xml:space="preserve" width="85px" height="75px" version="1.1" style="shape-rendering:geometricPrecision; text-rendering:geometricPrecision; image-rendering:optimizeQuality; fill-rule:evenodd; clip-rule:evenodd"
viewBox="0 0 8500000 7500000"
 xmlns:xlink="http://www.w3.org/1999/xlink"
 xmlns:xodm="http://www.corel.com/coreldraw/odm/2003">
 <defs>
  <style type="text/css">
   <![CDATA[
    .fil0 {fill:#6699FF}
    .fil1 {fill:url(#id0)}
    .fil2 {fill:url(#id1)}
   ]]>
  </style>
  <linearGradient id="id0" gradientUnits="userSpaceOnUse" x1="4249000" y1="6166600" x2="4249200" y2="1840700">
   <stop offset="0" style="stop-opacity:1; stop-color:#22C4FB"/>
   <stop offset="1" style="stop-opacity:1; stop-color:#00518A"/>
  </linearGradient>
  <linearGradient id="id1" gradientUnits="userSpaceOnUse" x1="4202100" y1="985400" x2="4259600" y2="3145800">
   <stop offset="0" style="stop-opacity:1; stop-color:#2BD5FF"/>
   <stop offset="1" style="stop-opacity:1; stop-color:#0081EB"/>
  </linearGradient>
 </defs>
 <g id="Layer_x0020_1">
  <metadata id="CorelCorpID_0Corel-Layer"/>
  <g id="_2173785227152">
   <path class="fil0" d="M2058800 6097900c46400,46300 117000,53300 170700,21200l1069300 1069300c-32100,53600 -25100,124300 21200,170600 54700,54700 143200,54700 197800,0 54700,-54600 54700,-143200 0,-197700 -46200,-46400 -116800,-53500 -170600,-21300l-1069300 -1069300c32200,-53700 25100,-124400 -21200,-170700 -54700,-54500 -143200,-54500 -197900,0 -54600,54700 -54600,143200 0,197900zm2191200 1260400l-186500 -107700 0 -567400 -376700 -217500 0 -340700 563200 325200 563200 -325200 0 340700 -376600 217500 0 567400 -186600 107700zm-971100 -902200l583900 337100 0 341100 -583900 -337100 0 -341100zm1942300 0l-584000 337100 0 341100 584000 -337100 0 -341100zm2643300 -1537500c-52000,99300 -110400,195800 -175200,288900 -89700,129000 -191400,251100 -304500,364100l-739500 739300c-37900,-22800 -85800,-27700 -129600,-9100 -72500,30900 -106300,114700 -75400,187200 30800,72500 114600,106300 187200,75500 72400,-30900 106300,-114800 75400,-187300 -2700,-6300 -5800,-12300 -9200,-17900l739500 -739300c116300,-116500 220500,-241600 312300,-373400 66500,-95700 126700,-195200 180300,-297900 9800,2100 20000,3200 30400,3200 78900,0 142800,-63900 142800,-142700 0,-78800 -63900,-142700 -142800,-142700 -78800,0 -142600,63900 -142600,142700 0,43900 19800,83200 50900,109400zm-1173400 -4654300c-12000,-77900 41500,-150700 119300,-162600 78000,-12100 150900,41400 162800,119300 3800,24800 1000,49100 -7100,71000 266800,190000 508100,429100 710700,708700 197400,272500 358200,583700 470300,925700 72600,-4100 137700,47400 149000,120800 12000,77900 -41500,150700 -119300,162800 -78100,11800 -150900,-41500 -162800,-119500 -9100,-59100 19500,-115300 67800,-144100 -110000,-334600 -267300,-639100 -460400,-905600 -197900,-273200 -433300,-506700 -693600,-692200 -20000,18100 -45300,30700 -73900,35200 -78000,11900 -150800,-41600 -162800,-119500zm287400 748800c0,-78900 63900,-142800 142700,-142800 78800,0 142700,63900 142700,142800 0,38800 -15500,74100 -40800,99800 199100,252100 361400,542500 477300,860400 130100,356800 202000,748100 202000,1158200 0,427800 -78100,834900 -219000,1203700 -128700,337300 -310100,642700 -532200,902600 15600,22900 24700,50500 24700,80300 0,78800 -63800,142800 -142700,142800 -78900,0 -142700,-64000 -142700,-142800 0,-78800 63800,-142700 142700,-142700 24300,0 47100,6100 67200,16800 216400,-253700 393400,-551800 519200,-881300 137900,-361100 214400,-760000 214400,-1179400 0,-402300 -70400,-785700 -197700,-1135000 -114500,-313600 -274800,-599800 -471500,-847500 -13800,4400 -28400,6800 -43600,6800 -78800,0 -142700,-63900 -142700,-142700zm-1798600 6345900c-54700,54700 -143300,54700 -197900,0 -54700,-54600 -54700,-143200 0,-197700 46300,-46400 116900,-53500 170700,-21300l1069300 -1069200c-32200,-53800 -25100,-124400 21200,-170800 54600,-54500 143300,-54500 197800,0 54700,54700 54700,143200 0,197900 -46200,46300 -116900,53400 -170600,21200l-1069300 1069300c32200,53700 25100,124300 -21200,170600zm-3371100 -7094700c12000,-77900 -41500,-150700 -119300,-162600 -78000,-12100 -150900,41400 -162800,119300 -3800,24800 -1000,49100 7100,71100 -266800,189900 -508100,428900 -710700,708600 -197300,272500 -358200,583700 -470300,925700 -72600,-4100 -137700,47500 -149000,120800 -11900,77900 41500,150700 119400,162800 78000,11800 150800,-41500 162700,-119500 9100,-59100 -19400,-115300 -67800,-144200 110000,-334600 267300,-639000 460400,-905500 197900,-273200 433400,-506700 693700,-692200 20000,18100 45300,30700 73900,35200 77900,11900 150800,-41600 162700,-119500zm-287400 748800c0,-78900 -63800,-142800 -142700,-142800 -78800,0 -142600,63900 -142600,142800 0,38800 15500,74100 40700,99800 -199000,252100 -361300,542600 -477300,860500 -130100,356700 -202000,748000 -202000,1158100 0,427800 78100,834900 219000,1203700 128800,337300 310200,642700 532300,902500 -15600,22900 -24800,50600 -24800,80400 0,78800 63900,142800 142800,142800 78700,0 142700,-64000 142700,-142800 0,-78800 -64000,-142700 -142700,-142700 -24300,0 -47100,6100 -67200,16800 -216500,-253700 -393400,-551800 -519200,-881300 -138000,-361100 -214500,-760000 -214500,-1179400 0,-402300 70400,-785700 197700,-1134900 114400,-313600 274900,-599800 471600,-847600 13700,4400 28300,6800 43500,6800 78900,0 142700,-63900 142700,-142700zm538200 5475900c30900,-72500 -2900,-156300 -75400,-187200 -43800,-18600 -91800,-13700 -129700,9200l-739400 -739400c-113100,-113100 -214800,-235100 -304600,-364100 -64700,-93100 -123200,-189600 -175100,-288900 31200,-26200 51000,-65500 51000,-109400 0,-78800 -63900,-142700 -142700,-142700 -78900,0 -142800,63900 -142800,142700 0,78800 63900,142700 142800,142700 10400,0 20600,-1100 30400,-3200 53600,102700 113800,202200 180300,297900 91700,131800 196000,256900 312300,373200l739500 739500c-3400,5700 -6500,11600 -9200,17900 -30800,72500 2900,156400 75400,187300 72600,30800 156400,-3000 187200,-75500z"/>
   <path class="fil1" d="M4238300 4050800c0,0 483500,-483400 656200,-656100 177600,-177600 276200,-404600 276200,-641400 0,-256500 -88800,-473600 -271300,-656100 -177600,-177600 -394600,-266400 -651200,-256500 -236800,0 -468700,93800 -641300,266400 -172700,172600 -266400,404500 -266400,641300 -9900,256500 74000,478600 251600,656100 177500,177600 646200,646300 646200,646300zm-2713200 -1294300c-7900,-712600 273200,-1413300 791800,-1931900 518700,-518700 1223400,-795800 1928100,-795800 720600,100 1405500,273100 1928100,795800 518700,518600 791800,1219300 799700,1932000 17700,1586000 -1476600,2728900 -2722700,3448400 -1196700,-934900 -2744100,-1729100 -2725000,-3448500z"/>
   <path class="fil2" d="M6972800 2756600c1000,83700 -2700,167400 -9800,250700 2700,-32800 -149300,-148700 -175400,-173000 -64800,-60000 -131300,-118000 -199900,-173600 -142800,-115800 -293900,-221500 -452300,-315100 -345000,-203700 -723800,-347600 -1117600,-421500 -267800,-50300 -552600,-86900 -825200,-72200 -785900,42600 -1526900,417400 -2128200,906300 -95100,77400 -187500,158000 -277200,241500 -29800,27700 -232200,186200 -226200,222700 -25000,-153500 -37600,-309300 -35900,-465900 -7900,-712600 273200,-1413300 791800,-1931900 518700,-518700 1223400,-795800 1928100,-795800 720600,100 1405500,273100 1928100,795800 518700,518600 791800,1219300 799700,1932000z"/>
  </g>
 </g>
</svg>
