<?xml version="1.0" encoding="UTF-8"?>
<!DOCTYPE svg PUBLIC "-//W3C//DTD SVG 1.1//EN" "http://www.w3.org/Graphics/SVG/1.1/DTD/svg11.dtd">
<!-- Creator: CorelDRAW X8 -->
<svg xmlns="http://www.w3.org/2000/svg" xml:space="preserve" width="60px" height="60px" version="1.1" style="shape-rendering:geometricPrecision; text-rendering:geometricPrecision; image-rendering:optimizeQuality; fill-rule:evenodd; clip-rule:evenodd"
viewBox="0 0 600000 600000"
 xmlns:xlink="http://www.w3.org/1999/xlink">
 <defs>
  <style type="text/css">
   <![CDATA[
    .fil0 {fill:#fff}
   ]]>
  </style>
 </defs>
 <g id="Layer_x0020_1">
  <metadata id="CorelCorpID_0Corel-Layer"/>
  <path class="fil0" d="M287425 66711c48805,-6030 95355,15035 122920,38018 113071,94295 51038,276555 -85043,289532 -56373,5374 -94612,-10330 -126791,-38084 -108122,-93271 -58615,-271251 88914,-289466zm93099 424146c9,5726 394,3235 1400,4488l10508 272c1404,17668 -1105,34721 1775,52217 4703,7109 3821,9609 14119,12464 5902,1635 17113,1944 22233,-1347l-349 -14065c-14726,-156 -17975,-335 -18125,-16453 -93,-9816 -638,-23655 479,-32935l18681 -1001 25 -13703 -18879 -354 -258 -21903c-23550,978 -19440,6701 -19462,20123l-11846 1729 -301 10468zm109625 -26370l1944 -9429c-269,-266 -621,-1102 -740,-861 -612,1216 -1187,-1401 -1445,-1681 -8249,-9105 -19398,-4995 -20549,3781 -1746,13334 12229,15835 20790,8190zm-48379 96383c5394,57 11333,-578 15361,-1207 1732,-4459 5164,-9584 2809,-16172 -5284,-14780 -30164,-6165 -22454,11225l4284 6154zm28905 0l19581 -884 749 -79526 -18760 -14 -2109 -15 539 80439zm-211247 -341853c7015,4195 45680,2398 57030,2310 7038,-15642 57583,-83906 64406,-100117l-121436 97807zm-31902 122355c10871,-6543 48742,-38758 61495,-49181 10418,-8516 20937,-16918 30994,-25609 6441,-5567 26609,-20421 30105,-25883l-56458 -502 -66136 101175zm-57002 202292c3362,2123 5216,6551 9638,9944 3912,3005 8697,5029 14397,6446 12479,3098 23434,828 34036,-2492l-2200 -14748c-21688,5408 -40325,431 -40331,-22768 -6,-23233 17592,-27287 39342,-23230l3461 -14392c-20494,-7359 -39141,-3665 -52007,9088 -14423,14292 -13204,32173 -6336,52152zm-127735 -64270c-9692,4073 -18306,7098 -20653,18675 -2733,13484 5584,21294 14193,25676 7123,3625 24922,7211 18967,18417 -5522,10392 -24492,2100 -32245,-366l-3554 14117c8725,4376 18896,6346 29911,5145 14978,-1630 14593,-5831 22646,-10446 16676,-40635 -32712,-34563 -31252,-50026 5247,-13448 17989,-5740 28140,-3524l3024 -13155c-7710,-5970 -18969,-5321 -29177,-4513zm317904 31947l-34546 402c3634,-26481 34276,-25605 34546,-402zm-46945 36022c4757,2078 5122,5431 11339,8703 16183,8521 33029,5618 49847,844l-1071 -12705c-7903,-1165 -47271,11265 -47367,-18252l52693 -17c1851,-21226 -1888,-20973 -6829,-36000 -122,-45 -27864,-25594 -53138,-607 -19661,19440 -11225,41488 -5474,58034zm221120 -52685c28069,-9626 33061,42588 11636,51112 -26696,10624 -36153,-42704 -11636,-51112zm-34543 30924c4796,52078 84719,47157 79971,-10849 -4266,-52086 -85340,-47443 -79971,10849zm-385085 -30912c28123,-9533 32967,42610 11531,51103 -26730,10593 -36039,-42798 -11531,-51103zm-21217 59406l7299 3271c3104,1579 4674,2188 8201,3007 11891,2767 25897,652 35311,-6375 4354,-3248 6556,-7976 10482,-10335 5911,-18068 9403,-32100 -1369,-48589 -7126,-10913 -22153,-19335 -41780,-15463 -15814,3118 -26884,14188 -30475,29362 -6225,26285 7965,37547 12331,45122zm143419 6780l19035 -890c2163,-22204 -4728,-24860 7290,-34200 3875,3761 8564,12620 11744,17291 4182,6140 7028,10936 11101,16866l23987 -22c-2461,-5145 -2104,-1188 -2962,-7022 -4695,-2576 -26278,-34030 -29453,-39804 4984,-8124 24889,-25809 27460,-32632 -20342,-15 -20489,-2129 -25883,4212 -6480,7614 -16492,23431 -22902,30163l-734 -70537 -18252 -23c-2084,7747 -1590,104080 -431,116598zm256885 -365585c-15463,-57870 -30906,-79442 -64032,-110540 -28831,-27069 -77534,-47240 -130967,-46392 -88620,5286 -148394,56279 -174181,121972 -34132,86970 5043,178524 54026,217015 27385,21527 57470,39929 104077,44941 121921,13105 230483,-86378 211077,-226996z"/>
 </g>
</svg>
